<?xml version="1.0" encoding="utf-8"?>
<!-- Generator: Adobe Illustrator 22.1.0, SVG Export Plug-In . SVG Version: 6.00 Build 0)  -->
<svg version="1.1" id="Layer_1" xmlns="http://www.w3.org/2000/svg" xmlns:xlink="http://www.w3.org/1999/xlink" x="0px" y="0px"
	 viewBox="0 0 1339 892" style="enable-background:new 0 0 1339 892;" xml:space="preserve">
<style type="text/css">
	.st0{opacity:0.57;}
	.st1{fill:url(#SVGID_1_);}
	.st2{fill:none;stroke:#00D3FF;stroke-width:4;stroke-miterlimit:10;}
	.st3{fill:#386CDC;}
	.st4{fill:#3840C7;}
	.st5{fill:#2DA3CB;}
	.st6{fill:#2DB8E3;}
	.st7{fill:#FFFFFF;}
	.st8{fill:none;stroke:#00D3FF;stroke-width:3;stroke-miterlimit:10;stroke-dasharray:5,10;}
	.st9{opacity:0.69;fill:#FFFFFF;}
	.st10{opacity:0.4;fill:url(#SVGID_2_);}
	.st11{opacity:0.4;fill:url(#SVGID_3_);}
	.st12{opacity:0.4;fill:url(#SVGID_4_);}
	.st13{opacity:0.4;fill:url(#SVGID_5_);}
	.st14{opacity:0.4;fill:url(#SVGID_6_);}
	.st15{opacity:0.4;fill:url(#SVGID_7_);}
</style>
<g>
	<g class="st0">
		<g id="XMLID_14_">
			<g>
				<radialGradient id="SVGID_1_" cx="669.427" cy="522.6671" r="380.5536" gradientUnits="userSpaceOnUse">
					<stop  offset="0" style="stop-color:#46E3FF;stop-opacity:0.8"/>
					<stop  offset="1" style="stop-color:#00FFFF;stop-opacity:0"/>
				</radialGradient>
				<path class="st1" d="M857.5,689.8l57.2-8.2l15.1-30.3l-42-22.6l0,0l-57.2,8.2l-15.1,30.3L857.5,689.8z M903,597.4l-42-22.5
					l-57.4,8.3l-15.2,30.4l42,22.5l57.5-8.3L903,597.4z M881,426.9l15.1-30.3l-42-22.6l0,0l-57.2,8.2l-15.1,30.3l42,22.6L881,426.9z
					 M807.9,467l-57.3,8.2l-15.3,30.6l41.8,22.4l57.2-8.2l15.3-30.7L807.9,467z M814.7,668l-56.9,8.2l-15.3,30.7l41.3,22.2l57.5-8.3
					l15.1-30.3L814.7,668z M777.2,529.2L762,559.7l41.9,22.5l57.4-8.3l15.2-30.4L834.4,521L777.2,529.2z M376.7,470.1l57.4-8.3
					l15-30.1l-41.9-22.5l-57.3,8.2l-0.1,0l-15.1,30.1L376.7,470.1z M433.9,462.8l-57.4,8.3l-15.2,30.4l42.1,22.6l57.3-8.2l15.2-30.4
					L433.9,462.8z M429.6,578.8l-42.2-22.6l-57.1,8.2l-15.2,30.5l41.9,22.5l57.4-8.3L429.6,578.8z M403.6,525.2l-15.1,30.3
					l42.2,22.6l57.2-8.2l15.2-30.5l-41.9-22.5L403.6,525.2z M387.5,555.1l15.2-30.4l-42.1-22.6l-57,8.2l-15.2,30.5l41.9,22.5
					L387.5,555.1z M507.5,422.7l15.1-30.2l-42-22.5l-57,8.2l-15.1,30.2l42,22.5L507.5,422.7z M523.4,391.8l57.2-8.2l15.2-30.5
					l-41.8-22.4l-57.6,8.3l-15.2,30.4L523.4,391.8z M581.1,384.4l-57.5,8.3l-15.1,30.3l42,22.6l57.2-8.2l15.2-30.5L581.1,384.4z
					 M514.3,623.8l15.3-30.7L488,570.8l-57.6,8.3l-15.1,30.3l42.2,22.6L514.3,623.8z M530.6,592.7l56.7-8.2l15.4-30.7l-41.6-22.3
					l-57.2,8.2l-15.2,30.5L530.6,592.7z M587.8,585.3l-57.5,8.3L515.1,624l42,22.5l57.2-8.2l15.2-30.5L587.8,585.3z M534.3,476.6
					l15.1-30.3l-41.8-22.4l-57.6,8.3L435,462.3l41.9,22.5L534.3,476.6z M576.3,499.8l-41.7-22.4l-57.6,8.3l-15.2,30.5l41.9,22.5
					l57.2-8.2L576.3,499.8z M541.2,677.4l15.1-30.2l-42-22.5l-56.9,8.2l-15.1,30.2l42,22.5L541.2,677.4z M907.4,480.8l15.3-30.7
					l-41.6-22.3l-57.6,8.3l-15.1,30.3l42.2,22.6L907.4,480.8z M930.6,650.4l57.7-8.3l15.1-30.3l-41.7-22.4l-57.6,8.3L889,628.1
					L930.6,650.4z M976.6,558.3l-42.2-22.6l-57.1,8.2l-15.2,30.5l41.9,22.5l57.4-8.3L976.6,558.3z M934.5,534.6l15.2-30.4
					l-42.1-22.6l-57,8.2l-15.2,30.5l41.9,22.5L934.5,534.6z M761.3,560.3l-57.6,8.3l-15.1,30.3l42.2,22.6l56.8-8.2l15.3-30.7
					L761.3,560.3z M724.1,421.5l-15.3,30.7l41.3,22.2l57.6-8.3l15.1-30.3L781,413.3L724.1,421.5z M730.7,622.4l-15.2,30.4l41.7,22.4
					l57.4-8.2l15.1-30.2l-42-22.5L730.7,622.4z M723.5,420.5l57.4-8.2l15.1-30.2l-42-22.5l-57,8.2l-15.2,30.4L723.5,420.5z
					 M641.4,692l15.2-30.5l-41.8-22.4l-57.5,8.3l-15.1,30.3l42,22.6L641.4,692z M634.1,491.3l15.3-30.7l-41.6-22.3l-57.6,8.3
					l-15.1,30.3l42.2,22.6L634.1,491.3z M650.4,460.1l56.7-8.2l15.3-30.7l-41.7-22.4l-57.1,8.2l-15.2,30.5L650.4,460.1z
					 M707.7,452.7l-57.6,8.3L635,491.4l41.9,22.5l57.3-8.2l15.2-30.5L707.7,452.7z M696,367.2l-41.7-22.4l-57.3,8.2l-15.3,30.6
					l41.8,22.4l57.2-8.2L696,367.2z M657.2,660.8l57.2-8.2l15.3-30.7L688,599.5l-57.3,8.2l-15.3,30.6L657.2,660.8z M714.6,653.6
					l-57.1,8.2l-15.2,30.5l41.9,22.5l56.7-8.2l15.3-30.7L714.6,653.6z M660.9,544.8l15.1-30.3l-41.8-22.4l-57,8.2l-15.2,30.5
					l41.5,22.3L660.9,544.8z M702.9,568.3l-41.8-22.4l-57,8.2l-15.3,30.6l41.3,22.2l57.5-8.3L702.9,568.3z M677.2,514.8L662,545.2
					l41.9,22.5l57.2-8.2l15.2-30.5l-41.7-22.4L677.2,514.8z M668.7,746l5.5,2.9c-0.7,0-1.4,0-2.1,0l-4.2-2.2l-14.4,2.1
					c-1.6,0-3.3-0.1-4.9-0.1l19.2-2.8l15.3-30.7l-41.6-22.3l-57.6,8.3l-15.1,30.3l24.6,13.2c-0.8-0.1-1.5-0.2-2.2-0.3l-22.9-12.3
					l-28.3,4.1c-0.9-0.2-1.8-0.4-2.7-0.6l30.7-4.4l15.1-30.3l-41.8-22.4l-57.6,8.3l-15,30c-0.3-0.1-0.6-0.2-0.9-0.3l15-30L441,663.9
					l-57.3,8.2l-0.1,0l-1.7,3.3c-0.2-0.2-0.5-0.3-0.7-0.5l1.6-3.3l-26.1-14c-1.5-1.2-3.1-2.4-4.6-3.6l31.5,16.9l57.7-8.3l15.1-30.3
					L414.7,610l-57.6,8.3l-14,28.1c-0.3-0.3-0.6-0.6-0.9-0.9l13.8-27.6l-42-22.6l-12.1,1.7c-0.2-0.3-0.3-0.5-0.5-0.8l12.9-1.8
					l15.2-30.4l-42.1-22.6l-4.3,0.6c0-0.3-0.1-0.6-0.1-0.9l4.3-0.6l15.3-30.7l-17.4-9.3c0.1-0.3,0.1-0.6,0.2-0.9l18.2,9.8l56.8-8.2
					l15.3-30.7l-41.6-22.3l-28.2,4.1c0.2-0.3,0.4-0.6,0.6-0.9l27.4-3.9l15.1-30.3l-8.5-4.6c0.3-0.3,0.6-0.5,0.8-0.7l8.5,4.5
					l57.7-8.3l15.1-30.3l-16.9-9c0.3-0.2,0.6-0.3,0.9-0.5l17,9.1l56.8-8.2l15.3-30.7l-4.7-2.5c0.4-0.1,0.8-0.2,1.2-0.3l4.5,2.4
					l56.7-8.2l4-8.1c0.6-0.1,1.2-0.2,1.8-0.3l-4.3,8.5l41.3,22.2L654,344l14.6-29.2c0.3,0,0.6,0,0.9,0l-14.7,29.5l42.2,22.6
					l56.8-8.2l15.3-30.7l-9-4.9c0.9,0.1,1.7,0.3,2.6,0.4l7.5,4l8.2-1.2c0.9,0.2,1.7,0.3,2.5,0.5l-11,1.6l-15.2,30.4l42,22.5
					l57.5-8.3l11.2-22.4c0.4,0.1,0.8,0.3,1.2,0.4l-11.2,22.4l41.6,22.3l46.3-6.7c0.5,0.3,1.1,0.7,1.6,1L897,397l-0.1,0l-15.1,30.1
					l41.9,22.5l57.4-8.3l8-16c0.2,0.2,0.5,0.5,0.7,0.7l-7.9,15.8l36.7,19.7c0.3,0.5,0.7,1,1,1.6l-38.8-20.8l-57.4,8.3l-15.2,30.4
					l42.1,22.6l57.3-8.2l14.2-28.4c0.2,0.4,0.5,0.9,0.7,1.3l-13.8,27.7l30.3,16.3c0.1,0.4,0.1,0.8,0.2,1.2l-31.2-16.8l-57.5,8.3
					L935.5,535l42.2,22.6l57.2-8.2l6.6-13.2c0,0.7,0,1.3,0,2l-5.7,11.5l4.7,2.5c0,0.3-0.1,0.6-0.1,0.9l-5.2-2.8l-57.6,8.3
					l-15.1,30.3l42.2,22.6l14.5-2.1c-0.2,0.3-0.4,0.6-0.6,0.9l-13.9,2l-15.1,30.2l1.8,1c-0.3,0.3-0.7,0.7-1,1l-2-1.1l-57.3,8.2
					l-0.1,0l-15.1,30.1L929,689c-0.3,0.2-0.6,0.3-0.9,0.5l-13.2-7.1l-57.6,8.3L842.2,721l4.7,2.5c-0.4,0.1-0.7,0.2-1.1,0.3l-4.1-2.2
					l-57.3,8.2l-4.9,9.7c-0.4,0.1-0.8,0.1-1.2,0.2l5-10l-41.8-22.4l-57.5,8.3L668.7,746z"/>
			</g>
		</g>
	</g>
	<g>
		<line class="st2" x1="355.3" y1="334.8" x2="970" y2="692"/>
		<line class="st2" x1="204.6" y1="580.7" x2="1142.8" y2="464.7"/>
		<line class="st2" x1="822.7" y1="267.6" x2="547.8" y2="751.2"/>
		<g>
			<g>
				<g>
					<path class="st3" d="M848.8,473.6c-0.4,1.7-1.1,3.4-2,5.1l-11.3,19.7l-27.9,48.6c-2.7,4.8-7.6,8.9-14,12.1
						c-6.4,3.2-14.2,5.5-22.9,6.5l-124.4,14.6c-17.4,2-35.3-1.3-47.2-8.8l-84.2-53.2l-1-0.6c-8.3-5.3-12.8-12-12.8-18.9h0v32.8h0
						c0,6.8,4.4,13.6,12.8,18.9l85.2,53.8c11.9,7.5,29.9,10.9,47.2,8.8l124.4-14.6c8.7-1,16.5-3.3,22.9-6.5
						c6.4-3.2,11.3-7.4,14-12.1l39.3-68.3c1-1.7,1.6-3.2,2-4.9c0.5-2.4,0-3.7,0-7.3V473.6z"/>
					<path class="st3" d="M848.8,466.4v7.2C849.3,471.2,849.3,468.7,848.8,466.4z"/>
				</g>
				<path class="st4" d="M836.4,451.1l-85.2-53.8c-11.9-7.5-29.9-10.9-47.2-8.8l-124.4,14.6c-8.7,1-16.5,3.3-22.9,6.5
					c-6.4,3.2-11.3,7.4-14,12.1l-39.2,68.3c-1.6,2.8-2.4,5.8-2.4,8.7c0,6.8,4.4,13.6,12.8,18.9l1,0.6l84.2,53.2
					c11.9,7.5,29.9,10.9,47.2,8.8l124.4-14.6c8.7-1,16.5-3.3,22.9-6.5c6.4-3.2,11.3-7.4,14-12.1l27.9-48.6l11.3-19.7
					c1-1.7,1.6-3.4,2-5.1v-7.2C847.5,460.8,843.3,455.4,836.4,451.1z"/>
			</g>
			<g>
				<g>
					<g>
						<path class="st5" d="M826.7,440.7c-0.3,1.5-0.9,3-1.8,4.4l-9.9,17.2l-24.4,42.5c-2.4,4.2-6.7,7.8-12.2,10.6
							c-5.6,2.8-12.4,4.8-20,5.7l-108.6,12.7c-15.2,1.8-30.9-1.2-41.2-7.7l-73.5-46.4l-0.8-0.5c-7.3-4.6-11.1-10.5-11.1-16.5h0v28.6
							h0c0,6,3.9,11.9,11.1,16.5l74.4,46.9c10.4,6.5,26.1,9.5,41.2,7.7l108.6-12.7c7.6-0.9,14.4-2.9,20-5.7
							c5.6-2.8,9.8-6.4,12.2-10.6l34.3-59.7c0.8-1.4,1.4-2.8,1.8-4.3c0.5-2.1,0-3.3,0-6.4V440.7z"/>
						<path class="st5" d="M826.7,434.4v6.3C827.2,438.6,827.2,436.5,826.7,434.4z"/>
					</g>
					<path class="st6" d="M815.9,421.1l-74.4-47c-10.4-6.5-26.1-9.5-41.2-7.7l-108.6,12.7c-7.6,0.9-14.4,2.9-20,5.7
						c-5.6,2.8-9.8,6.4-12.2,10.6l-34.3,59.7c-1.4,2.5-2.1,5-2.1,7.6c0,6,3.9,11.9,11.1,16.5l0.8,0.5l73.5,46.4
						c10.4,6.5,26.1,9.5,41.2,7.7l108.6-12.7c7.6-0.9,14.4-2.9,20-5.7c5.6-2.8,9.8-6.4,12.2-10.6l24.4-42.5l9.9-17.2
						c0.8-1.4,1.4-2.9,1.8-4.4v-6.3C825.6,429.5,821.9,424.9,815.9,421.1z"/>
				</g>
				<g>
					<path class="st7" d="M689,475.9c-2,1-4.6,1.5-7.4,1.4c-5.7-0.3-10.3-3.1-10.1-6.4l3-65.2c0.1-1.6,1.3-3,3.2-4
						c1-0.5,2.1-0.9,3.4-1.1c3.9-0.7,8.4,0,11.3,1.8l56,35.4c3.9,2.5,3.8,6.2-0.4,8.3c-4.2,2.1-10.8,1.8-14.7-0.7L694.6,421
						l-2.3,50.9C692.2,473.5,691,474.9,689,475.9L689,475.9 M652.2,494.6c-2.1,1-4.8,1.6-7.6,1.5c-2.8-0.1-5.4-0.8-7.3-2
						c-1.9-1.2-2.9-2.7-2.8-4.3l4.5-66c0.1-1.6,1.3-3.1,3.4-4.1l0,0c2.1-1,4.7-1.6,7.5-1.5c5.8,0.2,10.4,3.1,10.1,6.4l-4.5,66
						C655.5,492.1,654.3,493.5,652.2,494.6 M591.6,394.9c-4.6,2.3-8.1,5.3-10.1,8.8L553.2,453c-4,6.9-1.1,14.5,7.5,19.9l61.5,38.8
						c8.6,5.4,21.6,7.8,34.1,6.4l89.9-10.5c6.3-0.7,11.9-2.4,16.5-4.7s8.1-5.3,10.1-8.8l28.3-49.3c4-6.9,1.1-14.5-7.5-19.9
						L732.1,386c-8.6-5.4-21.6-7.8-34.1-6.4l-89.9,10.5C601.9,390.9,596.2,392.5,591.6,394.9"/>
					<path class="st6" d="M642.4,419.6L642.4,419.6c-2.1,1.1-3.3,2.5-3.4,4.1l-4.5,66c-0.1,1.6,0.9,3.1,2.8,4.3
						c1.9,1.2,4.5,1.9,7.3,2c2.8,0.1,5.5-0.4,7.6-1.5c2.1-1.1,3.3-2.5,3.4-4.1l4.5-66c0.2-3.3-4.3-6.1-10.1-6.4
						C647.1,418,644.5,418.5,642.4,419.6"/>
					<path class="st4" d="M677.7,401.7c-2,1-3.2,2.4-3.2,4l-3,65.2c-0.2,3.3,4.4,6.1,10.1,6.4c2.8,0.1,5.4-0.4,7.4-1.4l0,0
						c2-1,3.2-2.5,3.2-4l2.3-50.9l38.7,24.4c3.9,2.5,10.5,2.8,14.7,0.7c4.2-2.1,4.3-5.9,0.4-8.3l-56-35.4c-2.9-1.8-7.3-2.5-11.3-1.8
						C679.8,400.8,678.6,401.2,677.7,401.7"/>
				</g>
			</g>
		</g>
		<g>
			<path class="st4" d="M397.1,556.9l-36.5,16.7l8-13.6L351.5,548L397.1,556.9 M346.8,542.1c-10.7,5.4-15.1,13.4-12.7,20.9
				c0.1,0.5,0.3,0.9,0.5,1.4c1.5,3.5,4.6,6.9,9.2,9.8c14.9,9.4,40.4,10.2,56.9,1.9c10.7-5.4,15.1-13.4,12.7-20.9
				c-0.1-0.5-0.3-0.9-0.5-1.4c-1.5-3.5-4.6-6.9-9.2-9.8C388.8,534.5,363.3,533.7,346.8,542.1"/>
			<polyline class="st7" points="351.5,548 368.6,559.9 360.6,573.6 397.1,556.9 351.5,548 			"/>
		</g>
		<g>
			<path class="st4" d="M420.9,373.4c-0.5,0.3-1,0.5-1.5,0.8c-4.9,2.8-8.6,6.3-10.5,10.4c-5.6,12.2,7.3,24.6,28.9,27.9
				c12.9,1.9,25.9,0.1,35.5-4.2c0.6-0.3,1.1-0.5,1.6-0.8c0.1,0,0.2-0.1,0.3-0.1c5.5-2.8,9.7-6.6,11.7-11
				c5.6-12.2-7.3-24.7-28.9-27.9c-13.4-2-27.1,0-36.8,4.8C421.1,373.3,421,373.4,420.9,373.4"/>
			<polyline class="st7" points="466.1,400.1 453.8,373.7 445.7,388.3 421.2,391.9 466.1,400.1 			"/>
		</g>
		<g>
			<path class="st4" d="M605.8,695.9l-19.1-11l-24.8,3l33.3-18.7L605.8,695.9 M561.8,665.1c-16.5,8.4-17.8,22.8-3,32.2
				c4.6,2.9,10.2,5,16.3,6.3c0.8,0.2,1.6,0.3,2.4,0.4c12.9,2.2,27.5,0.6,38.2-4.8c16.5-8.4,17.8-22.8,3-32.2
				c-4.6-2.9-10.2-5-16.3-6.2c-0.8-0.2-1.6-0.3-2.4-0.4C587,658.1,572.5,659.7,561.8,665.1"/>
			<polyline class="st7" points="595.2,669.2 561.9,687.9 586.7,684.9 605.8,695.9 595.2,669.2 			"/>
		</g>
		<path class="st7" d="M798.2,356.6l-20.1-11.6l-26.2,3.2l35.2-19.7L798.2,356.6 M751.6,324.1c-17.4,8.8-18.8,24-3.1,34
			c5.2,3.3,11.6,5.6,18.6,6.9c0.8,0.2,1.7,0.3,2.6,0.4c13.3,2,28,0.2,38.9-5.3c17.4-8.8,18.8-24,3.1-34c-4.5-2.9-10-5-15.8-6.3
			c-0.8-0.2-1.7-0.4-2.5-0.5C779.3,316.6,763.4,318.2,751.6,324.1"/>
		<path class="st7" d="M965.1,458.9c-11,5.6-15.6,13.7-13.6,21.4c0.1,0.5,0.3,1,0.5,1.5c1.5,4,4.8,7.8,10,11.1
			c15.7,9.9,42.6,10.8,60,2c11.7-5.9,16.2-14.7,13.1-22.8c-0.2-0.5-0.4-1-0.6-1.5c-1.7-3.5-4.8-6.8-9.4-9.7
			C1009.4,451,982.6,450.1,965.1,458.9"/>
		<g>
			<path class="st7" d="M855.7,622.8c-0.2,0.1-0.4,0.2-0.6,0.3c-0.6,0.3-1.3,0.7-1.9,1.1c-4.7,2.8-8.3,6.3-10.1,10.4
				c-5.9,12.8,7.7,26,30.5,29.4c13.1,2,26.4,0.3,36.4-4c0.7-0.3,1.4-0.6,2.1-0.9c0.2-0.1,0.5-0.2,0.7-0.3c6-3,10.5-7,12.6-11.8
				c5.9-12.8-7.7-26-30.5-29.4C880.5,615.4,866,617.6,855.7,622.8"/>
			<polyline class="st4" points="901.6,652.5 888.7,624.6 880.2,640 854.3,643.9 901.6,652.5 			"/>
		</g>
		<polyline class="st4" points="787,328.5 751.9,348.3 778.1,345.1 798.2,356.6 787,328.5 		"/>
		<polyline class="st4" points="970.1,465.2 988.2,477.8 979.8,492.2 1018.3,474.6 970.1,465.2 		"/>
		<path class="st3" d="M204.4,542v3.5C204.6,544.4,204.6,543.2,204.4,542z"/>
		<path class="st3" d="M204.4,501.6v3.5C204.6,504,204.6,502.8,204.4,501.6z"/>
		<polygon class="st8" points="355.5,334.5 204.5,580.5 531.7,775.5 992.9,721.6 1142.5,465.5 822.2,269 		"/>
		<g>
			<g>
				<g>
					<g>
						<path class="st6" d="M932.7,176.8c-0.2,0.8-0.5,1.7-1,2.5l-5.6,9.7l-13.8,24c-1.3,2.3-3.8,4.4-6.9,6c-3.1,1.6-7,2.7-11.3,3.2
							l-61.3,7.2c-8.6,1-17.4-0.7-23.3-4.4L768,198.8l-0.5-0.3c-4.1-2.6-6.3-5.9-6.3-9.3h0v38.2h0c0,3.4,2.2,6.7,6.3,9.3l42,26.5
							c5.9,3.7,14.7,5.4,23.3,4.4l61.3-7.2c4.3-0.5,8.1-1.6,11.3-3.2c3.1-1.6,5.5-3.6,6.9-6l19.4-33.7c0.5-0.8,0.8-1.6,1-2.4
							c0.3-1.2,0-1.8,0-3.6V176.8z"/>
						<path class="st3" d="M932.7,173.2v3.5C932.9,175.6,932.9,174.4,932.7,173.2z"/>
					</g>
					<path class="st7" d="M926.6,165.7l-42-26.5c-5.9-3.7-14.7-5.4-23.3-4.4L800,142c-4.3,0.5-8.1,1.6-11.3,3.2
						c-3.1,1.6-5.5,3.6-6.9,6l-19.3,33.7c-0.8,1.4-1.2,2.8-1.2,4.3c0,3.4,2.2,6.7,6.3,9.3l0.5,0.3l41.5,26.2
						c5.9,3.7,14.7,5.4,23.3,4.4l61.3-7.2c4.3-0.5,8.1-1.6,11.3-3.2c3.1-1.6,5.5-3.6,6.9-6l13.8-24l5.6-9.7c0.5-0.8,0.8-1.7,1-2.5
						v-3.5C932,170.5,930,167.8,926.6,165.7z"/>
				</g>
			</g>
			<g>
				<g>
					<g>
						<path class="st6" d="M932.7,136.3c-0.2,0.8-0.5,1.7-1,2.5l-5.6,9.7l-13.8,24c-1.3,2.3-3.8,4.4-6.9,6c-3.1,1.6-7,2.7-11.3,3.2
							l-61.3,7.2c-8.6,1-17.4-0.7-23.3-4.4L768,158.3l-0.5-0.3c-4.1-2.6-6.3-5.9-6.3-9.3h0v16.2h0c0,3.4,2.2,6.7,6.3,9.3l42,26.5
							c5.9,3.7,14.7,5.4,23.3,4.4l61.3-7.2c4.3-0.5,8.1-1.6,11.3-3.2c3.1-1.6,5.5-3.6,6.9-6l19.4-33.7c0.5-0.8,0.8-1.6,1-2.4
							c0.3-1.2,0-1.8,0-3.6V136.3z"/>
						<path class="st3" d="M932.7,132.8v3.5C932.9,135.2,932.9,134,932.7,132.8z"/>
					</g>
					<path class="st7" d="M926.6,125.3l-42-26.5c-5.9-3.7-14.7-5.4-23.3-4.4l-61.3,7.2c-4.3,0.5-8.1,1.6-11.3,3.2
						c-3.1,1.6-5.5,3.6-6.9,6l-19.3,33.7c-0.8,1.4-1.2,2.8-1.2,4.3c0,3.4,2.2,6.7,6.3,9.3l0.5,0.3l41.5,26.2
						c5.9,3.7,14.7,5.4,23.3,4.4l61.3-7.2c4.3-0.5,8.1-1.6,11.3-3.2c3.1-1.6,5.5-3.6,6.9-6l13.8-24l5.6-9.7c0.5-0.8,0.8-1.7,1-2.5
						v-3.5C932,130,930,127.4,926.6,125.3z"/>
					<path class="st6" d="M891.2,132.6l-23.3-14.7c-3.3-2.1-8.2-3-12.9-2.4l-34.1,4c-2.4,0.3-4.5,0.9-6.3,1.8
						c-1.7,0.9-3.1,2-3.8,3.3L800,143.2c-0.4,0.8-0.7,1.6-0.7,2.4c0,1.9,1.2,3.7,3.5,5.2l0.3,0.2l23.1,14.6c3.3,2.1,8.2,3,12.9,2.4
						l34.1-4c2.4-0.3,4.5-0.9,6.3-1.8c1.7-0.9,3.1-2,3.8-3.3l7.7-13.3l3.1-5.4c0.3-0.5,0.4-0.9,0.6-1.4v-2
						C894.3,135.2,893.1,133.7,891.2,132.6z"/>
				</g>
			</g>
		</g>
		<g>
			<g>
				<g>
					<g>
						<path class="st6" d="M1314.2,414.5c-0.2,0.8-0.5,1.7-1,2.5l-5.6,9.7l-13.8,24c-1.3,2.3-3.8,4.4-6.9,6c-3.1,1.6-7,2.7-11.3,3.2
							l-61.3,7.2c-8.6,1-17.4-0.7-23.3-4.4l-41.5-26.2l-0.5-0.3c-4.1-2.6-6.3-5.9-6.3-9.3h0v38.2h0c0,3.4,2.2,6.7,6.3,9.3l42,26.5
							c5.9,3.7,14.7,5.4,23.3,4.4l61.3-7.2c4.3-0.5,8.1-1.6,11.3-3.2c3.1-1.6,5.5-3.6,6.9-6l19.4-33.7c0.5-0.8,0.8-1.6,1-2.4
							c0.3-1.2,0-1.8,0-3.6V414.5z"/>
						<path class="st3" d="M1314.2,411v3.5C1314.5,413.3,1314.5,412.1,1314.2,411z"/>
					</g>
					<path class="st7" d="M1308.1,403.4l-42-26.5c-5.9-3.7-14.7-5.4-23.3-4.4l-61.3,7.2c-4.3,0.5-8.1,1.6-11.3,3.2
						c-3.1,1.6-5.5,3.6-6.9,6l-19.3,33.7c-0.8,1.4-1.2,2.8-1.2,4.3c0,3.4,2.2,6.7,6.3,9.3l0.5,0.3l41.5,26.2
						c5.9,3.7,14.7,5.4,23.3,4.4l61.3-7.2c4.3-0.5,8.1-1.6,11.3-3.2c3.1-1.6,5.5-3.6,6.9-6l13.8-24l5.6-9.7c0.5-0.8,0.8-1.7,1-2.5
						V411C1313.6,408.2,1311.5,405.6,1308.1,403.4z"/>
				</g>
			</g>
			<g>
				<g>
					<g>
						<path class="st6" d="M1314.2,374.1c-0.2,0.8-0.5,1.7-1,2.5l-5.6,9.7l-13.8,24c-1.3,2.3-3.8,4.4-6.9,6c-3.1,1.6-7,2.7-11.3,3.2
							l-61.3,7.2c-8.6,1-17.4-0.7-23.3-4.4l-41.5-26.2l-0.5-0.3c-4.1-2.6-6.3-5.9-6.3-9.3h0v16.2h0c0,3.4,2.2,6.7,6.3,9.3l42,26.5
							c5.9,3.7,14.7,5.4,23.3,4.4l61.3-7.2c4.3-0.5,8.1-1.6,11.3-3.2c3.1-1.6,5.5-3.6,6.9-6l19.4-33.7c0.5-0.8,0.8-1.6,1-2.4
							c0.3-1.2,0-1.8,0-3.6V374.1z"/>
						<path class="st3" d="M1314.2,370.5v3.5C1314.5,372.9,1314.5,371.7,1314.2,370.5z"/>
					</g>
					<path class="st7" d="M1308.1,363l-42-26.5c-5.9-3.7-14.7-5.4-23.3-4.4l-61.3,7.2c-4.3,0.5-8.1,1.6-11.3,3.2
						c-3.1,1.6-5.5,3.6-6.9,6l-19.3,33.7c-0.8,1.4-1.2,2.8-1.2,4.3c0,3.4,2.2,6.7,6.3,9.3l0.5,0.3l41.5,26.2
						c5.9,3.7,14.7,5.4,23.3,4.4l61.3-7.2c4.3-0.5,8.1-1.6,11.3-3.2c3.1-1.6,5.5-3.6,6.9-6l13.8-24l5.6-9.7c0.5-0.8,0.8-1.7,1-2.5
						v-3.5C1313.6,367.8,1311.5,365.2,1308.1,363z"/>
					<path class="st6" d="M1272.8,370.3l-23.3-14.7c-3.3-2.1-8.2-3-12.9-2.4l-34.1,4c-2.4,0.3-4.5,0.9-6.3,1.8
						c-1.7,0.9-3.1,2-3.8,3.3l-10.8,18.7c-0.4,0.8-0.7,1.6-0.7,2.4c0,1.9,1.2,3.7,3.5,5.2l0.3,0.2l23.1,14.6c3.3,2.1,8.2,3,12.9,2.4
						l34.1-4c2.4-0.3,4.5-0.9,6.3-1.8c1.7-0.9,3.1-2,3.8-3.3l7.7-13.3l3.1-5.4c0.3-0.5,0.4-0.9,0.6-1.4v-2
						C1275.8,373,1274.7,371.5,1272.8,370.3z"/>
				</g>
			</g>
		</g>
		<g>
			<path class="st7" d="M380.6,256.8c-0.2,0.8-0.5,1.7-1,2.5l-5.6,9.7l-13.8,24c-1.3,2.3-3.8,4.4-6.9,6c-3.1,1.6-7,2.7-11.3,3.2
				l-61.3,7.2c-8.6,1-17.4-0.7-23.3-4.4L216,278.8l-0.5-0.3c-4.1-2.6-6.3-5.9-6.3-9.3h0v38.2h0c0,3.4,2.2,6.7,6.3,9.3l42,26.5
				c5.9,3.7,14.7,5.4,23.3,4.4l61.3-7.2c4.3-0.5,8.1-1.6,11.3-3.2c3.1-1.6,5.5-3.6,6.9-6l19.4-33.7c0.5-0.8,0.8-1.6,1-2.4
				c0.3-1.2,0-1.8,0-3.6V256.8z"/>
			<path class="st3" d="M374.5,245.7l-42-26.5c-5.9-3.7-14.7-5.4-23.3-4.4l-61.3,7.2c-4.3,0.5-8.1,1.6-11.3,3.2
				c-3.1,1.6-5.5,3.6-6.9,6l-19.3,33.7c-0.8,1.4-1.2,2.8-1.2,4.3c0,3.4,2.2,6.7,6.3,9.3l0.5,0.3l41.5,26.2
				c5.9,3.7,14.7,5.4,23.3,4.4l61.3-7.2c4.3-0.5,8.1-1.6,11.3-3.2c3.1-1.6,5.5-3.6,6.9-6l13.8-24l5.6-9.7c0.5-0.8,0.8-1.7,1-2.5
				v-3.5C380,250.5,377.9,247.9,374.5,245.7z"/>
			<path class="st7" d="M380.6,216.4c-0.2,0.8-0.5,1.7-1,2.5l-5.6,9.7l-13.8,24c-1.3,2.3-3.8,4.4-6.9,6c-3.1,1.6-7,2.7-11.3,3.2
				l-61.3,7.2c-8.6,1-17.4-0.7-23.3-4.4L216,238.4l-0.5-0.3c-4.1-2.6-6.3-5.9-6.3-9.3h0v16.2h0c0,3.4,2.2,6.7,6.3,9.3l42,26.5
				c5.9,3.7,14.7,5.4,23.3,4.4l61.3-7.2c4.3-0.5,8.1-1.6,11.3-3.2c3.1-1.6,5.5-3.6,6.9-6l19.4-33.7c0.5-0.8,0.8-1.6,1-2.4
				c0.3-1.2,0-1.8,0-3.6V216.4z"/>
			<path class="st3" d="M374.5,205.3l-42-26.5c-5.9-3.7-14.7-5.4-23.3-4.4l-61.3,7.2c-4.3,0.5-8.1,1.6-11.3,3.2
				c-3.1,1.6-5.5,3.6-6.9,6l-19.3,33.7c-0.8,1.4-1.2,2.8-1.2,4.3c0,3.4,2.2,6.7,6.3,9.3l0.5,0.3l41.5,26.2
				c5.9,3.7,14.7,5.4,23.3,4.4l61.3-7.2c4.3-0.5,8.1-1.6,11.3-3.2c3.1-1.6,5.5-3.6,6.9-6l13.8-24l5.6-9.7c0.5-0.8,0.8-1.7,1-2.5
				v-3.5C380,210.1,377.9,207.4,374.5,205.3z"/>
			<path class="st9" d="M339.2,212.6l-23.3-14.7c-3.3-2.1-8.2-3-12.9-2.4l-34.1,4c-2.4,0.3-4.5,0.9-6.3,1.8c-1.7,0.9-3.1,2-3.8,3.3
				l-10.8,18.7c-0.4,0.8-0.7,1.6-0.7,2.4c0,1.9,1.2,3.7,3.5,5.2l0.3,0.2l23.1,14.6c3.3,2.1,8.2,3,12.9,2.4l34.1-4
				c2.4-0.3,4.5-0.9,6.3-1.8c1.7-0.9,3.1-2,3.8-3.3l7.7-13.3l3.1-5.4c0.3-0.5,0.4-0.9,0.6-1.4v-2
				C342.2,215.2,341.1,213.8,339.2,212.6z"/>
		</g>
		<g>
			<path class="st7" d="M584.7,787.9c-0.2,0.8-0.5,1.7-1,2.5l-5.6,9.7l-13.8,24c-1.3,2.3-3.8,4.4-6.9,6c-3.1,1.6-7,2.7-11.3,3.2
				l-61.3,7.2c-8.6,1-17.4-0.7-23.3-4.4l-41.5-26.2l-0.5-0.3c-4.1-2.6-6.3-5.9-6.3-9.3h0v38.2h0c0,3.4,2.2,6.7,6.3,9.3l42,26.5
				c5.9,3.7,14.7,5.4,23.3,4.4l61.3-7.2c4.3-0.5,8.1-1.6,11.3-3.2c3.1-1.6,5.5-3.6,6.9-6l19.4-33.7c0.5-0.8,0.8-1.6,1-2.4
				c0.3-1.2,0-1.8,0-3.6V787.9z"/>
			<path class="st3" d="M578.7,776.9l-42-26.5c-5.9-3.7-14.7-5.4-23.3-4.4l-61.3,7.2c-4.3,0.5-8.1,1.6-11.3,3.2
				c-3.1,1.6-5.5,3.6-6.9,6l-19.3,33.7c-0.8,1.4-1.2,2.8-1.2,4.3c0,3.4,2.2,6.7,6.3,9.3l0.5,0.3l41.5,26.2
				c5.9,3.7,14.7,5.4,23.3,4.4l61.3-7.2c4.3-0.5,8.1-1.6,11.3-3.2c3.1-1.6,5.5-3.6,6.9-6l13.8-24l5.6-9.7c0.5-0.8,0.8-1.7,1-2.5
				v-3.5C584.1,781.6,582,779,578.7,776.9z"/>
			<path class="st7" d="M584.7,747.5c-0.2,0.8-0.5,1.7-1,2.5l-5.6,9.7l-13.8,24c-1.3,2.3-3.8,4.4-6.9,6c-3.1,1.6-7,2.7-11.3,3.2
				l-61.3,7.2c-8.6,1-17.4-0.7-23.3-4.4l-41.5-26.2l-0.5-0.3c-4.1-2.6-6.3-5.9-6.3-9.3h0v16.2h0c0,3.4,2.2,6.7,6.3,9.3l42,26.5
				c5.9,3.7,14.7,5.4,23.3,4.4l61.3-7.2c4.3-0.5,8.1-1.6,11.3-3.2c3.1-1.6,5.5-3.6,6.9-6l19.4-33.7c0.5-0.8,0.8-1.6,1-2.4
				c0.3-1.2,0-1.8,0-3.6V747.5z"/>
			<path class="st3" d="M578.7,736.5l-42-26.5c-5.9-3.7-14.7-5.4-23.3-4.4l-61.3,7.2c-4.3,0.5-8.1,1.6-11.3,3.2
				c-3.1,1.6-5.5,3.6-6.9,6l-19.3,33.7c-0.8,1.4-1.2,2.8-1.2,4.3c0,3.4,2.2,6.7,6.3,9.3l0.5,0.3l41.5,26.2
				c5.9,3.7,14.7,5.4,23.3,4.4l61.3-7.2c4.3-0.5,8.1-1.6,11.3-3.2c3.1-1.6,5.5-3.6,6.9-6l13.8-24l5.6-9.7c0.5-0.8,0.8-1.7,1-2.5V744
				C584.1,741.2,582,738.6,578.7,736.5z"/>
			<path class="st9" d="M543.3,743.7L520,729c-3.3-2.1-8.2-3-12.9-2.4l-34.1,4c-2.4,0.3-4.5,0.9-6.3,1.8c-1.7,0.9-3.1,2-3.8,3.3
				l-10.8,18.7c-0.4,0.8-0.7,1.6-0.7,2.4c0,1.9,1.2,3.7,3.5,5.2l0.3,0.2l23.1,14.6c3.3,2.1,8.2,3,12.9,2.4l34.1-4
				c2.4-0.3,4.5-0.9,6.3-1.8c1.7-0.9,3.1-2,3.8-3.3l7.7-13.3l3.1-5.4c0.3-0.5,0.4-0.9,0.6-1.4v-2
				C546.3,746.4,545.2,744.9,543.3,743.7z"/>
		</g>
		<g>
			<linearGradient id="SVGID_2_" gradientUnits="userSpaceOnUse" x1="304.1647" y1="245.3304" x2="291.6647" y2="85.8304">
				<stop  offset="0" style="stop-color:#007CFF"/>
				<stop  offset="1" style="stop-color:#00AEFC;stop-opacity:0.2"/>
			</linearGradient>
			<path class="st10" d="M246,228l29.4,18.5c2.3,1.6,5.2,2.3,8,1.9L328,244l14-22.9l21.8-107.2l-42.9-26.5L250,94l-25,33L246,228z"
				/>
		</g>
		<g>
			<g>
				<path class="st7" d="M204.4,545.6c-0.2,0.8-0.5,1.7-1,2.5l-5.6,9.7l-13.8,24c-1.3,2.3-3.8,4.4-6.9,6c-3.1,1.6-7,2.7-11.3,3.2
					l-61.3,7.2c-8.6,1-17.4-0.7-23.3-4.4l-41.5-26.2l-0.5-0.3c-4.1-2.6-6.3-5.9-6.3-9.3h0v38.2h0c0,3.4,2.2,6.7,6.3,9.3l42,26.5
					c5.9,3.7,14.7,5.4,23.3,4.4l61.3-7.2c4.3-0.5,8.1-1.6,11.3-3.2c3.1-1.6,5.5-3.6,6.9-6l19.4-33.7c0.5-0.8,0.8-1.6,1-2.4
					c0.3-1.2,0-1.8,0-3.6V545.6z"/>
				<path class="st3" d="M198.3,534.5l-42-26.5c-5.9-3.7-14.7-5.4-23.3-4.4l-61.3,7.2c-4.3,0.5-8.1,1.6-11.3,3.2
					c-3.1,1.6-5.5,3.6-6.9,6l-19.3,33.7c-0.8,1.4-1.2,2.8-1.2,4.3c0,3.4,2.2,6.7,6.3,9.3l0.5,0.3l41.5,26.2
					c5.9,3.7,14.7,5.4,23.3,4.4l61.3-7.2c4.3-0.5,8.1-1.6,11.3-3.2c3.1-1.6,5.5-3.6,6.9-6l13.8-24l5.6-9.7c0.5-0.8,0.8-1.7,1-2.5
					V542C203.7,539.3,201.7,536.6,198.3,534.5z"/>
				<path class="st7" d="M204.4,505.1c-0.2,0.8-0.5,1.7-1,2.5l-5.6,9.7l-13.8,24c-1.3,2.3-3.8,4.4-6.9,6c-3.1,1.6-7,2.7-11.3,3.2
					l-61.3,7.2c-8.6,1-17.4-0.7-23.3-4.4l-41.5-26.2l-0.5-0.3c-4.1-2.6-6.3-5.9-6.3-9.3h0v16.2h0c0,3.4,2.2,6.7,6.3,9.3l42,26.5
					c5.9,3.7,14.7,5.4,23.3,4.4l61.3-7.2c4.3-0.5,8.1-1.6,11.3-3.2c3.1-1.6,5.5-3.6,6.9-6l19.4-33.7c0.5-0.8,0.8-1.6,1-2.4
					c0.3-1.2,0-1.8,0-3.6V505.1z"/>
				<path class="st3" d="M198.3,494.1l-42-26.5c-5.9-3.7-14.7-5.4-23.3-4.4l-61.3,7.2c-4.3,0.5-8.1,1.6-11.3,3.2
					c-3.1,1.6-5.5,3.6-6.9,6l-19.3,33.7c-0.8,1.4-1.2,2.8-1.2,4.3c0,3.4,2.2,6.7,6.3,9.3l0.5,0.3l41.5,26.2
					c5.9,3.7,14.7,5.4,23.3,4.4l61.3-7.2c4.3-0.5,8.1-1.6,11.3-3.2c3.1-1.6,5.5-3.6,6.9-6l13.8-24l5.6-9.7c0.5-0.8,0.8-1.7,1-2.5
					v-3.5C203.7,498.8,201.7,496.2,198.3,494.1z"/>
				<path class="st9" d="M162.9,501.3l-23.3-14.7c-3.3-2.1-8.2-3-12.9-2.4l-34.1,4c-2.4,0.3-4.5,0.9-6.3,1.8c-1.7,0.9-3.1,2-3.8,3.3
					L71.7,512c-0.4,0.8-0.7,1.6-0.7,2.4c0,1.9,1.2,3.7,3.5,5.2l0.3,0.2l23.1,14.6c3.3,2.1,8.2,3,12.9,2.4l34.1-4
					c2.4-0.3,4.5-0.9,6.3-1.8c1.7-0.9,3.1-2,3.8-3.3l7.7-13.3l3.1-5.4c0.3-0.5,0.4-0.9,0.6-1.4v-2
					C165.9,504,164.8,502.5,162.9,501.3z"/>
			</g>
			<g>
				<linearGradient id="SVGID_3_" gradientUnits="userSpaceOnUse" x1="128.1647" y1="534.3303" x2="115.6647" y2="374.8304">
					<stop  offset="0" style="stop-color:#007CFF"/>
					<stop  offset="1" style="stop-color:#00AEFC;stop-opacity:0.2"/>
				</linearGradient>
				<path class="st11" d="M70,517l29.4,18.5c2.3,1.6,5.2,2.3,8,1.9L152,533l14-22.9l21.8-107.2l-42.9-26.5L74,383l-25,33L70,517z"/>
			</g>
		</g>
		<g>
			<linearGradient id="SVGID_4_" gradientUnits="userSpaceOnUse" x1="508.1647" y1="776.3303" x2="495.6647" y2="616.8303">
				<stop  offset="0" style="stop-color:#007CFF"/>
				<stop  offset="1" style="stop-color:#00AEFC;stop-opacity:0.2"/>
			</linearGradient>
			<path class="st12" d="M450,759l29.4,18.5c2.3,1.6,5.2,2.3,8,1.9L532,775l14-22.9l21.8-107.2l-42.9-26.5L454,625l-25,33L450,759z"
				/>
		</g>
		<g>
			<linearGradient id="SVGID_5_" gradientUnits="userSpaceOnUse" x1="857.1647" y1="164.3304" x2="844.6647" y2="4.8304">
				<stop  offset="0" style="stop-color:#4EFFFF"/>
				<stop  offset="1" style="stop-color:#00F0FC;stop-opacity:0.2"/>
			</linearGradient>
			<path class="st13" d="M799,147l29.4,18.5c2.3,1.6,5.2,2.3,8,1.9L881,163l14-22.9l21.8-107.2L873.8,6.4L803,13l-25,33L799,147z"/>
		</g>
		<g>
			<linearGradient id="SVGID_6_" gradientUnits="userSpaceOnUse" x1="1238.1647" y1="402.3304" x2="1225.6647" y2="242.8304">
				<stop  offset="0" style="stop-color:#4EFFFF"/>
				<stop  offset="1" style="stop-color:#00F0FC;stop-opacity:0.2"/>
			</linearGradient>
			<path class="st14" d="M1180,385l29.4,18.5c2.3,1.6,5.2,2.3,8,1.9l44.6-4.4l14-22.9l21.8-107.2l-42.9-26.5L1184,251l-25,33
				L1180,385z"/>
		</g>
		<g>
			<g>
				<g>
					<g>
						<g>
							<path class="st6" d="M1136.2,723.6c-0.2,0.8-0.5,1.7-1,2.5l-5.6,9.7l-13.8,24c-1.3,2.3-3.8,4.4-6.9,6
								c-3.1,1.6-7,2.7-11.3,3.2l-61.3,7.2c-8.6,1-17.4-0.7-23.3-4.4l-41.5-26.2l-0.5-0.3c-4.1-2.6-6.3-5.9-6.3-9.3h0v38.2h0
								c0,3.4,2.2,6.7,6.3,9.3l42,26.5c5.9,3.7,14.7,5.4,23.3,4.4l61.3-7.2c4.3-0.5,8.1-1.6,11.3-3.2c3.1-1.6,5.5-3.6,6.9-6
								l19.4-33.7c0.5-0.8,0.8-1.6,1-2.4c0.3-1.2,0-1.8,0-3.6V723.6z"/>
							<path class="st3" d="M1136.2,720v3.5C1136.5,722.4,1136.5,721.2,1136.2,720z"/>
						</g>
						<path class="st7" d="M1130.1,712.5l-42-26.5c-5.9-3.7-14.7-5.4-23.3-4.4l-61.3,7.2c-4.3,0.5-8.1,1.6-11.3,3.2
							c-3.1,1.6-5.5,3.6-6.9,6L966,731.7c-0.8,1.4-1.2,2.8-1.2,4.3c0,3.4,2.2,6.7,6.3,9.3l0.5,0.3l41.5,26.2
							c5.9,3.7,14.7,5.4,23.3,4.4l61.3-7.2c4.3-0.5,8.1-1.6,11.3-3.2c3.1-1.6,5.5-3.6,6.9-6l13.8-24l5.6-9.7c0.5-0.8,0.8-1.7,1-2.5
							V720C1135.6,717.3,1133.5,714.6,1130.1,712.5z"/>
					</g>
				</g>
				<g>
					<g>
						<g>
							<path class="st6" d="M1136.2,683.2c-0.2,0.8-0.5,1.7-1,2.5l-5.6,9.7l-13.8,24c-1.3,2.3-3.8,4.4-6.9,6
								c-3.1,1.6-7,2.7-11.3,3.2l-61.3,7.2c-8.6,1-17.4-0.7-23.3-4.4l-41.5-26.2l-0.5-0.3c-4.1-2.6-6.3-5.9-6.3-9.3h0v16.2h0
								c0,3.4,2.2,6.7,6.3,9.3l42,26.5c5.9,3.7,14.7,5.4,23.3,4.4l61.3-7.2c4.3-0.5,8.1-1.6,11.3-3.2c3.1-1.6,5.5-3.6,6.9-6
								l19.4-33.7c0.5-0.8,0.8-1.6,1-2.4c0.3-1.2,0-1.8,0-3.6V683.2z"/>
							<path class="st3" d="M1136.2,679.6v3.5C1136.5,682,1136.5,680.8,1136.2,679.6z"/>
						</g>
						<path class="st7" d="M1130.1,672.1l-42-26.5c-5.9-3.7-14.7-5.4-23.3-4.4l-61.3,7.2c-4.3,0.5-8.1,1.6-11.3,3.2
							c-3.1,1.6-5.5,3.6-6.9,6L966,691.3c-0.8,1.4-1.2,2.8-1.2,4.3c0,3.4,2.2,6.7,6.3,9.3l0.5,0.3l41.5,26.2
							c5.9,3.7,14.7,5.4,23.3,4.4l61.3-7.2c4.3-0.5,8.1-1.6,11.3-3.2c3.1-1.6,5.5-3.6,6.9-6l13.8-24l5.6-9.7c0.5-0.8,0.8-1.7,1-2.5
							v-3.5C1135.6,676.9,1133.5,674.2,1130.1,672.1z"/>
						<path class="st6" d="M1094.7,679.4l-23.3-14.7c-3.3-2.1-8.2-3-12.9-2.4l-34.1,4c-2.4,0.3-4.5,0.9-6.3,1.8s-3.1,2-3.8,3.3
							l-10.8,18.7c-0.4,0.8-0.7,1.6-0.7,2.4c0,1.9,1.2,3.7,3.5,5.2l0.3,0.2l23.1,14.6c3.3,2.1,8.2,3,12.9,2.4l34.1-4
							c2.4-0.3,4.5-0.9,6.3-1.8c1.7-0.9,3.1-2,3.8-3.3l7.7-13.3l3.1-5.4c0.3-0.5,0.4-0.9,0.6-1.4v-2
							C1097.8,682,1096.6,680.6,1094.7,679.4z"/>
					</g>
				</g>
			</g>
			<g>
				<linearGradient id="SVGID_7_" gradientUnits="userSpaceOnUse" x1="1060.1647" y1="711.3303" x2="1047.6647" y2="551.8303">
					<stop  offset="0" style="stop-color:#4EFFFF"/>
					<stop  offset="1" style="stop-color:#00F0FC;stop-opacity:0.2"/>
				</linearGradient>
				<path class="st15" d="M1002,694l29.4,18.5c2.3,1.6,5.2,2.3,8,1.9l44.6-4.4l14-22.9l21.8-107.2l-42.9-26.5L1006,560l-25,33
					L1002,694z"/>
			</g>
		</g>
	</g>
</g>
</svg>
