<?xml version="1.0" encoding="utf-8"?>
<!-- Generator: Adobe Illustrator 22.1.0, SVG Export Plug-In . SVG Version: 6.00 Build 0)  -->
<svg version="1.1" id="Layer_1" xmlns="http://www.w3.org/2000/svg" xmlns:xlink="http://www.w3.org/1999/xlink" x="0px" y="0px"
	 viewBox="0 0 990 1109" style="enable-background:new 0 0 990 1109;" xml:space="preserve">
<style type="text/css">
	.st0{opacity:0.57;fill:url(#SVGID_1_);}
	.st1{opacity:0.5;}
	.st2{fill:url(#SVGID_2_);}
	.st3{opacity:0.22;fill:#46FFF2;}
	.st4{fill:#FFFFFF;}
	.st5{fill:#2DB8E3;}
	.st6{fill:#2599BD;}
	.st7{fill:#3844CA;}
	.st8{opacity:0.17;clip-path:url(#SVGID_4_);fill:#00FFFF;}
	.st9{enable-background:new    ;}
	.st10{clip-path:url(#SVGID_6_);fill:#1D2167;}
	.st11{fill:#46BEE3;}
	.st12{fill:#2C339E;}
	.st13{fill:#2499BA;}
	.st14{opacity:0.57;fill:url(#SVGID_7_);}
	.st15{fill:url(#SVGID_8_);}
	.st16{opacity:0.17;clip-path:url(#SVGID_10_);fill:#00FFFF;}
	.st17{clip-path:url(#SVGID_12_);fill:#1D2167;}
</style>
<g>
	<linearGradient id="SVGID_1_" gradientUnits="userSpaceOnUse" x1="1009.6728" y1="4987.8867" x2="1009.6728" y2="4449.1504">
		<stop  offset="0" style="stop-color:#46E3FF"/>
		<stop  offset="1" style="stop-color:#00FFFF;stop-opacity:0"/>
	</linearGradient>
	<path class="st0" d="M1477,4674.1l-124-66.5l46.1-92.4l-126.4-67.8l-170.7,24.5L977,4404.7l-171.1,24.6l-0.6,0.1l-45.4,91
		l-170.3,24.5l-0.6,0.1l-46.6,93.3l125.3,67.2l-45.8,91.7l126,67.6l0.4,0.2l169.1-24.3l125.1,67.1l0.4,0.2l171.8-24.7l45.7-91.5
		l170.2-24.5L1477,4674.1z M1133.2,4722.4l-167.6,24.1l-124.4-66.7l44.6-89.4l169.8-24.4l122.7,65.9L1133.2,4722.4z M1395.9,4516.2
		l-44.9,90l-169.7,24.4l-123.6-66.3l44.9-90l169.7-24.4L1395.9,4516.2z M806.8,4431.6l169.7-24.4l123.6,66.3l-44.9,90l-168.6,24.2
		L762.2,4521L806.8,4431.6z M590.5,4547.2l168.6-24.2l124.4,66.7l-44.6,89.4l-169.7,24.4l-123.6-66.3L590.5,4547.2z M625.1,4796.1
		l44.9-90l169.7-24.4l122.9,65.9l-45.2,90.5l-168.7,24.3L625.1,4796.1z M1212.9,4881l-169.7,24.4l-122.9-65.9l45.2-90.5l167.9-24.1
		l124.2,66.6L1212.9,4881z M1259.9,4789.4l-124.2-66.6l44.7-89.6l169.7-24.4l123.6,66.3l-44.9,90L1259.9,4789.4z"/>
	<g>
		<g>
			<g class="st1">
				
					<radialGradient id="SVGID_2_" cx="1019.9061" cy="4864.7275" r="920.7873" gradientTransform="matrix(1.0263 0 0 0.9716 -30.3569 -94.3849)" gradientUnits="userSpaceOnUse">
					<stop  offset="0" style="stop-color:#57FFE6"/>
					<stop  offset="1" style="stop-color:#FFFFFF;stop-opacity:0"/>
				</radialGradient>
				<polygon class="st2" points="746.3,4646.5 932.1,4748 1210.4,4707.3 1270.2,4585.3 1360,3981.9 1113.2,3847 743.5,3901.1 
					664.1,4063.2 				"/>
			</g>
			<polygon class="st3" points="731.8,4266.6 784.6,4158.8 1092.4,4113.8 1284.6,4218.8 1231.8,4326.7 924.1,4371.8 			"/>
			<polygon class="st3" points="788.4,4427.8 830.5,4342.2 1075.2,4306.3 1228,4389.8 1186,4475.6 941.3,4511.5 			"/>
			<polygon class="st3" points="701.1,4075.1 760.9,3953.3 1108.7,3902.4 1326,4021.1 1266.3,4143 918.5,4194 			"/>
		</g>
	</g>
	<g>
		<g>
			<polygon class="st4" points="1270.6,4567.4 1078.7,4464.3 816.5,4502.1 816.5,4502.1 746.2,4642.8 746.2,4642.8 938.2,4745.8 
				1200.4,4708.1 1200.4,4708.1 			"/>
			<polygon class="st5" points="1270.6,4567.4 1200.4,4708.1 1200.4,4758.8 1270.6,4618.1 			"/>
			<polygon class="st5" points="746.2,4642.8 746.2,4693.5 938.2,4796.5 938.2,4745.8 			"/>
			<polygon class="st6" points="938.2,4745.8 1200.4,4708.1 1200.4,4758.8 938.2,4796.5 			"/>
		</g>
		<polygon class="st7" points="798.9,4635.7 838.9,4555.4 1072.2,4521.9 1218,4600.1 1177.9,4680.4 944.6,4714 		"/>
		<g>
			<defs>
				<polygon id="SVGID_3_" points="798.9,4635.7 838.9,4555.4 1072.2,4521.9 1218,4600.1 1177.9,4680.4 944.6,4714 				"/>
			</defs>
			<clipPath id="SVGID_4_">
				<use xlink:href="#SVGID_3_"  style="overflow:visible;"/>
			</clipPath>
			<path class="st8" d="M1279.4,4624.2l8.1-16.3l-22.6-12.1l-0.1,0l-30.1,4.3l-21.4-11.5l7.9-15.8l30-4.3l8.4-16.9l-21.9-11.7
				l8.1-16.3l-22.6-12.1l-0.1,0l-30.1,4.3l-22.1-11.8l-30.6,4.4l-8,16l-29.9,4.3l-0.3,0l-0.1,0.2l-21.8-11.7l8.1-16.3l-22.6-12.1
				l-0.1,0l-30.1,4.3l-22.1-11.8l-30.6,4.4l-8,16l-29.9,4.3l-0.3,0l-8.4,16.9l22.1,11.9l-8,16l-28.2,4.1l-22.1-11.8l-30.6,4.4l-8,16
				l-29.9,4.3l-0.3,0l-8.4,16.9l22.1,11.9l-7.9,15.8l-29.5,4.2l-22.1-11.8l-30.6,4.4l-8,16l-29.9,4.3l-0.3,0l-8.4,16.9L731,4658
				l-8.1,16.2l22.6,12.1l0.1,0l29.8-4.3l22,11.8l0.1,0l30.6-4.4l8.1-16.1l29.5-4.2l21.4,11.5l-8.1,16.2l22.6,12.1l0.1,0l29.8-4.3
				l22,11.8l0.1,0l30.6-4.4l8.1-16.1l29.9-4.3l20.4,10.9l-8.1,16.2l22.6,12.1l0.1,0l29.8-4.3l22,11.8l0.1,0l30.6-4.4l8.1-16.1
				l30-4.3l8.4-16.9l-21.9-11.7l7.7-15.3l0.2,0.1l0.1,0l29.8-4.3l22,11.8l0.1,0l30.6-4.4l8.1-16.1l30-4.3l8.4-16.9L1279.4,4624.2z
				 M1224.4,4676.5l-21.3-11.4l7.8-15.5l29.4-4.2l21.5,11.6l-7.7,15.4L1224.4,4676.5z M1109.2,4737.5l-21.3-11.4l7.8-15.5l29.4-4.2
				l21.5,11.6l-7.7,15.4L1109.2,4737.5z M953.8,4715.5l-21.3-11.4l7.8-15.5l29.4-4.2l21.5,11.6l-7.7,15.4L953.8,4715.5z
				 M797.8,4692.9l-21.3-11.4l7.8-15.5l29.4-4.2l21.5,11.6l-7.7,15.4L797.8,4692.9z M747.6,4626.1l21.6,11.6l-7.7,15.3l-29.7,4.3
				l-21.4-11.5l7.7-15.4L747.6,4626.1z M785.9,4605.6l21.4,11.5l-7.7,15.4l-29.5,4.2l-21.6-11.6l7.7-15.3L785.9,4605.6z
				 M862.1,4564.4l21.6,11.6l-7.7,15.3l-29.7,4.3l-21.4-11.5l7.7-15.4L862.1,4564.4z M900.4,4544l21.4,11.5l-7.7,15.4l-29.5,4.2
				l-21.6-11.6l7.7-15.3L900.4,4544z M952.2,4550.4l7.7-15.4l29.7-4.3l21.3,11.4l-7.8,15.5l-28.9,4.2l-21.3-11.4l-0.1,0
				L952.2,4550.4L952.2,4550.4z M975.3,4502.7l21.6,11.6l-7.7,15.3l-29.7,4.3l-21.4-11.5l7.7-15.4L975.3,4502.7z M1013.7,4482.3
				l21.4,11.5l-7.7,15.4l-29.5,4.2l-21.6-11.6l7.7-15.3L1013.7,4482.3z M1065.8,4489.8l21.4,11.5l-7.7,15.4l-29.7,4.3l-21.4-11.5
				l7.7-15.4L1065.8,4489.8z M1132.6,4525.4l21.6,11.6l-7.7,15.3l-29.7,4.3l-21.4-11.5l7.7-15.4L1132.6,4525.4z M1171,4505
				l21.4,11.5l-7.7,15.4l-29.5,4.2l-21.6-11.6l7.7-15.3L1171,4505z M1223.1,4512.5l21.4,11.5l-7.7,15.4l-29.7,4.3l-21.4-11.5
				l7.7-15.4L1223.1,4512.5z M1264.7,4596.8l21.4,11.5l-7.7,15.4l-29.7,4.3l-21.4-11.5l7.7-15.4L1264.7,4596.8z M914.4,4572
				l21.3,11.4l-7.8,15.6l-29.3,4.2l-21.6-11.6l7.7-15.4L914.4,4572z M1027.6,4510.3l21.3,11.4l-7.8,15.6l-29.3,4.2l-21.6-11.6
				l7.7-15.4L1027.6,4510.3z M1184.9,4533l21.3,11.4l-7.8,15.6l-29.3,4.2l-21.6-11.6l7.7-15.4L1184.9,4533z M1210.7,4648.5
				l-21.6-11.6l7.7-15.4l29.7-4.3l21.3,11.4l-7.8,15.6L1210.7,4648.5z M1095.6,4709.5l-21.6-11.6l7.7-15.4l29.7-4.3l21.3,11.4
				l-7.8,15.6L1095.6,4709.5z M940.1,4687.5l-21.6-11.6l7.7-15.4l29.7-4.3l21.3,11.4l-7.8,15.6L940.1,4687.5z M852.8,4640.5
				l7.9-15.9l29.3-4.2l21.4,11.5l-7.8,15.7l-29.6,4.3L852.8,4640.5z M1008.8,4663.2l7.9-15.9l29.3-4.2l20.7,11.1l-7.7,15.5
				l-29.9,4.3l-0.2,0L1008.8,4663.2z M994.9,4634.8l7.7-15.4l29.7-4.3l21.3,11.4l-7.8,15.5l-29.5,4.2L994.9,4634.8z M1097.6,4649.2
				l-29.9,4.3l-20.7-11.1l7.8-15.5l29.4-4.2l21.5,11.6l-7.6,15.3L1097.6,4649.2z M1032,4614l-29.7,4.3l-21.3-11.4l7.8-15.6l29.3-4.2
				l21.6,11.6L1032,4614z M980.2,4607.5l21.4,11.5l-7.9,15.8l-29.5,4.2l-21.4-11.5l7.9-15.8L980.2,4607.5z M1135.9,4629.2l-29.3,4.2
				l-21.5-11.6l7.7-15.4l29.7-4.3l21.3,11.4L1135.9,4629.2z M1144.5,4612.9l-21.2-11.4l7.9-15.9l29.3-4.2l21.4,11.5l-7.8,15.7
				L1144.5,4612.9z M1083.9,4621.6l-29.3,4.2l-21.6-11.6l7.7-15.4l29.7-4.3l21.3,11.4L1083.9,4621.6z M942,4626.9l-29.7,4.3
				l-21.3-11.4l7.8-15.5l29.4-4.2l21.5,11.6L942,4626.9z M912.3,4632.6l29.7-4.3l21.4,11.5l-7.7,15.4l-29.5,4.2l-21.6-11.6
				L912.3,4632.6z M964.4,4640.1l29.7-4.3l21.4,11.5l-7.7,15.4l-29.7,4.3l-21.4-11.5L964.4,4640.1z M1081.6,4681.5l-21.6-11.6
				l7.6-15.2l0.4,0.2l0.1,0l29.9-4.3l20.8,11.2l-7.7,15.4L1081.6,4681.5z M1144.9,4613.9l29.3-4.2l21.6,11.6l-7.7,15.3l-29.7,4.3
				l-21.3-11.4L1144.9,4613.9z M1160.4,4580.4l-29.5,4.2l-21.4-11.5l7.7-15.4l29.7-4.3l21.3,11.4L1160.4,4580.4z M1130.1,4585.7
				l-7.7,15.4l-29.7,4.3l-21.4-11.5l7.7-15.4l29.7-4.3L1130.1,4585.7z M1070.2,4593.6l-29.5,4.2l-21.6-11.6l7.7-15.3l29.7-4.3
				l21.4,11.5L1070.2,4593.6z M1018.1,4586l-29.6,4.3l-21.2-11.4l8-16.1l27.9-4l22.1,11.9l0.4-0.1L1018.1,4586z M1025.6,4569.5
				l-21.3-11.4l7.8-15.5l29.4-4.2l21.5,11.6l-7.7,15.4L1025.6,4569.5z M979.8,4606.5l-29.3,4.2l-21.5-11.6l7.7-15.4l29.7-4.3
				l21.3,11.4L979.8,4606.5z M1149.7,4656.7l-30.1,4.3L1099,4650l7.8-15.6l29.5-4.2l21.4,11.5l-7.6,15.2L1149.7,4656.7
				L1149.7,4656.7z M876.3,4592.4l21.3,11.4l-7.8,15.5l-29.5,4.2l-21.4-11.5l7.7-15.4L876.3,4592.4z M1030.7,4674.9l-0.2-0.1
				l28.5-4.1l21.6,11.6l-7.7,15.3l-29.7,4.3l-20.6-11L1030.7,4674.9z M1226.2,4616.2l-29.5,4.2l-21.6-11.6l7.7-15.3l29.7-4.3
				l21.4,11.5L1226.2,4616.2z M1212.5,4587.9l-29.7,4.3l-21.3-11.4l7.8-15.5l29.4-4.2l21.5,11.6L1212.5,4587.9z M1207.2,4544.8
				l29.7-4.3l21.4,11.5l-7.7,15.4l-29.5,4.2l-21.5-11.6L1207.2,4544.8z M1093.3,4544.8l-29.5,4.2l-21.5-11.6l7.7-15.4l29.7-4.3
				l21.4,11.5L1093.3,4544.8z M952,4551.6l21.3,11.4l0.1,0l0.6-0.1l0.1,0l-7.7,15.4l-29.7,4.3l-21.4-11.5l7.7-15.4L952,4551.6z
				 M859.5,4624.7l-7.7,15.4l-29.7,4.3l-21.4-11.5l7.7-15.4l29.7-4.3L859.5,4624.7z M799.9,4633.6l21.3,11.4l-7.8,15.6l-29.3,4.2
				l-21.6-11.6l7.7-15.4L799.9,4633.6z M732.1,4658.3l29.7-4.3l21.3,11.4l-7.8,15.5l-29.5,4.2l-21.4-11.5L732.1,4658.3z
				 M822.1,4645.5l29.7-4.3l21.3,11.4l-7.8,15.6l-29.3,4.2l-21.5-11.6L822.1,4645.5z M874.3,4652.9l29.3-4.2l21.6,11.6l-7.7,15.3
				l-29.7,4.3l-21.3-11.4L874.3,4652.9z M888.1,4681l29.7-4.3l21.3,11.4l-7.8,15.5l-29.5,4.2l-21.4-11.5L888.1,4681z M978.2,4668.1
				l29.7-4.3l20.6,11l-8,16l0.2,0.1L992,4695l-21.5-11.6L978.2,4668.1z M1043.6,4703l29.7-4.3l21.3,11.4l-7.8,15.5l-29.5,4.2
				l-21.4-11.5L1043.6,4703z M1133.6,4690.1l29.7-4.3l21.4,11.5l-7.7,15.4l-29.5,4.2l-21.5-11.6L1133.6,4690.1z M1133.6,4689.1
				l-21.4-11.5l7.7-15.4l29.7-4.3l0.1,0v0l21.4,11.5l-7.7,15.4L1133.6,4689.1z M1171.5,4668.4l-20.5-11l7.7-15.4l29.7-4.3l21.3,11.4
				l-7.8,15.5l-29.5,4.2L1171.5,4668.4z M1248.7,4629.1l29.7-4.3l21.4,11.5l-7.7,15.4l-29.5,4.2l-21.5-11.6L1248.7,4629.1z
				 M1116.1,4557.4l-7.9,15.8l-29.5,4.2l-22.1-11.8l-0.4,0.1l7.7-15.5l30-4.3l0.1-0.2L1116.1,4557.4z"/>
		</g>
		<g id="XMLID_7_">
			<g>
				<polygon class="st5" points="1072.2,4521.9 1071.9,4521.9 1071.8,4521.7 1071.8,4496.8 1071.8,4496.3 1072.2,4496.3 
					1228,4579.9 1218,4600.1 				"/>
				<polygon class="st6" points="1071.8,4521.7 1071.9,4521.9 839,4555.4 839,4555.3 839,4529.8 1071.8,4496.3 1071.8,4496.8 				
					"/>
				<polygon class="st5" points="839,4555.3 839,4555.4 838.9,4555.4 798.9,4635.7 788.8,4630.2 838.9,4529.8 839,4529.8 				"/>
			</g>
			<g>
			</g>
		</g>
		<g>
			<g class="st9">
				<defs>
					<path id="SVGID_5_" class="st9" d="M975.6,4582.7l-0.4-47.7c0,0.4,0.1,0.8,0.3,1.2l0.4,47.7
						C975.7,4583.5,975.6,4583.1,975.6,4582.7z"/>
				</defs>
				<clipPath id="SVGID_6_">
					<use xlink:href="#SVGID_5_"  style="overflow:visible;"/>
				</clipPath>
				<path class="st10" d="M975.5,4536.1l0.4,47.7c-0.2-0.4-0.3-0.8-0.3-1.2l-0.4-47.7C975.2,4535.4,975.3,4535.8,975.5,4536.1"/>
			</g>
			<polygon class="st11" points="1101.5,4572.4 1101.9,4620.1 1020,4598.1 1019.6,4550.4 			"/>
			<path class="st12" d="M1130.7,4567.4c0,0.1,0,0.2,0,0.2c0,0.1-0.1,0.2-0.1,0.3c0,0.1,0,0.1-0.1,0.2c-0.1,0.1-0.1,0.2-0.2,0.4
				c0,0,0,0.1-0.1,0.1c-0.1,0.2-0.2,0.3-0.3,0.5c0,0-0.1,0.1-0.1,0.1c-0.1,0.1-0.2,0.2-0.3,0.3c-0.1,0.1-0.1,0.1-0.2,0.2
				c-0.1,0.1-0.2,0.2-0.3,0.3c-0.1,0.1-0.2,0.1-0.3,0.2c-0.1,0.1-0.2,0.2-0.4,0.2c-0.1,0.1-0.3,0.2-0.4,0.2
				c-0.2,0.1-0.3,0.2-0.5,0.3c-0.3,0.2-0.6,0.3-1,0.4c-0.5,0.2-1,0.4-1.6,0.6c-0.4,0.1-0.7,0.2-1.1,0.3c-0.1,0-0.2,0-0.2,0.1
				c-0.5,0.1-1,0.2-1.5,0.4c-0.1,0-0.3,0.1-0.4,0.1c-0.4,0.1-0.7,0.1-1.1,0.2c-0.2,0-0.4,0.1-0.6,0.1c-0.3,0.1-0.6,0.1-1,0.1
				c-0.7,0.1-1.4,0.2-2.1,0.2c-0.3,0-0.6,0-0.8,0.1c-0.3,0-0.6,0-0.8,0.1c-0.4,0-0.8,0-1.2,0c-0.2,0-0.3,0-0.5,0c-0.5,0-1.1,0-1.6,0
				c-0.1,0-0.2,0-0.4,0c-0.4,0-0.8,0-1.3,0c-0.2,0-0.3,0-0.5,0c-0.4,0-0.8-0.1-1.3-0.1c-0.1,0-0.2,0-0.3,0c-0.5,0-1-0.1-1.6-0.2
				c-0.1,0-0.3,0-0.4-0.1c-0.4-0.1-0.8-0.1-1.2-0.2c-0.2,0-0.3-0.1-0.5-0.1c-0.3-0.1-0.7-0.1-1-0.2c-0.2,0-0.4-0.1-0.5-0.1
				c-0.5-0.1-1-0.2-1.4-0.3l0.4,47.7c0.4,0.1,0.8,0.2,1.2,0.3c0.1,0,0.1,0,0.2,0c0.2,0,0.4,0.1,0.5,0.1c0.2,0,0.4,0.1,0.6,0.1
				c0.1,0,0.3,0,0.4,0.1c0.2,0,0.3,0.1,0.5,0.1c0.1,0,0.3,0,0.4,0.1c0.3,0,0.5,0.1,0.8,0.1c0.1,0,0.3,0,0.4,0.1c0,0,0.1,0,0.1,0
				c0.4,0.1,0.9,0.1,1.3,0.1c0,0,0.1,0,0.1,0c0.1,0,0.2,0,0.3,0c0.3,0,0.5,0,0.8,0.1c0.1,0,0.3,0,0.4,0c0.2,0,0.3,0,0.5,0
				c0.1,0,0.3,0,0.4,0c0.3,0,0.6,0,0.9,0c0.1,0,0.2,0,0.4,0c0,0,0.1,0,0.1,0c0.5,0,1,0,1.4,0c0,0,0.1,0,0.1,0c0.2,0,0.3,0,0.5,0
				c0.3,0,0.7,0,1,0c0.1,0,0.1,0,0.2,0c0.3,0,0.6,0,0.8-0.1c0.2,0,0.5,0,0.7,0c0.1,0,0.1,0,0.2,0c0.7-0.1,1.4-0.1,2.1-0.2
				c0,0,0.1,0,0.1,0c0.3,0,0.6-0.1,0.8-0.1c0.2,0,0.4-0.1,0.6-0.1c0.4-0.1,0.7-0.1,1.1-0.2c0.2,0,0.3-0.1,0.5-0.1
				c0.5-0.1,1-0.2,1.4-0.4c0.1,0,0.2-0.1,0.3-0.1c0.4-0.1,0.7-0.2,1.1-0.3c0,0,0,0,0,0c0.6-0.2,1.1-0.4,1.6-0.6c0,0,0.1,0,0.2-0.1
				c0.3-0.1,0.5-0.3,0.8-0.4c0.1,0,0.2-0.1,0.3-0.1c0.1,0,0.2-0.1,0.2-0.1c0.1-0.1,0.3-0.2,0.4-0.2c0,0,0.1-0.1,0.1-0.1
				c0.1-0.1,0.2-0.1,0.2-0.2c0.1-0.1,0.2-0.1,0.3-0.2c0,0,0.1,0,0.1-0.1c0.1-0.1,0.2-0.1,0.2-0.2c0.1-0.1,0.1-0.1,0.2-0.2
				c0,0,0,0,0.1-0.1c0.1-0.1,0.2-0.2,0.3-0.3c0,0,0.1-0.1,0.1-0.1c0,0,0,0,0,0c0.1-0.1,0.2-0.3,0.3-0.4c0,0,0,0,0,0
				c0,0,0-0.1,0.1-0.1c0.1-0.1,0.1-0.2,0.2-0.3c0,0,0,0,0,0c0-0.1,0-0.1,0.1-0.2c0-0.1,0.1-0.1,0.1-0.2c0,0,0,0,0-0.1
				c0-0.1,0-0.2,0-0.2c0-0.1,0-0.1,0-0.2c0,0,0-0.1,0-0.1l-0.4-47.7C1130.8,4567.2,1130.7,4567.3,1130.7,4567.4z"/>
			<polygon class="st11" points="1010.4,4610.8 1010.8,4658.5 975.9,4583.8 975.5,4536.1 			"/>
			<path class="st12" d="M1047.2,4610.2c0,0.1,0,0.2,0,0.2c0,0.1-0.1,0.2-0.1,0.3c0,0.1,0,0.1-0.1,0.2c-0.1,0.1-0.1,0.3-0.2,0.4
				c0,0,0,0,0,0c-0.1,0.2-0.2,0.3-0.3,0.5c0,0-0.1,0.1-0.1,0.1c-0.1,0.1-0.2,0.2-0.3,0.3c-0.1,0.1-0.1,0.1-0.2,0.2
				c-0.1,0.1-0.2,0.2-0.3,0.3c-0.1,0.1-0.2,0.1-0.3,0.2c-0.1,0.1-0.2,0.2-0.3,0.2c-0.1,0.1-0.3,0.2-0.4,0.3
				c-0.2,0.1-0.3,0.2-0.5,0.3c-0.3,0.2-0.6,0.3-1,0.4c-0.5,0.2-1,0.4-1.6,0.6c-0.3,0.1-0.5,0.2-0.8,0.2c-0.2,0.1-0.3,0.1-0.5,0.2
				c-0.3,0.1-0.7,0.2-1,0.3c-0.1,0-0.3,0.1-0.4,0.1c-0.5,0.1-1,0.2-1.5,0.3c-0.1,0-0.2,0-0.3,0c-0.4,0.1-0.9,0.1-1.3,0.2
				c-0.7,0.1-1.4,0.2-2.1,0.2c-0.5,0-1,0.1-1.5,0.1c-0.6,0-1.1,0-1.6,0.1c-0.1,0-0.2,0-0.3,0c-0.6,0-1.1,0-1.7,0c-0.1,0-0.3,0-0.4,0
				c-0.4,0-0.8,0-1.3,0c-0.2,0-0.3,0-0.5,0c-0.5,0-1.1-0.1-1.6-0.1c0,0,0,0-0.1,0c-0.5,0-1-0.1-1.5-0.2c-0.2,0-0.3,0-0.5-0.1
				c-0.4,0-0.7-0.1-1.1-0.2c-0.2,0-0.4-0.1-0.5-0.1c-0.3-0.1-0.6-0.1-1-0.2c-0.2,0-0.4-0.1-0.6-0.1c-0.3-0.1-0.5-0.1-0.7-0.2
				c-0.3-0.1-0.5-0.1-0.8-0.2c-0.2,0-0.3-0.1-0.5-0.1c-0.4-0.1-0.8-0.2-1.1-0.4c-0.2-0.1-0.5-0.2-0.7-0.2c-0.1-0.1-0.3-0.1-0.4-0.2
				c-0.3-0.1-0.5-0.2-0.8-0.3c-0.1,0-0.2-0.1-0.3-0.1c-0.3-0.2-0.7-0.3-1-0.5c-0.1,0-0.1-0.1-0.2-0.1c-0.2-0.1-0.4-0.3-0.6-0.4
				c-0.1-0.1-0.2-0.1-0.3-0.2c-0.2-0.1-0.3-0.3-0.5-0.4c-0.1-0.1-0.2-0.1-0.2-0.2c-0.1-0.1-0.3-0.3-0.4-0.4
				c-0.1-0.1-0.1-0.1-0.2-0.2c-0.2-0.2-0.3-0.4-0.4-0.6l0.4,47.7c0.1,0.2,0.2,0.4,0.4,0.6c0,0.1,0.1,0.1,0.2,0.2
				c0.1,0.1,0.2,0.3,0.4,0.4c0.1,0.1,0.1,0.1,0.2,0.2c0.1,0.1,0.3,0.3,0.5,0.4c0.1,0.1,0.2,0.1,0.3,0.2c0.2,0.1,0.4,0.3,0.6,0.4
				c0.1,0,0.1,0.1,0.2,0.1c0.3,0.2,0.6,0.3,1,0.5c0.1,0,0.2,0.1,0.3,0.1c0.3,0.1,0.5,0.2,0.8,0.3c0.1,0.1,0.3,0.1,0.4,0.2
				c0.1,0.1,0.3,0.1,0.4,0.2c0.1,0,0.2,0.1,0.3,0.1c0.4,0.1,0.7,0.2,1.1,0.4c0.1,0,0.2,0.1,0.3,0.1c0.1,0,0.1,0,0.2,0
				c0.3,0.1,0.5,0.1,0.8,0.2c0.2,0,0.4,0.1,0.6,0.1c0.1,0,0.1,0,0.2,0c0.2,0,0.4,0.1,0.6,0.1c0.2,0,0.4,0.1,0.7,0.1
				c0.1,0,0.2,0,0.3,0c0.2,0,0.4,0.1,0.5,0.1c0.2,0,0.3,0.1,0.5,0.1c0.2,0,0.4,0,0.5,0.1c0.2,0,0.3,0,0.5,0.1c0.1,0,0.2,0,0.3,0
				c0.4,0,0.8,0.1,1.2,0.1c0,0,0.1,0,0.1,0c0,0,0,0,0,0c0.4,0,0.9,0.1,1.3,0.1c0.1,0,0.2,0,0.3,0c0.2,0,0.3,0,0.5,0
				c0.2,0,0.4,0,0.6,0c0.2,0,0.5,0,0.7,0c0.1,0,0.3,0,0.4,0c0.1,0,0.1,0,0.2,0c0.5,0,0.9,0,1.4,0c0,0,0,0,0,0c0.1,0,0.2,0,0.3,0
				c0.4,0,0.8,0,1.2,0c0.1,0,0.3,0,0.4,0c0.4,0,0.9-0.1,1.3-0.1c0.1,0,0.1,0,0.2,0c0.7-0.1,1.4-0.1,2.1-0.2c0,0,0,0,0,0
				c0.4-0.1,0.9-0.1,1.3-0.2c0.1,0,0.2,0,0.3,0c0.5-0.1,1-0.2,1.5-0.3c0.1,0,0.3-0.1,0.4-0.1c0.3-0.1,0.7-0.2,1-0.3
				c0.2,0,0.3-0.1,0.5-0.2c0.2-0.1,0.5-0.1,0.7-0.2c0,0,0,0,0.1,0c0.5-0.2,1.1-0.4,1.6-0.6c0,0,0.1,0,0.1-0.1
				c0.3-0.1,0.6-0.3,0.8-0.4c0.1,0,0.2-0.1,0.3-0.1c0.1,0,0.2-0.1,0.2-0.1c0.1-0.1,0.3-0.2,0.4-0.3c0,0,0.1-0.1,0.1-0.1
				c0.1,0,0.1-0.1,0.2-0.2c0.1-0.1,0.2-0.1,0.3-0.2c0,0,0.1-0.1,0.1-0.1c0.1-0.1,0.1-0.1,0.2-0.2c0.1-0.1,0.1-0.1,0.2-0.2
				c0,0,0.1,0,0.1-0.1c0.1-0.1,0.2-0.2,0.2-0.3c0,0,0.1-0.1,0.1-0.1c0,0,0,0,0,0c0.1-0.1,0.2-0.3,0.3-0.4c0,0,0,0,0,0c0,0,0,0,0,0
				c0.1-0.1,0.2-0.3,0.2-0.4c0,0,0,0,0,0c0-0.1,0-0.1,0.1-0.2c0-0.1,0.1-0.2,0.1-0.2c0,0,0,0,0-0.1c0-0.1,0-0.2,0-0.2
				c0-0.1,0-0.1,0-0.2c0,0,0-0.1,0-0.1l-0.4-47.7C1047.2,4610,1047.2,4610.1,1047.2,4610.2z"/>
			<path class="st4" d="M978.6,4531.1c1.4-0.7,3.1-1.3,5.3-1.8c6.4-1.4,14.4-1.3,20.6,0.4l118.5,31.8c8.3,2.2,10.3,6.5,4.4,9.5
				c-5.9,3-17.5,3.7-25.8,1.4l-81.9-22l27.3,58.3c0.8,1.8-0.3,3.6-3.1,5.1c-2.9,1.5-7.1,2.4-12,2.7c-10.1,0.6-19.7-2-21.4-5.7
				l-35-74.6C974.6,4534.3,975.8,4532.5,978.6,4531.1z"/>
			<path class="st11" d="M925.3,4561.9l0.1,13.2L925.3,4561.9c-0.2-0.4-0.2-0.7-0.2-1.1l0.4,47.7c0,0.4,0.1,0.7,0.2,1.1l0,0
				l32.8,75.8l-0.4-47.7L925.3,4561.9z"/>
			<path class="st13" d="M995.1,4636.8c0,0.1,0,0.2,0,0.2c0,0.1-0.1,0.2-0.1,0.3c0,0.1,0,0.1-0.1,0.2c-0.1,0.2-0.2,0.3-0.3,0.5
				c0,0,0,0.1-0.1,0.1c-0.1,0.1-0.2,0.3-0.3,0.4c0,0.1-0.1,0.1-0.2,0.2c-0.1,0.1-0.2,0.2-0.3,0.3c-0.1,0.1-0.2,0.1-0.2,0.2
				c-0.1,0.1-0.2,0.2-0.3,0.3c-0.1,0.1-0.2,0.2-0.3,0.2c-0.1,0.1-0.2,0.2-0.4,0.2c-0.1,0.1-0.3,0.2-0.5,0.3
				c-0.2,0.1-0.3,0.2-0.5,0.3c-0.3,0.2-0.7,0.3-1,0.5c-0.1,0-0.2,0.1-0.3,0.1c-0.3,0.1-0.6,0.2-0.9,0.3c-0.1,0-0.2,0.1-0.3,0.1
				c-0.3,0.1-0.5,0.2-0.8,0.2c-0.2,0.1-0.4,0.1-0.6,0.2c-0.3,0.1-0.6,0.1-0.8,0.2c-0.2,0.1-0.4,0.1-0.6,0.2
				c-0.3,0.1-0.6,0.1-0.9,0.2c-0.2,0-0.4,0.1-0.7,0.1c-0.3,0.1-0.7,0.1-1,0.2c-0.2,0-0.4,0.1-0.6,0.1c-0.1,0-0.2,0-0.2,0
				c-0.6,0.1-1.2,0.1-1.9,0.2c-0.5,0-0.9,0.1-1.4,0.1c-0.5,0-1,0-1.4,0.1c-0.2,0-0.4,0-0.6,0c-0.6,0-1.1,0-1.7,0c0,0,0,0,0,0
				c-0.5,0-1.1,0-1.6,0c-0.1,0-0.3,0-0.4,0c-0.4,0-0.9-0.1-1.3-0.1c-0.1,0-0.2,0-0.4,0c-0.5,0-1-0.1-1.5-0.2c-0.1,0-0.2,0-0.3,0
				c-0.4-0.1-0.8-0.1-1.2-0.2c-0.2,0-0.3-0.1-0.5-0.1c-0.3-0.1-0.7-0.1-1-0.2c-0.2,0-0.4-0.1-0.5-0.1c-0.5-0.1-0.9-0.2-1.4-0.3
				c-0.2-0.1-0.4-0.1-0.7-0.2c-0.4-0.1-0.8-0.2-1.1-0.3c-0.2-0.1-0.5-0.2-0.7-0.3c-0.1-0.1-0.3-0.1-0.4-0.2
				c-0.3-0.1-0.6-0.3-0.9-0.4c-0.1,0-0.1-0.1-0.2-0.1c-0.3-0.2-0.7-0.3-1-0.5c-0.1,0-0.2-0.1-0.2-0.1c-0.2-0.1-0.4-0.3-0.6-0.4
				c-0.1-0.1-0.2-0.1-0.3-0.2c-0.2-0.1-0.3-0.2-0.4-0.4c-0.1-0.1-0.1-0.1-0.2-0.2c-0.1-0.1-0.2-0.3-0.4-0.4c0-0.1-0.1-0.1-0.1-0.2
				c-0.1-0.2-0.3-0.4-0.4-0.6l0.4,47.7c0.1,0.2,0.2,0.4,0.4,0.6c0,0.1,0.1,0.1,0.1,0.2c0.1,0.1,0.2,0.3,0.4,0.4
				c0.1,0.1,0.1,0.1,0.2,0.2c0.1,0.1,0.3,0.3,0.4,0.4c0.1,0.1,0.2,0.1,0.3,0.2c0.2,0.1,0.4,0.3,0.6,0.4c0.1,0,0.2,0.1,0.2,0.2
				c0.3,0.2,0.6,0.3,0.9,0.5c0.1,0,0.1,0.1,0.2,0.1c0.3,0.1,0.6,0.3,0.9,0.4c0.1,0.1,0.3,0.1,0.4,0.2c0.2,0.1,0.3,0.1,0.5,0.2
				c0.1,0,0.2,0,0.2,0.1c0.4,0.1,0.7,0.2,1.1,0.3c0.1,0,0.2,0.1,0.4,0.1c0.1,0,0.2,0.1,0.3,0.1c0.4,0.1,0.8,0.2,1.2,0.3
				c0.1,0,0.1,0,0.2,0c0.2,0,0.3,0.1,0.5,0.1c0.2,0,0.4,0.1,0.6,0.1c0.1,0,0.3,0,0.4,0.1c0.2,0,0.3,0.1,0.5,0.1c0.1,0,0.3,0,0.4,0.1
				c0.3,0,0.5,0.1,0.8,0.1c0.1,0,0.2,0,0.3,0c0,0,0.1,0,0.1,0c0.4,0.1,0.8,0.1,1.2,0.1c0.1,0,0.1,0,0.2,0c0.1,0,0.2,0,0.4,0
				c0.2,0,0.5,0,0.7,0.1c0.2,0,0.4,0,0.5,0c0.1,0,0.3,0,0.4,0c0.1,0,0.2,0,0.3,0c0.4,0,0.9,0,1.3,0c0,0,0,0,0,0c0,0,0,0,0,0
				c0.5,0,0.9,0,1.4,0c0.1,0,0.2,0,0.2,0c0.2,0,0.4,0,0.6,0c0.2,0,0.5,0,0.7,0c0.2,0,0.5,0,0.7,0c0.4,0,0.8-0.1,1.1-0.1
				c0.1,0,0.2,0,0.3,0c0.6-0.1,1.3-0.1,1.9-0.2c0.1,0,0.1,0,0.2,0c0,0,0,0,0,0c0.2,0,0.4-0.1,0.6-0.1c0.3-0.1,0.7-0.1,1-0.2
				c0.2,0,0.4-0.1,0.7-0.1c0.3-0.1,0.6-0.1,0.9-0.2c0.2-0.1,0.4-0.1,0.6-0.2c0.3-0.1,0.6-0.1,0.8-0.2c0.2-0.1,0.4-0.1,0.6-0.2
				c0.2-0.1,0.4-0.1,0.6-0.2c0,0,0.1,0,0.1,0c0.1,0,0.2-0.1,0.3-0.1c0.3-0.1,0.6-0.2,0.9-0.3c0.1,0,0.2-0.1,0.3-0.1
				c0.1,0,0.1-0.1,0.2-0.1c0.3-0.1,0.6-0.3,0.8-0.4c0.1-0.1,0.2-0.1,0.3-0.2c0.1,0,0.2-0.1,0.2-0.1c0.2-0.1,0.3-0.2,0.5-0.3
				c0.1,0,0.1-0.1,0.2-0.1c0.1,0,0.1-0.1,0.2-0.1c0.1-0.1,0.2-0.2,0.3-0.2c0,0,0.1-0.1,0.1-0.1c0.1-0.1,0.1-0.1,0.2-0.2
				c0.1-0.1,0.2-0.1,0.2-0.2c0,0,0.1-0.1,0.1-0.1c0.1-0.1,0.1-0.2,0.2-0.2c0.1-0.1,0.1-0.1,0.2-0.2c0,0,0,0,0,0
				c0.1-0.1,0.2-0.2,0.3-0.4c0,0,0-0.1,0.1-0.1c0,0,0,0,0,0c0.1-0.2,0.2-0.3,0.2-0.5c0,0,0,0,0,0c0-0.1,0-0.1,0.1-0.2
				c0-0.1,0.1-0.2,0.1-0.3c0,0,0,0,0-0.1c0-0.1,0-0.2,0-0.2c0-0.1,0-0.1,0-0.2c0-0.1,0-0.1,0-0.2l-0.4-47.7
				C995.2,4636.6,995.1,4636.7,995.1,4636.8z"/>
			<path class="st4" d="M928.6,4556.7c3-1.5,7.3-2.5,12.2-2.8c10.2-0.6,19.8,1.9,21.4,5.7l32.8,75.8c0.8,1.8-0.4,3.7-3.3,5.2
				c-2.9,1.5-7.2,2.5-12.2,2.8c-4.9,0.3-9.9-0.1-13.9-1.2c-4.1-1.1-6.7-2.7-7.5-4.5l-32.8-75.8
				C924.5,4560,925.6,4558.2,928.6,4556.7z"/>
		</g>
	</g>
</g>
<g>
	<linearGradient id="SVGID_7_" gradientUnits="userSpaceOnUse" x1="496.6728" y1="1165.8867" x2="496.6728" y2="627.1503">
		<stop  offset="0" style="stop-color:#46E3FF"/>
		<stop  offset="1" style="stop-color:#00FFFF;stop-opacity:0"/>
	</linearGradient>
	<path class="st14" d="M964,852.1l-124-66.5l46.1-92.4l-126.4-67.8l-170.7,24.5L464,582.7l-171.1,24.6l-0.6,0.1l-45.4,91L76.5,722.8
		l-0.6,0.1l-46.6,93.3l125.3,67.2l-45.8,91.7l126,67.6l0.4,0.2l169.1-24.3l125.1,67.1l0.4,0.2l171.8-24.7l45.7-91.5l170.2-24.5
		L964,852.1z M620.2,900.4l-167.6,24.1l-124.4-66.7l44.6-89.4l169.8-24.4l122.7,65.9L620.2,900.4z M882.9,694.2l-44.9,90
		l-169.7,24.4l-123.6-66.3l44.9-90l169.7-24.4L882.9,694.2z M293.8,609.6l169.7-24.4l123.6,66.3l-44.9,90l-168.6,24.2L249.2,699
		L293.8,609.6z M77.5,725.2l168.6-24.2l124.4,66.7l-44.6,89.4l-169.7,24.4L32.6,815.2L77.5,725.2z M112.1,974.1l44.9-90l169.7-24.4
		l122.9,65.9l-45.2,90.5l-168.7,24.3L112.1,974.1z M699.9,1059l-169.7,24.4l-122.9-65.9l45.2-90.5l167.9-24.1l124.2,66.6L699.9,1059
		z M746.9,967.4l-124.2-66.6l44.7-89.6l169.7-24.4l123.6,66.3l-44.9,90L746.9,967.4z"/>
	<g>
		<g>
			<g class="st1">
				
					<radialGradient id="SVGID_8_" cx="520.072" cy="930.8416" r="920.7873" gradientTransform="matrix(1.0263 0 0 0.9716 -30.3569 -94.3849)" gradientUnits="userSpaceOnUse">
					<stop  offset="0" style="stop-color:#57FFE6"/>
					<stop  offset="1" style="stop-color:#FFFFFF;stop-opacity:0"/>
				</radialGradient>
				<polygon class="st15" points="233.3,824.5 419.1,926 697.4,885.3 757.2,763.3 847,159.9 600.2,25 230.5,79.1 151.1,241.2 				
					"/>
			</g>
			<polygon class="st3" points="218.8,444.6 271.6,336.8 579.4,291.8 771.6,396.8 718.8,504.7 411.1,549.8 			"/>
			<polygon class="st3" points="275.4,605.8 317.5,520.2 562.2,484.3 715,567.8 673,653.6 428.3,689.5 			"/>
			<polygon class="st3" points="188.1,253.1 247.9,131.3 595.7,80.4 813,199.1 753.3,321 405.5,372 			"/>
		</g>
	</g>
	<g>
		<g>
			<polygon class="st4" points="757.6,745.4 565.7,642.3 303.5,680.1 303.5,680.1 233.2,820.8 233.2,820.8 425.2,923.8 687.4,886.1 
				687.4,886.1 			"/>
			<polygon class="st5" points="757.6,745.4 687.4,886.1 687.4,936.8 757.6,796.1 			"/>
			<polygon class="st5" points="233.2,820.8 233.2,871.5 425.2,974.5 425.2,923.8 			"/>
			<polygon class="st6" points="425.2,923.8 687.4,886.1 687.4,936.8 425.2,974.5 			"/>
		</g>
		<polygon class="st7" points="285.9,813.7 325.9,733.4 559.2,699.9 705,778.1 664.9,858.4 431.6,892 		"/>
		<g>
			<defs>
				<polygon id="SVGID_9_" points="285.9,813.7 325.9,733.4 559.2,699.9 705,778.1 664.9,858.4 431.6,892 				"/>
			</defs>
			<clipPath id="SVGID_10_">
				<use xlink:href="#SVGID_9_"  style="overflow:visible;"/>
			</clipPath>
			<path class="st16" d="M766.4,802.2l8.1-16.3L752,773.7l-0.1,0l-30.1,4.3l-21.4-11.5l7.9-15.8l30-4.3l8.4-16.9l-21.9-11.7
				l8.1-16.3l-22.6-12.1l-0.1,0l-30.1,4.3l-22.1-11.8l-30.6,4.4l-8,16l-29.9,4.3l-0.3,0l-0.1,0.2l-21.8-11.7l8.1-16.3l-22.6-12.1
				l-0.1,0l-30.1,4.3l-22.1-11.8l-30.6,4.4l-8,16l-29.9,4.3l-0.3,0l-8.4,16.9l22.1,11.9l-8,16l-28.2,4.1l-22.1-11.8l-30.6,4.4l-8,16
				l-29.9,4.3l-0.3,0l-8.4,16.9l22.1,11.9l-7.9,15.8l-29.5,4.2l-22.1-11.8l-30.6,4.4l-8,16l-29.9,4.3l-0.3,0l-8.4,16.9L218,836
				l-8.1,16.2l22.6,12.1l0.1,0l29.8-4.3l22,11.8l0.1,0l30.6-4.4l8.1-16.1l29.5-4.2l21.4,11.5l-8.1,16.2l22.6,12.1l0.1,0l29.8-4.3
				l22,11.8l0.1,0l30.6-4.4l8.1-16.1l29.9-4.3l20.4,10.9l-8.1,16.2L544,909l0.1,0l29.8-4.3l22,11.8l0.1,0l30.6-4.4l8.1-16.1l30-4.3
				l8.4-16.9l-21.9-11.7l7.7-15.3l0.2,0.1l0.1,0l29.8-4.3l22,11.8l0.1,0l30.6-4.4l8.1-16.1l30-4.3l8.4-16.9L766.4,802.2z
				 M711.4,854.5l-21.3-11.4l7.8-15.5l29.4-4.2l21.5,11.6l-7.7,15.4L711.4,854.5z M596.2,915.5l-21.3-11.4l7.8-15.5l29.4-4.2
				l21.5,11.6l-7.7,15.4L596.2,915.5z M440.8,893.5l-21.3-11.4l7.8-15.5l29.4-4.2l21.5,11.6l-7.7,15.4L440.8,893.5z M284.8,870.9
				l-21.3-11.4l7.8-15.5l29.4-4.2l21.5,11.6l-7.7,15.4L284.8,870.9z M234.6,804.1l21.6,11.6l-7.7,15.3l-29.7,4.3l-21.4-11.5
				l7.7-15.4L234.6,804.1z M272.9,783.6l21.4,11.5l-7.7,15.4l-29.5,4.2l-21.6-11.6l7.7-15.3L272.9,783.6z M349.1,742.4l21.6,11.6
				l-7.7,15.3l-29.7,4.3l-21.4-11.5l7.7-15.4L349.1,742.4z M387.4,722l21.4,11.5l-7.7,15.4l-29.5,4.2l-21.6-11.6l7.7-15.3L387.4,722
				z M439.2,728.4l7.7-15.4l29.7-4.3l21.3,11.4l-7.8,15.5l-28.9,4.2l-21.3-11.4l-0.1,0L439.2,728.4L439.2,728.4z M462.3,680.7
				l21.6,11.6l-7.7,15.3l-29.7,4.3l-21.4-11.5l7.7-15.4L462.3,680.7z M500.7,660.3l21.4,11.5l-7.7,15.4l-29.5,4.2l-21.6-11.6
				l7.7-15.3L500.7,660.3z M552.8,667.8l21.4,11.5l-7.7,15.4l-29.7,4.3l-21.4-11.5l7.7-15.4L552.8,667.8z M619.6,703.4l21.6,11.6
				l-7.7,15.3l-29.7,4.3l-21.4-11.5l7.7-15.4L619.6,703.4z M658,683l21.4,11.5l-7.7,15.4l-29.5,4.2l-21.6-11.6l7.7-15.3L658,683z
				 M710.1,690.5l21.4,11.5l-7.7,15.4l-29.7,4.3l-21.4-11.5l7.7-15.4L710.1,690.5z M751.7,774.8l21.4,11.5l-7.7,15.4l-29.7,4.3
				l-21.4-11.5l7.7-15.4L751.7,774.8z M401.4,750l21.3,11.4l-7.8,15.6l-29.3,4.2L364,769.6l7.7-15.4L401.4,750z M514.6,688.3
				l21.3,11.4l-7.8,15.6l-29.3,4.2l-21.6-11.6l7.7-15.4L514.6,688.3z M671.9,711l21.3,11.4l-7.8,15.6l-29.3,4.2l-21.6-11.6l7.7-15.4
				L671.9,711z M697.7,826.5l-21.6-11.6l7.7-15.4l29.7-4.3l21.3,11.4l-7.8,15.6L697.7,826.5z M582.6,887.5L561,875.9l7.7-15.4
				l29.7-4.3l21.3,11.4l-7.8,15.6L582.6,887.5z M427.1,865.5l-21.6-11.6l7.7-15.4l29.7-4.3l21.3,11.4l-7.8,15.6L427.1,865.5z
				 M339.8,818.5l7.9-15.9l29.3-4.2l21.4,11.5l-7.8,15.7l-29.6,4.3L339.8,818.5z M495.8,841.2l7.9-15.9l29.3-4.2l20.7,11.1
				l-7.7,15.5l-29.9,4.3l-0.2,0L495.8,841.2z M481.9,812.8l7.7-15.4l29.7-4.3l21.3,11.4l-7.8,15.5l-29.5,4.2L481.9,812.8z
				 M584.6,827.2l-29.9,4.3L534,820.4l7.8-15.5l29.4-4.2l21.5,11.6l-7.6,15.3L584.6,827.2z M519,792l-29.7,4.3l-21.3-11.4l7.8-15.6
				l29.3-4.2l21.6,11.6L519,792z M467.2,785.5l21.4,11.5l-7.9,15.8l-29.5,4.2l-21.4-11.5l7.9-15.8L467.2,785.5z M622.9,807.2
				l-29.3,4.2L572,799.8l7.7-15.4l29.7-4.3l21.3,11.4L622.9,807.2z M631.5,790.9l-21.2-11.4l7.9-15.9l29.3-4.2l21.4,11.5l-7.8,15.7
				L631.5,790.9z M570.9,799.6l-29.3,4.2l-21.6-11.6l7.7-15.4l29.7-4.3l21.3,11.4L570.9,799.6z M429,804.9l-29.7,4.3L378,797.8
				l7.8-15.5l29.4-4.2l21.5,11.6L429,804.9z M399.3,810.6l29.7-4.3l21.4,11.5l-7.7,15.4l-29.5,4.2l-21.6-11.6L399.3,810.6z
				 M451.4,818.1l29.7-4.3l21.4,11.5l-7.7,15.4l-29.7,4.3l-21.4-11.5L451.4,818.1z M568.6,859.5L547,847.9l7.6-15.2l0.4,0.2l0.1,0
				l29.9-4.3l20.8,11.2l-7.7,15.4L568.6,859.5z M631.9,791.9l29.3-4.2l21.6,11.6l-7.7,15.3l-29.7,4.3l-21.3-11.4L631.9,791.9z
				 M647.4,758.4l-29.5,4.2l-21.4-11.5l7.7-15.4l29.7-4.3l21.3,11.4L647.4,758.4z M617.1,763.7l-7.7,15.4l-29.7,4.3l-21.4-11.5
				l7.7-15.4l29.7-4.3L617.1,763.7z M557.2,771.6l-29.5,4.2l-21.6-11.6l7.7-15.3l29.7-4.3l21.4,11.5L557.2,771.6z M505.1,764
				l-29.6,4.3l-21.2-11.4l8-16.1l27.9-4l22.1,11.9l0.4-0.1L505.1,764z M512.6,747.5l-21.3-11.4l7.8-15.5l29.4-4.2l21.5,11.6
				l-7.7,15.4L512.6,747.5z M466.8,784.5l-29.3,4.2L416,777.2l7.7-15.4l29.7-4.3l21.3,11.4L466.8,784.5z M636.7,834.7l-30.1,4.3
				L586,828l7.8-15.6l29.5-4.2l21.4,11.5l-7.6,15.2L636.7,834.7L636.7,834.7z M363.3,770.4l21.3,11.4l-7.8,15.5l-29.5,4.2
				l-21.4-11.5l7.7-15.4L363.3,770.4z M517.7,852.9l-0.2-0.1l28.5-4.1l21.6,11.6l-7.7,15.3l-29.7,4.3l-20.6-11L517.7,852.9z
				 M713.2,794.2l-29.5,4.2l-21.6-11.6l7.7-15.3l29.7-4.3l21.4,11.5L713.2,794.2z M699.5,765.9l-29.7,4.3l-21.3-11.4l7.8-15.5
				l29.4-4.2l21.5,11.6L699.5,765.9z M694.2,722.8l29.7-4.3l21.4,11.5l-7.7,15.4l-29.5,4.2l-21.5-11.6L694.2,722.8z M580.3,722.8
				l-29.5,4.2l-21.5-11.6l7.7-15.4l29.7-4.3l21.4,11.5L580.3,722.8z M439,729.6l21.3,11.4l0.1,0l0.6-0.1l0.1,0l-7.7,15.4l-29.7,4.3
				l-21.4-11.5l7.7-15.4L439,729.6z M346.5,802.7l-7.7,15.4l-29.7,4.3l-21.4-11.5l7.7-15.4l29.7-4.3L346.5,802.7z M286.9,811.6
				l21.3,11.4l-7.8,15.6l-29.3,4.2l-21.6-11.6l7.7-15.4L286.9,811.6z M219.1,836.3l29.7-4.3l21.3,11.4l-7.8,15.5l-29.5,4.2
				l-21.4-11.5L219.1,836.3z M309.1,823.5l29.7-4.3l21.3,11.4l-7.8,15.6l-29.3,4.2l-21.5-11.6L309.1,823.5z M361.3,830.9l29.3-4.2
				l21.6,11.6l-7.7,15.3l-29.7,4.3l-21.3-11.4L361.3,830.9z M375.1,859l29.7-4.3l21.3,11.4l-7.8,15.5l-29.5,4.2l-21.4-11.5
				L375.1,859z M465.2,846.1l29.7-4.3l20.6,11l-8,16l0.2,0.1L479,873l-21.5-11.6L465.2,846.1z M530.6,881l29.7-4.3l21.3,11.4
				l-7.8,15.5l-29.5,4.2l-21.4-11.5L530.6,881z M620.6,868.1l29.7-4.3l21.4,11.5l-7.7,15.4l-29.5,4.2l-21.5-11.6L620.6,868.1z
				 M620.6,867.1l-21.4-11.5l7.7-15.4l29.7-4.3l0.1,0v0l21.4,11.5l-7.7,15.4L620.6,867.1z M658.5,846.4l-20.5-11l7.7-15.4l29.7-4.3
				l21.3,11.4l-7.8,15.5l-29.5,4.2L658.5,846.4z M735.7,807.1l29.7-4.3l21.4,11.5l-7.7,15.4l-29.5,4.2l-21.5-11.6L735.7,807.1z
				 M603.1,735.4l-7.9,15.8l-29.5,4.2l-22.1-11.8l-0.4,0.1l7.7-15.5l30-4.3l0.1-0.2L603.1,735.4z"/>
		</g>
		<g id="XMLID_1_">
			<g>
				<polygon class="st5" points="559.2,699.9 558.9,699.9 558.8,699.7 558.8,674.8 558.8,674.3 559.2,674.3 715.1,757.9 705,778.1 
									"/>
				<polygon class="st6" points="558.8,699.7 558.9,699.9 326,733.4 326,733.3 326,707.8 558.8,674.3 558.8,674.8 				"/>
				<polygon class="st5" points="326,733.3 326,733.4 325.9,733.4 285.9,813.7 275.8,808.3 325.9,707.8 326,707.8 				"/>
			</g>
			<g>
			</g>
		</g>
		<g>
			<g class="st9">
				<defs>
					<path id="SVGID_11_" class="st9" d="M462.6,760.7l-0.4-47.7c0,0.4,0.1,0.8,0.3,1.2l0.4,47.7
						C462.7,761.5,462.6,761.1,462.6,760.7z"/>
				</defs>
				<clipPath id="SVGID_12_">
					<use xlink:href="#SVGID_11_"  style="overflow:visible;"/>
				</clipPath>
				<path class="st17" d="M462.5,714.1l0.4,47.7c-0.2-0.4-0.3-0.8-0.3-1.2l-0.4-47.7C462.2,713.4,462.3,713.8,462.5,714.1"/>
			</g>
			<polygon class="st11" points="588.5,750.4 588.9,798.1 507,776.1 506.6,728.4 			"/>
			<path class="st12" d="M617.7,745.4c0,0.1,0,0.2,0,0.2c0,0.1-0.1,0.2-0.1,0.3c0,0.1,0,0.1-0.1,0.2c-0.1,0.1-0.1,0.2-0.2,0.4
				c0,0,0,0.1-0.1,0.1c-0.1,0.2-0.2,0.3-0.3,0.5c0,0-0.1,0.1-0.1,0.1c-0.1,0.1-0.2,0.2-0.3,0.3c-0.1,0.1-0.1,0.1-0.2,0.2
				c-0.1,0.1-0.2,0.2-0.3,0.3c-0.1,0.1-0.2,0.1-0.3,0.2c-0.1,0.1-0.2,0.2-0.4,0.2c-0.1,0.1-0.3,0.2-0.4,0.2
				c-0.2,0.1-0.3,0.2-0.5,0.3c-0.3,0.2-0.6,0.3-1,0.4c-0.5,0.2-1,0.4-1.6,0.6c-0.4,0.1-0.7,0.2-1.1,0.3c-0.1,0-0.2,0-0.2,0.1
				c-0.5,0.1-1,0.2-1.5,0.4c-0.1,0-0.3,0.1-0.4,0.1c-0.4,0.1-0.7,0.1-1.1,0.2c-0.2,0-0.4,0.1-0.6,0.1c-0.3,0.1-0.6,0.1-1,0.1
				c-0.7,0.1-1.4,0.2-2.1,0.2c-0.3,0-0.6,0-0.8,0.1c-0.3,0-0.6,0-0.8,0.1c-0.4,0-0.8,0-1.2,0c-0.2,0-0.3,0-0.5,0c-0.5,0-1.1,0-1.6,0
				c-0.1,0-0.2,0-0.4,0c-0.4,0-0.8,0-1.3,0c-0.2,0-0.3,0-0.5,0c-0.4,0-0.8-0.1-1.3-0.1c-0.1,0-0.2,0-0.3,0c-0.5,0-1-0.1-1.6-0.2
				c-0.1,0-0.3,0-0.4-0.1c-0.4-0.1-0.8-0.1-1.2-0.2c-0.2,0-0.3-0.1-0.5-0.1c-0.3-0.1-0.7-0.1-1-0.2c-0.2,0-0.4-0.1-0.5-0.1
				c-0.5-0.1-1-0.2-1.4-0.3l0.4,47.7c0.4,0.1,0.8,0.2,1.2,0.3c0.1,0,0.1,0,0.2,0c0.2,0,0.4,0.1,0.5,0.1c0.2,0,0.4,0.1,0.6,0.1
				c0.1,0,0.3,0,0.4,0.1c0.2,0,0.3,0.1,0.5,0.1c0.1,0,0.3,0,0.4,0.1c0.3,0,0.5,0.1,0.8,0.1c0.1,0,0.3,0,0.4,0.1c0,0,0.1,0,0.1,0
				c0.4,0.1,0.9,0.1,1.3,0.1c0,0,0.1,0,0.1,0c0.1,0,0.2,0,0.3,0c0.3,0,0.5,0,0.8,0.1c0.1,0,0.3,0,0.4,0c0.2,0,0.3,0,0.5,0
				c0.1,0,0.3,0,0.4,0c0.3,0,0.6,0,0.9,0c0.1,0,0.2,0,0.4,0c0,0,0.1,0,0.1,0c0.5,0,1,0,1.4,0c0,0,0.1,0,0.1,0c0.2,0,0.3,0,0.5,0
				c0.3,0,0.7,0,1,0c0.1,0,0.1,0,0.2,0c0.3,0,0.6,0,0.8-0.1c0.2,0,0.5,0,0.7,0c0.1,0,0.1,0,0.2,0c0.7-0.1,1.4-0.1,2.1-0.2
				c0,0,0.1,0,0.1,0c0.3,0,0.6-0.1,0.8-0.1c0.2,0,0.4-0.1,0.6-0.1c0.4-0.1,0.7-0.1,1.1-0.2c0.2,0,0.3-0.1,0.5-0.1
				c0.5-0.1,1-0.2,1.4-0.4c0.1,0,0.2-0.1,0.3-0.1c0.4-0.1,0.7-0.2,1.1-0.3c0,0,0,0,0,0c0.6-0.2,1.1-0.4,1.6-0.6c0,0,0.1,0,0.2-0.1
				c0.3-0.1,0.5-0.3,0.8-0.4c0.1,0,0.2-0.1,0.3-0.1c0.1,0,0.2-0.1,0.2-0.1c0.1-0.1,0.3-0.2,0.4-0.2c0,0,0.1-0.1,0.1-0.1
				c0.1-0.1,0.2-0.1,0.2-0.2c0.1-0.1,0.2-0.1,0.3-0.2c0,0,0.1,0,0.1-0.1c0.1-0.1,0.2-0.1,0.2-0.2c0.1-0.1,0.1-0.1,0.2-0.2
				c0,0,0,0,0.1-0.1c0.1-0.1,0.2-0.2,0.3-0.3c0,0,0.1-0.1,0.1-0.1c0,0,0,0,0,0c0.1-0.1,0.2-0.3,0.3-0.4c0,0,0,0,0,0
				c0,0,0-0.1,0.1-0.1c0.1-0.1,0.1-0.2,0.2-0.3c0,0,0,0,0,0c0-0.1,0-0.1,0.1-0.2c0-0.1,0.1-0.1,0.1-0.2c0,0,0,0,0-0.1
				c0-0.1,0-0.2,0-0.2c0-0.1,0-0.1,0-0.2c0,0,0-0.1,0-0.1l-0.4-47.7C617.8,745.2,617.7,745.3,617.7,745.4z"/>
			<polygon class="st11" points="497.4,788.8 497.8,836.5 462.9,761.8 462.5,714.1 			"/>
			<path class="st12" d="M534.2,788.2c0,0.1,0,0.2,0,0.2c0,0.1-0.1,0.2-0.1,0.3c0,0.1,0,0.1-0.1,0.2c-0.1,0.1-0.1,0.3-0.2,0.4
				c0,0,0,0,0,0c-0.1,0.2-0.2,0.3-0.3,0.5c0,0-0.1,0.1-0.1,0.1c-0.1,0.1-0.2,0.2-0.3,0.3c-0.1,0.1-0.1,0.1-0.2,0.2
				c-0.1,0.1-0.2,0.2-0.3,0.3c-0.1,0.1-0.2,0.1-0.3,0.2c-0.1,0.1-0.2,0.2-0.4,0.2c-0.1,0.1-0.3,0.2-0.4,0.3
				c-0.2,0.1-0.3,0.2-0.5,0.3c-0.3,0.2-0.6,0.3-1,0.4c-0.5,0.2-1,0.4-1.6,0.6c-0.3,0.1-0.5,0.2-0.8,0.2c-0.2,0.1-0.3,0.1-0.5,0.2
				c-0.3,0.1-0.7,0.2-1,0.3c-0.1,0-0.3,0.1-0.4,0.1c-0.5,0.1-1,0.2-1.5,0.3c-0.1,0-0.2,0-0.3,0c-0.4,0.1-0.9,0.1-1.3,0.2
				c-0.7,0.1-1.4,0.2-2.1,0.2c-0.5,0-1,0.1-1.5,0.1c-0.6,0-1.1,0-1.6,0.1c-0.1,0-0.2,0-0.3,0c-0.6,0-1.1,0-1.7,0c-0.1,0-0.3,0-0.4,0
				c-0.4,0-0.8,0-1.3,0c-0.2,0-0.3,0-0.5,0c-0.5,0-1.1-0.1-1.6-0.1c0,0,0,0-0.1,0c-0.5,0-1-0.1-1.5-0.2c-0.2,0-0.3,0-0.5-0.1
				c-0.4,0-0.7-0.1-1.1-0.2c-0.2,0-0.4-0.1-0.5-0.1c-0.3-0.1-0.6-0.1-1-0.2c-0.2,0-0.4-0.1-0.6-0.1c-0.3-0.1-0.5-0.1-0.7-0.2
				c-0.3-0.1-0.5-0.1-0.8-0.2c-0.2,0-0.3-0.1-0.5-0.1c-0.4-0.1-0.8-0.2-1.1-0.4c-0.2-0.1-0.5-0.2-0.7-0.2c-0.1-0.1-0.3-0.1-0.4-0.2
				c-0.3-0.1-0.5-0.2-0.8-0.3c-0.1,0-0.2-0.1-0.3-0.1c-0.3-0.2-0.7-0.3-1-0.5c-0.1,0-0.1-0.1-0.2-0.1c-0.2-0.1-0.4-0.3-0.6-0.4
				c-0.1-0.1-0.2-0.1-0.3-0.2c-0.2-0.1-0.3-0.3-0.5-0.4c-0.1-0.1-0.2-0.1-0.2-0.2c-0.1-0.1-0.3-0.3-0.4-0.4
				c-0.1-0.1-0.1-0.1-0.2-0.2c-0.2-0.2-0.3-0.4-0.4-0.6l0.4,47.7c0.1,0.2,0.2,0.4,0.4,0.6c0,0.1,0.1,0.1,0.2,0.2
				c0.1,0.1,0.2,0.3,0.4,0.4c0.1,0.1,0.1,0.1,0.2,0.2c0.1,0.1,0.3,0.3,0.5,0.4c0.1,0.1,0.2,0.1,0.3,0.2c0.2,0.1,0.4,0.3,0.6,0.4
				c0.1,0,0.1,0.1,0.2,0.1c0.3,0.2,0.6,0.3,1,0.5c0.1,0,0.2,0.1,0.3,0.1c0.3,0.1,0.5,0.2,0.8,0.3c0.1,0.1,0.3,0.1,0.4,0.2
				c0.1,0.1,0.3,0.1,0.4,0.2c0.1,0,0.2,0.1,0.3,0.1c0.4,0.1,0.7,0.2,1.1,0.4c0.1,0,0.2,0.1,0.3,0.1c0.1,0,0.1,0,0.2,0
				c0.3,0.1,0.5,0.1,0.8,0.2c0.2,0,0.4,0.1,0.6,0.1c0.1,0,0.1,0,0.2,0c0.2,0,0.4,0.1,0.6,0.1c0.2,0,0.4,0.1,0.7,0.1
				c0.1,0,0.2,0,0.3,0c0.2,0,0.4,0.1,0.5,0.1c0.2,0,0.3,0.1,0.5,0.1c0.2,0,0.4,0,0.5,0.1c0.2,0,0.3,0,0.5,0.1c0.1,0,0.2,0,0.3,0
				c0.4,0,0.8,0.1,1.2,0.1c0,0,0.1,0,0.1,0c0,0,0,0,0,0c0.4,0,0.9,0.1,1.3,0.1c0.1,0,0.2,0,0.3,0c0.2,0,0.3,0,0.5,0
				c0.2,0,0.4,0,0.6,0c0.2,0,0.5,0,0.7,0c0.1,0,0.3,0,0.4,0c0.1,0,0.1,0,0.2,0c0.5,0,0.9,0,1.4,0c0,0,0,0,0,0c0.1,0,0.2,0,0.3,0
				c0.4,0,0.8,0,1.2,0c0.1,0,0.3,0,0.4,0c0.4,0,0.9-0.1,1.3-0.1c0.1,0,0.1,0,0.2,0c0.7-0.1,1.4-0.1,2.1-0.2c0,0,0,0,0,0
				c0.4-0.1,0.9-0.1,1.3-0.2c0.1,0,0.2,0,0.3,0c0.5-0.1,1-0.2,1.5-0.3c0.1,0,0.3-0.1,0.4-0.1c0.3-0.1,0.7-0.2,1-0.3
				c0.2,0,0.3-0.1,0.5-0.2c0.2-0.1,0.5-0.1,0.7-0.2c0,0,0,0,0.1,0c0.5-0.2,1.1-0.4,1.6-0.6c0,0,0.1,0,0.1-0.1
				c0.3-0.1,0.6-0.3,0.8-0.4c0.1,0,0.2-0.1,0.3-0.1c0.1,0,0.2-0.1,0.2-0.1c0.1-0.1,0.3-0.2,0.4-0.3c0,0,0.1-0.1,0.1-0.1
				c0.1,0,0.1-0.1,0.2-0.2c0.1-0.1,0.2-0.1,0.3-0.2c0,0,0.1-0.1,0.1-0.1c0.1-0.1,0.1-0.1,0.2-0.2c0.1-0.1,0.1-0.1,0.2-0.2
				c0,0,0.1,0,0.1-0.1c0.1-0.1,0.2-0.2,0.2-0.3c0,0,0.1-0.1,0.1-0.1c0,0,0,0,0,0c0.1-0.1,0.2-0.3,0.3-0.4c0,0,0,0,0,0c0,0,0,0,0,0
				c0.1-0.1,0.2-0.3,0.2-0.4c0,0,0,0,0,0c0-0.1,0-0.1,0.1-0.2c0-0.1,0.1-0.2,0.1-0.2c0,0,0,0,0-0.1c0-0.1,0-0.2,0-0.2
				c0-0.1,0-0.1,0-0.2c0,0,0-0.1,0-0.2l-0.4-47.7C534.2,788,534.2,788.1,534.2,788.2z"/>
			<path class="st4" d="M465.6,709.1c1.4-0.7,3.1-1.3,5.3-1.8c6.4-1.4,14.4-1.3,20.6,0.4l118.5,31.8c8.3,2.2,10.3,6.5,4.4,9.5
				c-5.9,3-17.5,3.7-25.8,1.4l-81.9-22l27.3,58.3c0.8,1.8-0.3,3.6-3.1,5.1c-2.9,1.5-7.1,2.4-12,2.7c-10.1,0.6-19.7-2-21.4-5.7
				l-35-74.6C461.6,712.3,462.8,710.5,465.6,709.1z"/>
			<path class="st11" d="M412.3,739.9l0.1,13.2L412.3,739.9c-0.2-0.4-0.2-0.7-0.2-1.1l0.4,47.7c0,0.4,0.1,0.7,0.2,1.1l0,0l32.8,75.8
				l-0.4-47.7L412.3,739.9z"/>
			<path class="st13" d="M482.1,814.8c0,0.1,0,0.2,0,0.2c0,0.1-0.1,0.2-0.1,0.3c0,0.1,0,0.1-0.1,0.2c-0.1,0.2-0.2,0.3-0.3,0.5
				c0,0,0,0.1-0.1,0.1c-0.1,0.1-0.2,0.3-0.3,0.4c0,0.1-0.1,0.1-0.2,0.2c-0.1,0.1-0.2,0.2-0.3,0.3c-0.1,0.1-0.2,0.1-0.2,0.2
				c-0.1,0.1-0.2,0.2-0.3,0.3c-0.1,0.1-0.2,0.2-0.3,0.2c-0.1,0.1-0.2,0.2-0.4,0.2c-0.1,0.1-0.3,0.2-0.5,0.3
				c-0.2,0.1-0.3,0.2-0.5,0.3c-0.3,0.2-0.7,0.3-1,0.5c-0.1,0-0.2,0.1-0.3,0.1c-0.3,0.1-0.6,0.2-0.9,0.3c-0.1,0-0.2,0.1-0.3,0.1
				c-0.3,0.1-0.5,0.2-0.8,0.2c-0.2,0.1-0.4,0.1-0.6,0.2c-0.3,0.1-0.6,0.1-0.8,0.2c-0.2,0.1-0.4,0.1-0.6,0.2
				c-0.3,0.1-0.6,0.1-0.9,0.2c-0.2,0-0.4,0.1-0.7,0.1c-0.3,0.1-0.7,0.1-1,0.2c-0.2,0-0.4,0.1-0.6,0.1c-0.1,0-0.2,0-0.2,0
				c-0.6,0.1-1.2,0.1-1.9,0.2c-0.5,0-0.9,0.1-1.4,0.1c-0.5,0-1,0-1.4,0.1c-0.2,0-0.4,0-0.6,0c-0.6,0-1.1,0-1.7,0c0,0,0,0,0,0
				c-0.5,0-1.1,0-1.6,0c-0.1,0-0.3,0-0.4,0c-0.4,0-0.9-0.1-1.3-0.1c-0.1,0-0.2,0-0.4,0c-0.5,0-1-0.1-1.5-0.2c-0.1,0-0.2,0-0.3,0
				c-0.4-0.1-0.8-0.1-1.2-0.2c-0.2,0-0.3-0.1-0.5-0.1c-0.3-0.1-0.7-0.1-1-0.2c-0.2,0-0.4-0.1-0.5-0.1c-0.5-0.1-0.9-0.2-1.4-0.3
				c-0.2-0.1-0.4-0.1-0.7-0.2c-0.4-0.1-0.8-0.2-1.1-0.3c-0.2-0.1-0.5-0.2-0.7-0.3c-0.1-0.1-0.3-0.1-0.4-0.2
				c-0.3-0.1-0.6-0.3-0.9-0.4c-0.1,0-0.1-0.1-0.2-0.1c-0.3-0.2-0.7-0.3-1-0.5c-0.1,0-0.2-0.1-0.2-0.1c-0.2-0.1-0.4-0.3-0.6-0.4
				c-0.1-0.1-0.2-0.1-0.3-0.2c-0.2-0.1-0.3-0.2-0.4-0.4c-0.1-0.1-0.1-0.1-0.2-0.2c-0.1-0.1-0.2-0.3-0.4-0.4c0-0.1-0.1-0.1-0.1-0.2
				c-0.1-0.2-0.3-0.4-0.4-0.6l0.4,47.7c0.1,0.2,0.2,0.4,0.4,0.6c0,0.1,0.1,0.1,0.1,0.2c0.1,0.1,0.2,0.3,0.4,0.4
				c0.1,0.1,0.1,0.1,0.2,0.2c0.1,0.1,0.3,0.3,0.4,0.4c0.1,0.1,0.2,0.1,0.3,0.2c0.2,0.1,0.4,0.3,0.6,0.4c0.1,0,0.2,0.1,0.2,0.2
				c0.3,0.2,0.6,0.3,0.9,0.5c0.1,0,0.1,0.1,0.2,0.1c0.3,0.1,0.6,0.3,0.9,0.4c0.1,0.1,0.3,0.1,0.4,0.2c0.2,0.1,0.3,0.1,0.5,0.2
				c0.1,0,0.2,0,0.2,0.1c0.4,0.1,0.7,0.2,1.1,0.3c0.1,0,0.2,0.1,0.4,0.1c0.1,0,0.2,0.1,0.3,0.1c0.4,0.1,0.8,0.2,1.2,0.3
				c0.1,0,0.1,0,0.2,0c0.2,0,0.3,0.1,0.5,0.1c0.2,0,0.4,0.1,0.6,0.1c0.1,0,0.3,0,0.4,0.1c0.2,0,0.3,0.1,0.5,0.1c0.1,0,0.3,0,0.4,0.1
				c0.3,0,0.5,0.1,0.8,0.1c0.1,0,0.2,0,0.3,0c0,0,0.1,0,0.1,0c0.4,0.1,0.8,0.1,1.2,0.1c0.1,0,0.1,0,0.2,0c0.1,0,0.2,0,0.4,0
				c0.2,0,0.5,0,0.7,0.1c0.2,0,0.4,0,0.5,0c0.1,0,0.3,0,0.4,0c0.1,0,0.2,0,0.3,0c0.4,0,0.9,0,1.3,0c0,0,0,0,0,0c0,0,0,0,0,0
				c0.5,0,0.9,0,1.4,0c0.1,0,0.2,0,0.2,0c0.2,0,0.4,0,0.6,0c0.2,0,0.5,0,0.7,0c0.2,0,0.5,0,0.7,0c0.4,0,0.8-0.1,1.1-0.1
				c0.1,0,0.2,0,0.3,0c0.6-0.1,1.3-0.1,1.9-0.2c0.1,0,0.1,0,0.2,0c0,0,0,0,0,0c0.2,0,0.4-0.1,0.6-0.1c0.3-0.1,0.7-0.1,1-0.2
				c0.2,0,0.4-0.1,0.7-0.1c0.3-0.1,0.6-0.1,0.9-0.2c0.2-0.1,0.4-0.1,0.6-0.2c0.3-0.1,0.6-0.1,0.8-0.2c0.2-0.1,0.4-0.1,0.6-0.2
				c0.2-0.1,0.4-0.1,0.6-0.2c0,0,0.1,0,0.1,0c0.1,0,0.2-0.1,0.3-0.1c0.3-0.1,0.6-0.2,0.9-0.3c0.1,0,0.2-0.1,0.3-0.1
				c0.1,0,0.1-0.1,0.2-0.1c0.3-0.1,0.6-0.3,0.9-0.4c0.1-0.1,0.2-0.1,0.3-0.2c0.1,0,0.2-0.1,0.2-0.1c0.2-0.1,0.3-0.2,0.5-0.3
				c0.1,0,0.1-0.1,0.2-0.1c0.1,0,0.1-0.1,0.2-0.1c0.1-0.1,0.2-0.2,0.3-0.2c0,0,0.1-0.1,0.1-0.1c0.1-0.1,0.1-0.1,0.2-0.2
				c0.1-0.1,0.2-0.1,0.2-0.2c0,0,0.1-0.1,0.1-0.1c0.1-0.1,0.1-0.2,0.2-0.2c0.1-0.1,0.1-0.1,0.2-0.2c0,0,0,0,0,0
				c0.1-0.1,0.2-0.2,0.3-0.4c0,0,0-0.1,0.1-0.1c0,0,0,0,0,0c0.1-0.2,0.2-0.3,0.2-0.5c0,0,0,0,0,0c0-0.1,0-0.1,0.1-0.2
				c0-0.1,0.1-0.2,0.1-0.3c0,0,0,0,0-0.1c0-0.1,0-0.2,0-0.2c0-0.1,0-0.1,0-0.2c0-0.1,0-0.1,0-0.2l-0.4-47.7
				C482.2,814.6,482.1,814.7,482.1,814.8z"/>
			<path class="st4" d="M415.6,734.7c3-1.5,7.3-2.5,12.2-2.8c10.2-0.6,19.8,1.9,21.4,5.7l32.8,75.8c0.8,1.8-0.4,3.7-3.3,5.2
				c-2.9,1.5-7.2,2.5-12.2,2.8c-4.9,0.3-9.9-0.1-13.9-1.2c-4.1-1.1-6.7-2.7-7.5-4.5l-32.8-75.8C411.5,738,412.6,736.2,415.6,734.7z"
				/>
		</g>
	</g>
</g>
</svg>
