<?xml version="1.0" encoding="utf-8"?>
<!-- Generator: Adobe Illustrator 22.1.0, SVG Export Plug-In . SVG Version: 6.00 Build 0)  -->
<svg version="1.1" id="Layer_1" xmlns="http://www.w3.org/2000/svg" xmlns:xlink="http://www.w3.org/1999/xlink" x="0px" y="0px"
	 viewBox="0 0 1452 1354" style="enable-background:new 0 0 1452 1354;" xml:space="preserve">
<style type="text/css">
	.st0{fill:#2DB8E3;}
	.st1{opacity:0.46;}
	.st2{fill:#00FFFF;}
	.st3{fill:#3840C7;}
	.st4{fill-rule:evenodd;clip-rule:evenodd;fill:#FFFFFF;}
	.st5{fill:none;stroke:#2DB8E3;stroke-width:0.776;stroke-miterlimit:10;stroke-dasharray:2.5867,4.1387;}
	.st6{fill:#FFFFFF;}
	.st7{fill:none;}
	.st8{fill:none;stroke:#2DB8E3;stroke-width:1.2209;stroke-miterlimit:10;stroke-dasharray:4.0697,6.5116;}
	.st9{fill:none;stroke:#2DB8E3;stroke-width:1.5063;stroke-miterlimit:10;stroke-dasharray:5.0211,8.0338;}
	.st10{fill:url(#SVGID_1_);}
	.st11{opacity:0.46;fill:#00FFFF;}
	.st12{fill:none;stroke:#2DB8E3;stroke-width:1.5;stroke-miterlimit:10;stroke-dasharray:5,8;}
	.st13{font-family:'Poppins-Bold';}
	.st14{font-size:26.9451px;}
	.st15{letter-spacing:1;}
	.st16{font-size:26.9893px;}
	.st17{font-family:'Poppins-SemiBold';}
	.st18{font-size:28px;}
	.st19{font-size:27.066px;}
	.st20{font-size:21px;}
	.st21{font-size:41.0534px;}
	.st22{font-size:34px;}
</style>
<g>
	<g>
		<path class="st0" d="M818.6-1126.1l-0.6,0l0-2.1l0.6,0L818.6-1126.1z M818.6-1131.6l-0.6,0l0-2.1l0.6,0L818.6-1131.6z M818.7-1137
			l-0.6,0l0-2.1l0.6,0L818.7-1137z M818.7-1142.5l-0.6,0l0-2.1l0.6,0L818.7-1142.5z M818.7-1148l-0.6,0l0-2.1l0.6,0L818.7-1148z
			 M818.7-1153.5l-0.6,0l0-2.1l0.6,0L818.7-1153.5z M818.7-1158.9l-0.6,0l0-2.1l0.6,0L818.7-1158.9z M818.7-1164.4l-0.6,0l0-2.1
			l0.6,0L818.7-1164.4z M818.8-1169.9l-0.6,0l0-2.1l0.6,0L818.8-1169.9z M818.8-1175.4l-0.6,0l0-2.1l0.6,0L818.8-1175.4z
			 M818.8-1180.8l-0.6,0l0-2.1l0.6,0L818.8-1180.8z M818.8-1186.3l-0.6,0l0-2.1l0.6,0L818.8-1186.3z M818.8-1191.8l-0.6,0l0-2.1
			l0.6,0L818.8-1191.8z"/>
	</g>
	<g>
		<path class="st0" d="M836.1-1129.9l-0.8,0l0-2.6l0.8,0L836.1-1129.9z M836.2-1136.7l-0.8,0l0-2.6l0.8,0L836.2-1136.7z
			 M836.2-1143.4l-0.8,0l0-2.6l0.8,0L836.2-1143.4z M836.2-1150.2l-0.8,0l0-2.6l0.8,0L836.2-1150.2z M836.3-1156.9l-0.8,0l0-2.6
			l0.8,0L836.3-1156.9z M836.3-1163.7l-0.8,0l0-2.6l0.8,0L836.3-1163.7z M836.3-1170.4l-0.8,0l0-2.6l0.8,0L836.3-1170.4z
			 M836.4-1177.2l-0.8,0l0-2.6l0.8,0L836.4-1177.2z M836.4-1183.9l-0.8,0l0-2.6l0.8,0L836.4-1183.9z M836.4-1190.7l-0.8,0l0-2.6
			l0.8,0L836.4-1190.7z M836.5-1197.4l-0.8,0l0-2.6l0.8,0L836.5-1197.4z M836.5-1204.2l-0.8,0l0-2.6l0.8,0L836.5-1204.2z
			 M836.5-1210.9l-0.8,0l0-2.6l0.8,0L836.5-1210.9z"/>
	</g>
	<g>
		<g>
			<g class="st1">
				<path class="st2" d="M894.2-1107.2h-27.9c-3.5,0-6.8,1.9-8.5,4.9l-13.9,24.1c-1.8,3-1.8,6.8,0,9.9l13.9,24.1
					c1.8,3,5,4.9,8.5,4.9h27.9c3.5,0,6.8-1.9,8.5-4.9l13.9-24.1c1.8-3,1.8-6.8,0-9.9l-13.9-24.1
					C901-1105.3,897.8-1107.2,894.2-1107.2z"/>
			</g>
			<g>
				<path class="st2" d="M892.9-1103.9h-25.2c-3.2,0-6.1,1.7-7.7,4.4l-12.6,21.8c-1.6,2.8-1.6,6.1,0,8.9l12.6,21.8
					c1.6,2.8,4.5,4.4,7.7,4.4h25.2c3.2,0,6.1-1.7,7.7-4.4l12.6-21.8c1.6-2.8,1.6-6.1,0-8.9l-12.6-21.8
					C899-1102.2,896.1-1103.9,892.9-1103.9z"/>
			</g>
			<g>
				<path class="st3" d="M891.3-1099.9h-21.9c-2.8,0-5.3,1.5-6.7,3.9l-11,19c-1.4,2.4-1.4,5.4,0,7.7l11,19c1.4,2.4,3.9,3.9,6.7,3.9
					h21.9c2.8,0,5.3-1.5,6.7-3.9l11-19c1.4-2.4,1.4-5.4,0-7.7l-11-19C896.6-1098.4,894-1099.9,891.3-1099.9z"/>
			</g>
		</g>
		<g>
			<g>
				<path class="st4" d="M883.1-1084.7c-0.4-0.4-0.9-0.6-1.4-0.6h0c-0.5,0-1,0.2-1.4,0.6l-15.3,15.8c-0.4,0.4-0.6,0.9-0.6,1.4
					c0,0.5,0.2,1,0.6,1.4c0.4,0.4,0.9,0.6,1.4,0.6c0.5,0,1-0.2,1.4-0.6l15.3-15.8C883.9-1082.6,883.9-1083.9,883.1-1084.7"/>
			</g>
			<g>
				<path class="st4" d="M891.4-1085.1c-0.7-0.3-1.5-0.1-2.1,0.4l-14.9,15.8c-0.7,0.8-0.7,2.1,0,2.8c0.4,0.4,0.8,0.6,1.4,0.6h0
					c0.5,0,1-0.2,1.4-0.6l11.7-12.3v10.9c0,1.1,0.9,2,1.9,2c1.1,0,1.9-0.9,1.9-2v-15.7C892.6-1084.1,892.1-1084.8,891.4-1085.1"/>
			</g>
		</g>
	</g>
	<g>
		<path class="st0" d="M749.1-1320.8l-2.2-1.3l0.4-0.7l2.2,1.3L749.1-1320.8z M743.4-1324.3l-2.2-1.3l0.4-0.7l2.2,1.3L743.4-1324.3z
			 M737.6-1327.7l-2.2-1.3l0.4-0.7l2.2,1.3L737.6-1327.7z M731.8-1331.2l-2.2-1.3l0.4-0.7l2.2,1.3L731.8-1331.2z M726.1-1334.6
			l-2.2-1.3l0.4-0.7l2.2,1.3L726.1-1334.6z M720.3-1338.1l-2.2-1.3l0.4-0.7l2.2,1.3L720.3-1338.1z M714.5-1341.5l-2.2-1.3l0.4-0.7
			l2.2,1.3L714.5-1341.5z M708.7-1345l-2.2-1.3l0.4-0.7l2.2,1.3L708.7-1345z M703-1348.4l-2.2-1.3l0.4-0.7l2.2,1.3L703-1348.4z
			 M697.2-1351.9l-2.2-1.3l0.4-0.7l2.2,1.3L697.2-1351.9z M691.4-1355.3l-2.2-1.3l0.4-0.7l2.2,1.3L691.4-1355.3z M685.6-1358.8
			l-2.2-1.3l0.4-0.7l2.2,1.3L685.6-1358.8z M679.9-1362.2l-2.2-1.3l0.4-0.7l2.2,1.3L679.9-1362.2z M674.1-1365.7l-2.2-1.3l0.4-0.7
			l2.2,1.3L674.1-1365.7z"/>
	</g>
	<g>
		<g>
			<path class="st0" d="M680.8-1188.5l-0.4-0.7l2.2-1.3l0.4,0.7L680.8-1188.5z M686.6-1191.9l-0.4-0.7l2.2-1.3l0.4,0.7L686.6-1191.9
				z M692.4-1195.4l-0.4-0.7l2.2-1.3l0.4,0.7L692.4-1195.4z M698.2-1198.8l-0.4-0.7l2.2-1.3l0.4,0.7L698.2-1198.8z M703.9-1202.2
				l-0.4-0.7l2.2-1.3l0.4,0.7L703.9-1202.2z M709.7-1205.6l-0.4-0.7l2.2-1.3l0.4,0.7L709.7-1205.6z M715.5-1209.1l-0.4-0.7l2.2-1.3
				l0.4,0.7L715.5-1209.1z M721.3-1212.5l-0.4-0.7l2.2-1.3l0.4,0.7L721.3-1212.5z M727.1-1215.9l-0.4-0.7l2.2-1.3l0.4,0.7
				L727.1-1215.9z M732.9-1219.4l-0.4-0.7l2.2-1.3l0.4,0.7L732.9-1219.4z M738.7-1222.8l-0.4-0.7l2.2-1.3l0.4,0.7L738.7-1222.8z
				 M744.4-1226.2l-0.4-0.7l2.2-1.3l0.4,0.7L744.4-1226.2z M750.2-1229.6l-0.4-0.7l2.2-1.3l0.4,0.7L750.2-1229.6z M756-1233.1
				l-0.4-0.7l2.2-1.3l0.4,0.7L756-1233.1z M761.8-1236.5l-0.4-0.7l2.2-1.3l0.4,0.7L761.8-1236.5z"/>
		</g>
		<g>
			<path class="st0" d="M663.6-1197l-0.4-0.7l2.2-1.3l0.4,0.7L663.6-1197z M669.4-1200.4l-0.4-0.7l2.2-1.3l0.4,0.7L669.4-1200.4z
				 M675.2-1203.8l-0.4-0.7l2.2-1.3l0.4,0.7L675.2-1203.8z M680.9-1207.3l-0.4-0.7l2.2-1.3l0.4,0.7L680.9-1207.3z M686.7-1210.7
				l-0.4-0.7l2.2-1.3l0.4,0.7L686.7-1210.7z M692.5-1214.1l-0.4-0.7l2.2-1.3l0.4,0.7L692.5-1214.1z M698.3-1217.6l-0.4-0.7l2.2-1.3
				l0.4,0.7L698.3-1217.6z M704.1-1221l-0.4-0.7l2.2-1.3l0.4,0.7L704.1-1221z M709.9-1224.4l-0.4-0.7l2.2-1.3l0.4,0.7L709.9-1224.4z
				 M715.7-1227.9l-0.4-0.7l2.2-1.3l0.4,0.7L715.7-1227.9z M721.4-1231.3l-0.4-0.7l2.2-1.3l0.4,0.7L721.4-1231.3z M727.2-1234.7
				l-0.4-0.7l2.2-1.3l0.4,0.7L727.2-1234.7z M733-1238.1l-0.4-0.7l2.2-1.3l0.4,0.7L733-1238.1z M738.8-1241.6l-0.4-0.7l2.2-1.3
				l0.4,0.7L738.8-1241.6z M744.6-1245l-0.4-0.7l2.2-1.3l0.4,0.7L744.6-1245z"/>
		</g>
	</g>
	<g>
		<g>
			<path class="st0" d="M985.8-1179.8l-2.2-1.3l0.4-0.7l2.2,1.3L985.8-1179.8z M980-1183.2l-2.2-1.3l0.4-0.7l2.2,1.3L980-1183.2z
				 M974.2-1186.7l-2.2-1.3l0.4-0.7l2.2,1.3L974.2-1186.7z M968.4-1190.1l-2.2-1.3l0.4-0.7l2.2,1.3L968.4-1190.1z M962.7-1193.6
				l-2.2-1.3l0.4-0.7l2.2,1.3L962.7-1193.6z M956.9-1197l-2.2-1.3l0.4-0.7l2.2,1.3L956.9-1197z M951.1-1200.5l-2.2-1.3l0.4-0.7
				l2.2,1.3L951.1-1200.5z M945.4-1203.9l-2.2-1.3l0.4-0.7l2.2,1.3L945.4-1203.9z M939.6-1207.4l-2.2-1.3l0.4-0.7l2.2,1.3
				L939.6-1207.4z M933.8-1210.8l-2.2-1.3l0.4-0.7l2.2,1.3L933.8-1210.8z M928-1214.3l-2.2-1.3l0.4-0.7l2.2,1.3L928-1214.3z
				 M922.3-1217.7l-2.2-1.3l0.4-0.7l2.2,1.3L922.3-1217.7z M916.5-1221.2l-2.2-1.3l0.4-0.7l2.2,1.3L916.5-1221.2z M910.7-1224.6
				l-2.2-1.3l0.4-0.7l2.2,1.3L910.7-1224.6z M904.9-1228.1l-2.2-1.3l0.4-0.7l2.2,1.3L904.9-1228.1z M899.2-1231.5l-2.2-1.3l0.4-0.7
				l2.2,1.3L899.2-1231.5z"/>
		</g>
		<g>
			<path class="st0" d="M984.5-1199.7l-2.2-1.3l0.4-0.7l2.2,1.3L984.5-1199.7z M978.7-1203.1l-2.2-1.3l0.4-0.7l2.2,1.3L978.7-1203.1
				z M972.9-1206.5l-2.2-1.3l0.4-0.7l2.2,1.3L972.9-1206.5z M967.1-1209.9l-2.2-1.3l0.4-0.7l2.2,1.3L967.1-1209.9z M961.3-1213.4
				l-2.2-1.3l0.4-0.7l2.2,1.3L961.3-1213.4z M955.5-1216.8l-2.2-1.3l0.4-0.7l2.2,1.3L955.5-1216.8z M949.7-1220.2l-2.2-1.3l0.4-0.7
				l2.2,1.3L949.7-1220.2z M943.9-1223.6l-2.2-1.3l0.4-0.7l2.2,1.3L943.9-1223.6z M938.2-1227.1l-2.2-1.3l0.4-0.7l2.2,1.3
				L938.2-1227.1z M932.4-1230.5l-2.2-1.3l0.4-0.7l2.2,1.3L932.4-1230.5z M926.6-1233.9l-2.2-1.3l0.4-0.7l2.2,1.3L926.6-1233.9z
				 M920.8-1237.3l-2.2-1.3l0.4-0.7l2.2,1.3L920.8-1237.3z M915-1240.8l-2.2-1.3l0.4-0.7l2.2,1.3L915-1240.8z M909.2-1244.2
				l-2.2-1.3l0.4-0.7l2.2,1.3L909.2-1244.2z M903.4-1247.6l-2.2-1.3l0.4-0.7l2.2,1.3L903.4-1247.6z M897.6-1251l-2.2-1.3l0.4-0.7
				l2.2,1.3L897.6-1251z"/>
		</g>
	</g>
	<g>
		<g>
			<path class="st0" d="M884.4-1324.7l-0.4-0.7l2.2-1.3l0.4,0.7L884.4-1324.7z M890.2-1328.2l-0.4-0.7l2.2-1.3l0.4,0.7L890.2-1328.2
				z M896-1331.6l-0.4-0.7l2.2-1.3l0.4,0.7L896-1331.6z M901.8-1335l-0.4-0.7l2.2-1.3l0.4,0.7L901.8-1335z M907.5-1338.5l-0.4-0.7
				l2.2-1.3l0.4,0.7L907.5-1338.5z M913.3-1341.9l-0.4-0.7l2.2-1.3l0.4,0.7L913.3-1341.9z M919.1-1345.4l-0.4-0.7l2.2-1.3l0.4,0.7
				L919.1-1345.4z M924.9-1348.8l-0.4-0.7l2.2-1.3l0.4,0.7L924.9-1348.8z M930.6-1352.3l-0.4-0.7l2.2-1.3l0.4,0.7L930.6-1352.3z
				 M936.4-1355.7l-0.4-0.7l2.2-1.3l0.4,0.7L936.4-1355.7z M942.2-1359.2l-0.4-0.7l2.2-1.3l0.4,0.7L942.2-1359.2z M948-1362.6
				l-0.4-0.7l2.2-1.3l0.4,0.7L948-1362.6z M953.8-1366.1l-0.4-0.7l2.2-1.3l0.4,0.7L953.8-1366.1z M959.5-1369.5l-0.4-0.7l2.2-1.3
				l0.4,0.7L959.5-1369.5z M965.3-1373l-0.4-0.7l2.2-1.3l0.4,0.7L965.3-1373z M971.1-1376.4l-0.4-0.7l1.9-1.1l0.4,0.7L971.1-1376.4z
				"/>
		</g>
		<g>
			<path class="st0" d="M904.1-1317.7l-0.4-0.7l2.2-1.3l0.4,0.7L904.1-1317.7z M909.9-1321.1l-0.4-0.7l2.2-1.3l0.4,0.7L909.9-1321.1
				z M915.6-1324.6l-0.4-0.7l2.2-1.3l0.4,0.7L915.6-1324.6z M921.4-1328l-0.4-0.7l2.2-1.3l0.4,0.7L921.4-1328z M927.2-1331.4
				l-0.4-0.7l2.2-1.3l0.4,0.7L927.2-1331.4z M933-1334.9l-0.4-0.7l2.2-1.3l0.4,0.7L933-1334.9z M938.8-1338.3l-0.4-0.7l2.2-1.3
				l0.4,0.7L938.8-1338.3z M944.6-1341.7l-0.4-0.7l2.2-1.3l0.4,0.7L944.6-1341.7z M950.3-1345.2l-0.4-0.7l2.2-1.3l0.4,0.7
				L950.3-1345.2z M956.1-1348.6l-0.4-0.7l2.2-1.3l0.4,0.7L956.1-1348.6z M961.9-1352l-0.4-0.7l2.2-1.3l0.4,0.7L961.9-1352z
				 M967.7-1355.5l-0.4-0.7l2.2-1.3l0.4,0.7L967.7-1355.5z M973.5-1358.9l-0.4-0.7l2.2-1.3l0.4,0.7L973.5-1358.9z M979.3-1362.3
				l-0.4-0.7l1.5-0.9l0.4,0.7L979.3-1362.3z"/>
		</g>
	</g>
	<g>
		<g>
			<path class="st0" d="M833.9-1357.9l0-2.6l0.8,0l0,2.6L833.9-1357.9z M833.8-1364.6l0-2.6l0.8,0l0,2.6L833.8-1364.6z
				 M833.7-1371.3l0-2.6l0.8,0l0,2.6L833.7-1371.3z M833.6-1378.1l0-2.6l0.8,0l0,2.6L833.6-1378.1z M833.5-1384.8l0-2.6l0.8,0l0,2.6
				L833.5-1384.8z M833.4-1391.5l0-2.6l0.8,0l0,2.6L833.4-1391.5z M833.2-1398.2l0-2.6l0.8,0l0,2.6L833.2-1398.2z M833.1-1405l0-2.6
				l0.8,0l0,2.6L833.1-1405z M833-1411.7l0-2.6l0.8,0l0,2.6L833-1411.7z M832.9-1418.4l0-2.6l0.8,0l0,2.6L832.9-1418.4z
				 M832.8-1425.1l0-2.6l0.8,0l0,2.6L832.8-1425.1z M832.7-1431.9l0-2.6l0.8,0l0,2.6L832.7-1431.9z M832.5-1438.6l0-2.6l0.8,0l0,2.6
				L832.5-1438.6z M832.4-1445.3l0-2.6l0.8,0l0,2.6L832.4-1445.3z M832.3-1452l0-2.6l0.8,0l0,2.6L832.3-1452z"/>
		</g>
		<g>
			<path class="st0" d="M817.6-1370.8l0-2.1l0.8,0l0,2.1L817.6-1370.8z M817.5-1377l0-2.6l0.8,0l0,2.6L817.5-1377z M817.4-1383.8
				l0-2.6l0.8,0l0,2.6L817.4-1383.8z M817.3-1390.5l0-2.6l0.8,0l0,2.6L817.3-1390.5z M817.2-1397.2l0-2.6l0.8,0l0,2.6L817.2-1397.2z
				 M817.1-1403.9l0-2.6l0.8,0l0,2.6L817.1-1403.9z M817-1410.7l0-2.6l0.8,0l0,2.6L817-1410.7z M816.9-1417.4l0-2.6l0.8,0l0,2.6
				L816.9-1417.4z M816.8-1424.1l0-2.6l0.8,0l0,2.6L816.8-1424.1z M816.7-1430.8l0-2.6l0.8,0l0,2.6L816.7-1430.8z M816.6-1437.6
				l0-2.6l0.8,0l0,2.6L816.6-1437.6z M816.5-1444.3l0-2.6l0.8,0l0,2.6L816.5-1444.3z M816.4-1451l0-2.6l0.8,0l0,2.6L816.4-1451z
				 M816.3-1457.7l0-2.6l0.8,0l0,2.6L816.3-1457.7z M816.2-1464.4l0-2.6l0.8,0l0,2.6L816.2-1464.4z"/>
		</g>
	</g>
	<g>
		<g>
			<path class="st0" d="M860.2-1104.6l-1.2-0.9l0.5-0.6l1.2,0.9L860.2-1104.6z M855.7-1107.9l-2.1-1.5l0.5-0.6l2.1,1.5L855.7-1107.9
				z M850.3-1111.9l-2.1-1.5l0.5-0.6l2.1,1.5L850.3-1111.9z M844.9-1115.9l-2.1-1.5l0.5-0.6l2.1,1.5L844.9-1115.9z M839.5-1119.9
				l-2.1-1.5l0.5-0.6l2.1,1.5L839.5-1119.9z M834.1-1123.9l-2.1-1.5l0.5-0.6l2.1,1.5L834.1-1123.9z M828.6-1127.9l-2.1-1.5l0.5-0.6
				l2.1,1.5L828.6-1127.9z"/>
		</g>
		<g>
			<path class="st5" d="M827.4-1213"/>
		</g>
		<g>
			<path class="st0" d="M792.8-1103.4l-0.5-0.6l2.1-1.6l0.5,0.6L792.8-1103.4z M798.2-1107.4l-0.5-0.6l2.1-1.6l0.5,0.6L798.2-1107.4
				z M803.6-1111.5l-0.5-0.6l2.1-1.6l0.5,0.6L803.6-1111.5z M808.9-1115.6l-0.5-0.6l2.1-1.6l0.5,0.6L808.9-1115.6z M814.3-1119.6
				l-0.5-0.6l2.1-1.6l0.5,0.6L814.3-1119.6z M819.6-1123.7l-0.5-0.6l2.1-1.6l0.5,0.6L819.6-1123.7z M825-1127.8l-0.5-0.6l2.1-1.6
				l0.5,0.6L825-1127.8z"/>
		</g>
	</g>
	<g>
		<g>
			<g class="st1">
				<path class="st2" d="M648.4-1220.3h-47.3c-6,0-11.5,3.2-14.5,8.4l-23.6,41c-3,5.2-3,11.5,0,16.7l23.6,41c3,5.2,8.5,8.4,14.5,8.4
					h47.3c6,0,11.5-3.2,14.5-8.4l23.6-41c3-5.2,3-11.5,0-16.7l-23.6-41C659.9-1217.1,654.4-1220.3,648.4-1220.3z"/>
			</g>
			<g>
				<path class="st2" d="M645.2-1212.4h-40.8c-5.2,0-9.9,2.8-12.5,7.2l-20.4,35.4c-2.6,4.5-2.6,10,0,14.4l20.4,35.4
					c2.6,4.5,7.3,7.2,12.5,7.2h40.8c5.2,0,9.9-2.8,12.5-7.2l20.4-35.4c2.6-4.5,2.6-10,0-14.4l-20.4-35.4
					C655.1-1209.6,650.4-1212.4,645.2-1212.4z"/>
			</g>
		</g>
		<g>
			<path class="st3" d="M609-1159.7c-0.4,0.7-1,1.3-1.8,1.7c-0.8,0.4-1.7,0.6-2.7,0.6h-3.7v-9.9h3.7c1.1,0,2,0.2,2.7,0.6
				c0.8,0.4,1.4,1,1.8,1.7c0.4,0.7,0.6,1.6,0.6,2.6S609.4-1160.5,609-1159.7z M606.4-1160.2c0.5-0.5,0.8-1.2,0.8-2.1
				s-0.3-1.6-0.8-2.1c-0.5-0.5-1.2-0.7-2.2-0.7h-1.1v5.6h1.1C605.2-1159.5,605.9-1159.7,606.4-1160.2z"/>
			<path class="st3" d="M617.8-1159.2h-3.7l-0.6,1.8h-2.5l3.6-9.8h2.7l3.6,9.8h-2.5L617.8-1159.2z M617.1-1161l-1.2-3.6l-1.2,3.6
				H617.1z"/>
			<path class="st3" d="M629.1-1164.8c0.5,0.3,0.9,0.8,1.2,1.4c0.3,0.6,0.4,1.3,0.4,2.1c0,0.8-0.1,1.5-0.4,2.1
				c-0.3,0.6-0.7,1.1-1.2,1.4c-0.5,0.3-1.1,0.5-1.7,0.5c-0.6,0-1.1-0.1-1.5-0.4c-0.4-0.3-0.7-0.6-0.9-1.1v5.1h-2.4v-11.5h2.4v1.4
				c0.2-0.5,0.5-0.8,0.9-1.1c0.4-0.3,0.9-0.4,1.5-0.4C628-1165.2,628.6-1165.1,629.1-1164.8z M625.4-1162.6
				c-0.3,0.3-0.5,0.8-0.5,1.4c0,0.6,0.2,1,0.5,1.4c0.3,0.3,0.7,0.5,1.2,0.5c0.5,0,0.9-0.2,1.2-0.5c0.3-0.3,0.5-0.8,0.5-1.4
				c0-0.6-0.2-1.1-0.5-1.4c-0.3-0.3-0.7-0.5-1.2-0.5C626.1-1163.1,625.7-1163,625.4-1162.6z"/>
			<path class="st3" d="M639.2-1164.8c0.5,0.3,0.9,0.8,1.2,1.4c0.3,0.6,0.4,1.3,0.4,2.1c0,0.8-0.1,1.5-0.4,2.1
				c-0.3,0.6-0.7,1.1-1.2,1.4c-0.5,0.3-1.1,0.5-1.7,0.5c-0.6,0-1.1-0.1-1.5-0.4c-0.4-0.3-0.7-0.6-0.9-1.1v5.1h-2.4v-11.5h2.4v1.4
				c0.2-0.5,0.5-0.8,0.9-1.1c0.4-0.3,0.9-0.4,1.5-0.4C638.2-1165.2,638.7-1165.1,639.2-1164.8z M635.5-1162.6
				c-0.3,0.3-0.5,0.8-0.5,1.4c0,0.6,0.2,1,0.5,1.4c0.3,0.3,0.7,0.5,1.2,0.5c0.5,0,0.9-0.2,1.2-0.5c0.3-0.3,0.5-0.8,0.5-1.4
				c0-0.6-0.2-1.1-0.5-1.4c-0.3-0.3-0.7-0.5-1.2-0.5C636.3-1163.1,635.8-1163,635.5-1162.6z"/>
			<path class="st3" d="M648-1164.5c0.6,0.5,1,1.1,1.1,2h-2.2c-0.1-0.3-0.2-0.6-0.4-0.7c-0.2-0.2-0.5-0.3-0.9-0.3
				c-0.3,0-0.5,0.1-0.6,0.2c-0.1,0.1-0.2,0.3-0.2,0.5c0,0.2,0.1,0.4,0.4,0.5c0.3,0.1,0.7,0.2,1.2,0.4c0.6,0.1,1.1,0.3,1.5,0.4
				c0.4,0.1,0.7,0.4,1,0.7c0.3,0.3,0.4,0.8,0.4,1.3c0,0.4-0.1,0.8-0.4,1.2c-0.2,0.3-0.6,0.6-1,0.8c-0.5,0.2-1,0.3-1.6,0.3
				c-1.1,0-1.9-0.2-2.5-0.7c-0.6-0.5-1-1.1-1.2-2h2.3c0,0.3,0.2,0.6,0.4,0.8c0.2,0.2,0.6,0.3,1,0.3c0.3,0,0.5-0.1,0.6-0.2
				c0.1-0.1,0.2-0.3,0.2-0.5c0-0.3-0.1-0.5-0.4-0.6c-0.3-0.1-0.7-0.2-1.2-0.4c-0.6-0.1-1-0.3-1.4-0.4s-0.7-0.4-1-0.7
				c-0.3-0.3-0.4-0.7-0.4-1.3c0-0.7,0.3-1.3,0.8-1.7c0.5-0.4,1.3-0.6,2.2-0.6C646.6-1165.2,647.4-1165,648-1164.5z"/>
		</g>
	</g>
	<g>
		<g>
			<g class="st1">
				<path class="st2" d="M1052.8-1220.1h-47.4c-6,0-11.5,3.2-14.5,8.4l-23.7,41c-3,5.2-3,11.6,0,16.7l23.7,41
					c3,5.2,8.5,8.4,14.5,8.4h47.4c6,0,11.5-3.2,14.5-8.4l23.7-41c3-5.2,3-11.6,0-16.7l-23.7-41
					C1064.3-1216.9,1058.8-1220.1,1052.8-1220.1z"/>
			</g>
			<g>
				<path class="st2" d="M1049.1-1211.1h-40c-5.1,0-9.7,2.7-12.3,7.1l-20,34.7c-2.5,4.4-2.5,9.8,0,14.1l20,34.7
					c2.5,4.4,7.2,7.1,12.3,7.1h40c5.1,0,9.7-2.7,12.3-7.1l20-34.7c2.5-4.4,2.5-9.8,0-14.1l-20-34.7
					C1058.8-1208.4,1054.2-1211.1,1049.1-1211.1z"/>
			</g>
		</g>
		<g>
			<path class="st3" d="M1004.3-1167.2l2.4,7.4l2.4-7.4h2.6l-3.4,9.9h-3.1l-3.4-9.9H1004.3z"/>
			<path class="st3" d="M1015.7-1167.2v9.9h-2.4v-9.9H1015.7z"/>
			<path class="st3" d="M1020.5-1165.3v2.1h3.3v1.8h-3.3v2.2h3.8v1.9h-6.1v-9.9h6.1v1.9H1020.5z"/>
			<path class="st3" d="M1039.7-1167.2l-2.4,9.9h-3l-1.6-6.6l-1.6,6.6h-3l-2.4-9.9h2.6l1.3,7.1l1.7-7.1h2.6l1.7,7.1l1.3-7.1H1039.7z
				"/>
			<path class="st3" d="M1044-1165.3v2.1h3.3v1.8h-3.3v2.2h3.8v1.9h-6.1v-9.9h6.1v1.9H1044z"/>
			<path class="st3" d="M1054.9-1157.3l-2.1-3.7h-0.5v3.7h-2.4v-9.9h4.1c0.8,0,1.4,0.1,2,0.4c0.5,0.3,0.9,0.6,1.2,1.1
				c0.3,0.5,0.4,1,0.4,1.6c0,0.7-0.2,1.3-0.6,1.8c-0.4,0.5-1,0.8-1.7,1l2.3,3.9H1054.9z M1052.2-1162.7h1.5c0.5,0,0.8-0.1,1-0.3
				c0.2-0.2,0.3-0.5,0.3-0.9c0-0.4-0.1-0.7-0.3-0.9c-0.2-0.2-0.6-0.3-1-0.3h-1.5V-1162.7z"/>
		</g>
	</g>
	<g>
		<g>
			<g>
				<path class="st2" d="M647.8-1455.7h-49.2c-6.2,0-11.9,3.3-15,8.7l-24.6,42.6c-3.1,5.4-3.1,12,0,17.4l24.6,42.6
					c3.1,5.4,8.8,8.7,15,8.7h49.2c6.2,0,11.9-3.3,15-8.7l24.6-42.6c3.1-5.4,3.1-12,0-17.4l-24.6-42.6
					C659.7-1452.3,654-1455.7,647.8-1455.7z"/>
			</g>
			<g>
				<path class="st3" d="M646.3-1452.1h-46.2c-5.8,0-11.2,3.1-14.1,8.2l-23.1,40c-2.9,5.1-2.9,11.3,0,16.3l23.1,40
					c2.9,5.1,8.3,8.2,14.1,8.2h46.2c5.8,0,11.2-3.1,14.1-8.2l23.1-40c2.9-5.1,2.9-11.3,0-16.3l-23.1-40
					C657.6-1448.9,652.2-1452.1,646.3-1452.1z"/>
			</g>
		</g>
		<g>
			<path class="st6" d="M606.3-1409.1c0.4,0.5,0.6,1,0.6,1.6c0,0.9-0.3,1.5-0.9,2c-0.6,0.5-1.4,0.7-2.5,0.7h-4.4v-10.2h4.3
				c1,0,1.8,0.2,2.4,0.7c0.6,0.5,0.8,1.1,0.8,1.9c0,0.6-0.2,1.2-0.5,1.6c-0.3,0.4-0.8,0.7-1.3,0.8
				C605.5-1409.8,606-1409.5,606.3-1409.1z M601.2-1410.6h1.8c0.5,0,0.9-0.1,1.2-0.3c0.3-0.2,0.4-0.6,0.4-1c0-0.4-0.1-0.8-0.4-1
				c-0.3-0.2-0.7-0.3-1.2-0.3h-1.8V-1410.6z M604.4-1406.7c0.3-0.2,0.4-0.6,0.4-1c0-0.5-0.1-0.8-0.4-1.1c-0.3-0.2-0.7-0.4-1.3-0.4
				h-1.9v2.8h1.9C603.7-1406.3,604.1-1406.5,604.4-1406.7z"/>
			<path class="st6" d="M611.1-1406.2h3.4v1.6H609v-10.2h2V-1406.2z"/>
			<path class="st6" d="M623.9-1414.4c0.8,0.4,1.4,1.1,1.8,1.9c0.4,0.8,0.7,1.7,0.7,2.7c0,1-0.2,1.9-0.7,2.7
				c-0.4,0.8-1.1,1.4-1.8,1.9c-0.8,0.4-1.6,0.7-2.6,0.7c-1,0-1.8-0.2-2.6-0.7c-0.8-0.4-1.4-1.1-1.8-1.9c-0.4-0.8-0.7-1.7-0.7-2.7
				c0-1,0.2-1.9,0.7-2.7c0.4-0.8,1.1-1.4,1.8-1.9c0.8-0.4,1.6-0.7,2.6-0.7C622.2-1415,623.1-1414.8,623.9-1414.4z M619.7-1412.8
				c-0.5,0.3-0.8,0.7-1.1,1.2c-0.3,0.5-0.4,1.1-0.4,1.8c0,0.7,0.1,1.3,0.4,1.8c0.3,0.5,0.6,0.9,1.1,1.2c0.5,0.3,1,0.4,1.6,0.4
				c0.6,0,1.1-0.1,1.6-0.4c0.5-0.3,0.8-0.7,1.1-1.2c0.3-0.5,0.4-1.1,0.4-1.8c0-0.7-0.1-1.3-0.4-1.8c-0.3-0.5-0.6-0.9-1.1-1.2
				c-0.5-0.3-1-0.4-1.6-0.4C620.7-1413.2,620.1-1413,619.7-1412.8z"/>
			<path class="st6" d="M636.4-1414c0.8,0.7,1.4,1.5,1.7,2.7h-2.1c-0.2-0.6-0.6-1-1-1.3c-0.5-0.3-1-0.5-1.7-0.5
				c-0.5,0-1,0.1-1.5,0.4c-0.4,0.3-0.8,0.7-1,1.2c-0.2,0.5-0.4,1.1-0.4,1.8c0,0.7,0.1,1.3,0.4,1.8c0.2,0.5,0.6,0.9,1,1.2
				c0.4,0.3,0.9,0.4,1.5,0.4c0.7,0,1.2-0.2,1.7-0.5c0.5-0.3,0.8-0.8,1-1.3h2.1c-0.3,1.1-0.8,2-1.7,2.7c-0.8,0.7-1.9,1-3.2,1
				c-1,0-1.8-0.2-2.6-0.7c-0.7-0.4-1.3-1.1-1.7-1.8c-0.4-0.8-0.6-1.7-0.6-2.7c0-1,0.2-1.9,0.6-2.7c0.4-0.8,1-1.4,1.7-1.8
				c0.7-0.4,1.6-0.7,2.6-0.7C634.5-1415,635.6-1414.7,636.4-1414z"/>
			<path class="st6" d="M644.3-1409.9l4.3,5.2h-2.5l-3.8-4.7v4.7h-2v-10.2h2v4.6l3.8-4.6h2.5L644.3-1409.9z"/>
			<path class="st6" d="M585.5-1384.7v3.8h-2v-10.2h3.7c1.2,0,2.1,0.3,2.7,0.9c0.6,0.6,0.9,1.4,0.9,2.4c0,1-0.3,1.8-0.9,2.3
				c-0.6,0.6-1.5,0.9-2.7,0.9H585.5z M588.7-1387.9c0-0.5-0.1-0.9-0.4-1.2c-0.3-0.3-0.7-0.4-1.4-0.4h-1.5v3.1h1.5
				C588.1-1386.3,588.7-1386.8,588.7-1387.9z"/>
			<path class="st6" d="M598.2-1380.9l-2.4-4h-0.9v4h-2v-10.2h3.9c1.2,0,2.1,0.3,2.7,0.9c0.6,0.6,0.9,1.3,0.9,2.3
				c0,0.8-0.2,1.4-0.6,1.9c-0.4,0.5-1.1,0.9-1.9,1l2.5,4.1H598.2z M594.9-1386.3h1.7c1.2,0,1.8-0.5,1.8-1.6c0-0.5-0.1-0.9-0.4-1.2
				c-0.3-0.3-0.7-0.4-1.3-0.4h-1.7V-1386.3z"/>
			<path class="st6" d="M609.9-1390.6c0.8,0.4,1.4,1.1,1.8,1.9c0.4,0.8,0.7,1.7,0.7,2.7c0,1-0.2,1.9-0.7,2.7
				c-0.4,0.8-1.1,1.4-1.8,1.9c-0.8,0.4-1.6,0.7-2.6,0.7c-1,0-1.8-0.2-2.6-0.7s-1.4-1.1-1.8-1.9c-0.4-0.8-0.7-1.7-0.7-2.7
				c0-1,0.2-1.9,0.7-2.7c0.4-0.8,1.1-1.4,1.8-1.9s1.6-0.7,2.6-0.7C608.2-1391.2,609.1-1391,609.9-1390.6z M605.7-1389
				c-0.5,0.3-0.8,0.7-1.1,1.2c-0.3,0.5-0.4,1.1-0.4,1.8c0,0.7,0.1,1.3,0.4,1.8c0.3,0.5,0.6,0.9,1.1,1.2c0.5,0.3,1,0.4,1.6,0.4
				c0.6,0,1.1-0.1,1.6-0.4c0.5-0.3,0.8-0.7,1.1-1.2c0.3-0.5,0.4-1.1,0.4-1.8c0-0.7-0.1-1.3-0.4-1.8c-0.3-0.5-0.6-0.9-1.1-1.2
				c-0.5-0.3-1-0.4-1.6-0.4C606.7-1389.4,606.2-1389.2,605.7-1389z"/>
			<path class="st6" d="M623-1383.3c-0.4,0.8-1,1.4-1.8,1.8c-0.8,0.4-1.8,0.6-2.9,0.6h-3.6v-10.2h3.6c1.1,0,2.1,0.2,2.9,0.6
				c0.8,0.4,1.4,1,1.8,1.8c0.4,0.8,0.6,1.7,0.6,2.7C623.7-1385,623.4-1384.1,623-1383.3z M620.7-1383.6c0.6-0.6,0.9-1.4,0.9-2.4
				c0-1.1-0.3-1.9-0.9-2.4c-0.6-0.6-1.5-0.9-2.6-0.9h-1.4v6.6h1.4C619.2-1382.7,620.1-1383,620.7-1383.6z"/>
			<path class="st6" d="M627.9-1391.1v6c0,0.8,0.2,1.4,0.5,1.8c0.4,0.4,0.9,0.6,1.5,0.6c0.7,0,1.2-0.2,1.5-0.6
				c0.4-0.4,0.5-1,0.5-1.8v-6h2v6c0,0.9-0.2,1.7-0.5,2.4c-0.4,0.7-0.8,1.1-1.5,1.5c-0.6,0.3-1.3,0.5-2.1,0.5c-1.2,0-2.2-0.4-2.9-1.1
				c-0.7-0.7-1.1-1.8-1.1-3.2v-6H627.9z"/>
			<path class="st6" d="M644.3-1390.2c0.8,0.7,1.4,1.5,1.7,2.7h-2.1c-0.2-0.6-0.6-1-1-1.3c-0.5-0.3-1-0.5-1.7-0.5
				c-0.5,0-1,0.1-1.5,0.4c-0.4,0.3-0.8,0.7-1,1.2c-0.2,0.5-0.4,1.1-0.4,1.8c0,0.7,0.1,1.3,0.4,1.8c0.2,0.5,0.6,0.9,1,1.2
				c0.4,0.3,0.9,0.4,1.5,0.4c0.7,0,1.2-0.2,1.7-0.5c0.5-0.3,0.8-0.8,1-1.3h2.1c-0.3,1.1-0.8,2-1.7,2.7c-0.8,0.7-1.9,1-3.2,1
				c-1,0-1.8-0.2-2.6-0.7c-0.7-0.4-1.3-1.1-1.7-1.8c-0.4-0.8-0.6-1.7-0.6-2.7c0-1,0.2-1.9,0.6-2.7c0.4-0.8,1-1.4,1.7-1.8
				c0.7-0.4,1.6-0.7,2.6-0.7C642.4-1391.2,643.5-1390.9,644.3-1390.2z"/>
			<path class="st6" d="M650.3-1389.5v2.7h3.6v1.6h-3.6v2.8h4.1v1.6h-6.1v-10.2h6.1v1.6H650.3z"/>
			<path class="st6" d="M661.9-1380.9l-2.4-4h-0.9v4h-2v-10.2h3.9c1.2,0,2.1,0.3,2.7,0.9s0.9,1.3,0.9,2.3c0,0.8-0.2,1.4-0.6,1.9
				c-0.4,0.5-1.1,0.9-1.9,1l2.5,4.1H661.9z M658.6-1386.3h1.7c1.2,0,1.8-0.5,1.8-1.6c0-0.5-0.1-0.9-0.4-1.2
				c-0.3-0.3-0.7-0.4-1.3-0.4h-1.7V-1386.3z"/>
		</g>
	</g>
	<g>
		<g>
			<g>
				<path class="st2" d="M1054.4-1455.7h-49.2c-6.2,0-11.9,3.3-15,8.7l-24.6,42.6c-3.1,5.4-3.1,12,0,17.4l24.6,42.6
					c3.1,5.4,8.8,8.7,15,8.7h49.2c6.2,0,11.9-3.3,15-8.7l24.6-42.6c3.1-5.4,3.1-12,0-17.4l-24.6-42.6
					C1066.4-1452.3,1060.6-1455.7,1054.4-1455.7z"/>
			</g>
			<g>
				<path class="st3" d="M1053-1452.1h-46.2c-5.8,0-11.2,3.1-14.1,8.2l-23.1,40c-2.9,5.1-2.9,11.3,0,16.3l23.1,40
					c2.9,5.1,8.3,8.2,14.1,8.2h46.2c5.8,0,11.2-3.1,14.1-8.2l23.1-40c2.9-5.1,2.9-11.3,0-16.3l-23.1-40
					C1064.2-1448.9,1058.8-1452.1,1053-1452.1z"/>
			</g>
		</g>
		<g>
			<path class="st6" d="M1020.7-1414.9v1.6h-4.3v2.7h3.4v1.6h-3.4v4.3h-2v-10.2H1020.7z"/>
			<path class="st6" d="M1024.8-1414.9v6c0,0.8,0.2,1.4,0.5,1.8c0.4,0.4,0.9,0.6,1.5,0.6c0.7,0,1.2-0.2,1.5-0.6
				c0.4-0.4,0.5-1,0.5-1.8v-6h2v6c0,0.9-0.2,1.7-0.5,2.4c-0.4,0.7-0.8,1.1-1.5,1.5c-0.6,0.3-1.3,0.5-2.1,0.5c-1.2,0-2.2-0.4-2.9-1.1
				c-0.7-0.7-1.1-1.8-1.1-3.2v-6H1024.8z"/>
			<path class="st6" d="M1035.5-1406.2h3.4v1.6h-5.5v-10.2h2V-1406.2z"/>
			<path class="st6" d="M1042.9-1406.2h3.4v1.6h-5.5v-10.2h2V-1406.2z"/>
			<path class="st6" d="M1013.9-1380.9h-2l-4.6-7v7h-2v-10.2h2l4.6,7v-7h2V-1380.9z"/>
			<path class="st6" d="M1023.9-1390.6c0.8,0.4,1.4,1.1,1.8,1.9c0.4,0.8,0.7,1.7,0.7,2.7c0,1-0.2,1.9-0.7,2.7
				c-0.4,0.8-1.1,1.4-1.8,1.9c-0.8,0.4-1.6,0.7-2.6,0.7s-1.8-0.2-2.6-0.7c-0.8-0.4-1.4-1.1-1.8-1.9c-0.4-0.8-0.7-1.7-0.7-2.7
				c0-1,0.2-1.9,0.7-2.7c0.4-0.8,1.1-1.4,1.8-1.9c0.8-0.4,1.6-0.7,2.6-0.7S1023.1-1391,1023.9-1390.6z M1019.7-1389
				c-0.5,0.3-0.8,0.7-1.1,1.2c-0.3,0.5-0.4,1.1-0.4,1.8c0,0.7,0.1,1.3,0.4,1.8c0.3,0.5,0.6,0.9,1.1,1.2c0.5,0.3,1,0.4,1.6,0.4
				s1.1-0.1,1.6-0.4c0.5-0.3,0.8-0.7,1.1-1.2c0.3-0.5,0.4-1.1,0.4-1.8c0-0.7-0.1-1.3-0.4-1.8c-0.3-0.5-0.6-0.9-1.1-1.2
				c-0.5-0.3-1-0.4-1.6-0.4S1020.1-1389.2,1019.7-1389z"/>
			<path class="st6" d="M1037-1383.3c-0.4,0.8-1,1.4-1.8,1.8c-0.8,0.4-1.8,0.6-2.9,0.6h-3.6v-10.2h3.6c1.1,0,2.1,0.2,2.9,0.6
				c0.8,0.4,1.4,1,1.8,1.8c0.4,0.8,0.6,1.7,0.6,2.7C1037.6-1385,1037.4-1384.1,1037-1383.3z M1034.6-1383.6c0.6-0.6,0.9-1.4,0.9-2.4
				c0-1.1-0.3-1.9-0.9-2.4c-0.6-0.6-1.5-0.9-2.6-0.9h-1.4v6.6h1.4C1033.2-1382.7,1034-1383,1034.6-1383.6z"/>
			<path class="st6" d="M1041.9-1389.5v2.7h3.6v1.6h-3.6v2.8h4.1v1.6h-6.1v-10.2h6.1v1.6H1041.9z"/>
			<path class="st6" d="M1054.8-1382.2c-0.3,0.4-0.6,0.8-1.2,1.1c-0.5,0.3-1.1,0.4-1.9,0.4c-0.7,0-1.4-0.1-1.9-0.4
				c-0.6-0.2-1-0.6-1.4-1.1c-0.3-0.5-0.5-1-0.6-1.6h2.2c0,0.4,0.2,0.8,0.5,1c0.3,0.3,0.7,0.4,1.1,0.4c0.4,0,0.8-0.1,1-0.3
				c0.2-0.2,0.3-0.5,0.3-0.9c0-0.3-0.1-0.6-0.3-0.8c-0.2-0.2-0.4-0.4-0.7-0.5c-0.3-0.1-0.7-0.3-1.2-0.4c-0.6-0.2-1.2-0.4-1.6-0.6
				c-0.4-0.2-0.8-0.5-1-0.9c-0.3-0.4-0.4-0.9-0.4-1.5c0-0.9,0.3-1.6,0.9-2.1c0.6-0.5,1.5-0.8,2.5-0.8c1.1,0,1.9,0.3,2.6,0.8
				c0.6,0.5,1,1.2,1.1,2.1h-2.2c-0.1-0.4-0.2-0.7-0.5-0.9c-0.3-0.2-0.6-0.4-1-0.4c-0.4,0-0.7,0.1-0.9,0.3c-0.2,0.2-0.3,0.5-0.3,0.9
				c0,0.3,0.1,0.5,0.3,0.7c0.2,0.2,0.4,0.4,0.7,0.5c0.3,0.1,0.6,0.3,1.1,0.4c0.7,0.2,1.2,0.4,1.6,0.7c0.4,0.2,0.8,0.5,1.1,0.9
				c0.3,0.4,0.4,0.9,0.4,1.6C1055.2-1383.1,1055.1-1382.7,1054.8-1382.2z"/>
		</g>
	</g>
	<g>
		<g>
			<g class="st1">
				<path class="st2" d="M850.8-1570.5h-47.5c-6,0-11.5,3.2-14.5,8.4L765-1521c-3,5.2-3,11.6,0,16.8l23.8,41.1
					c3,5.2,8.5,8.4,14.5,8.4h47.5c6,0,11.5-3.2,14.5-8.4l23.8-41.1c3-5.2,3-11.6,0-16.8l-23.8-41.1
					C862.4-1567.3,856.8-1570.5,850.8-1570.5z"/>
			</g>
			<g>
				<path class="st2" d="M847.3-1562h-40.5c-5.1,0-9.9,2.7-12.4,7.2l-20.3,35.1c-2.6,4.4-2.6,9.9,0,14.3l20.3,35.1
					c2.6,4.4,7.3,7.2,12.4,7.2h40.5c5.1,0,9.9-2.7,12.4-7.2l20.3-35.1c2.6-4.4,2.6-9.9,0-14.3l-20.3-35.1
					C857.2-1559.3,852.4-1562,847.3-1562z"/>
			</g>
		</g>
		<g>
			<path class="st3" d="M804.7-1516.5c0.8,0.6,1.3,1.4,1.5,2.5h-2.5c-0.2-0.4-0.4-0.6-0.8-0.8c-0.3-0.2-0.8-0.3-1.2-0.3
				c-0.8,0-1.4,0.3-1.8,0.8c-0.5,0.5-0.7,1.2-0.7,2.1c0,0.9,0.2,1.7,0.7,2.2c0.5,0.5,1.2,0.8,2.1,0.8c0.6,0,1.1-0.2,1.5-0.5
				c0.4-0.3,0.7-0.8,0.9-1.3h-3v-1.7h5v2.4c-0.2,0.6-0.5,1.1-0.9,1.6c-0.4,0.5-0.9,0.9-1.6,1.2c-0.6,0.3-1.4,0.5-2.2,0.5
				c-1,0-1.9-0.2-2.6-0.6c-0.7-0.4-1.3-1-1.7-1.8c-0.4-0.8-0.6-1.6-0.6-2.6c0-1,0.2-1.9,0.6-2.6s1-1.4,1.7-1.8
				c0.7-0.4,1.6-0.6,2.6-0.6C802.9-1517.4,803.9-1517.1,804.7-1516.5z"/>
			<path class="st3" d="M814.5-1509.2h-3.7l-0.6,1.8h-2.5l3.6-9.8h2.8l3.6,9.8h-2.5L814.5-1509.2z M813.9-1511l-1.2-3.6l-1.2,3.6
				H813.9z"/>
			<path class="st3" d="M830.5-1517.2v9.8h-2.4v-6.1l-2.1,6.1h-2.1l-2.1-6.2v6.2h-2.4v-9.8h2.9l2.7,6.8l2.6-6.8H830.5z"/>
			<path class="st3" d="M835.2-1515.4v2.1h3.3v1.8h-3.3v2.2h3.8v1.9h-6.2v-9.9h6.2v1.9H835.2z"/>
			<path class="st3" d="M846.1-1507.4l-2.1-3.7h-0.5v3.7H841v-9.9h4.1c0.8,0,1.4,0.1,2,0.4c0.5,0.3,0.9,0.6,1.2,1.1
				c0.3,0.5,0.4,1,0.4,1.6c0,0.7-0.2,1.3-0.6,1.8c-0.4,0.5-1,0.8-1.7,1l2.4,3.9H846.1z M843.4-1512.7h1.5c0.5,0,0.8-0.1,1.1-0.3
				c0.2-0.2,0.3-0.5,0.3-0.9c0-0.4-0.1-0.7-0.3-0.9c-0.2-0.2-0.6-0.3-1-0.3h-1.5V-1512.7z"/>
			<path class="st3" d="M857.4-1508.7c-0.3,0.4-0.7,0.8-1.2,1.1c-0.5,0.3-1.1,0.4-1.9,0.4c-1.1,0-2-0.3-2.7-0.8
				c-0.7-0.5-1.1-1.3-1.2-2.3h2.5c0,0.4,0.2,0.7,0.4,0.9c0.2,0.2,0.5,0.3,0.9,0.3c0.3,0,0.6-0.1,0.7-0.3c0.2-0.2,0.3-0.4,0.3-0.7
				c0-0.3-0.1-0.5-0.2-0.6c-0.2-0.2-0.4-0.3-0.6-0.4c-0.2-0.1-0.6-0.2-1-0.4c-0.6-0.2-1.1-0.4-1.5-0.6c-0.4-0.2-0.7-0.5-1-0.9
				c-0.3-0.4-0.4-0.9-0.4-1.5c0-0.6,0.1-1.1,0.4-1.5c0.3-0.4,0.7-0.8,1.2-1c0.5-0.2,1.1-0.3,1.8-0.3c1.1,0,2,0.3,2.6,0.8
				c0.6,0.5,1,1.2,1.1,2.2H855c0-0.3-0.2-0.6-0.4-0.8c-0.2-0.2-0.5-0.3-0.8-0.3c-0.3,0-0.5,0.1-0.7,0.2c-0.2,0.1-0.3,0.4-0.3,0.7
				c0,0.2,0.1,0.4,0.2,0.6c0.2,0.2,0.3,0.3,0.6,0.4c0.2,0.1,0.6,0.2,1,0.4c0.6,0.2,1.2,0.4,1.6,0.6c0.4,0.2,0.7,0.5,1,0.9
				c0.3,0.4,0.4,0.9,0.4,1.6C857.8-1509.6,857.6-1509.1,857.4-1508.7z"/>
		</g>
	</g>
	<g>
		<path class="st6" d="M849.1-1417.3v4.5c0,0.6,0.1,1.1,0.4,1.4c0.3,0.3,0.6,0.5,1.1,0.5c0.5,0,0.9-0.2,1.1-0.5
			c0.3-0.3,0.4-0.8,0.4-1.4v-4.5h1.5v4.5c0,0.7-0.1,1.3-0.4,1.8c-0.3,0.5-0.6,0.9-1.1,1.1c-0.5,0.2-1,0.4-1.6,0.4
			c-0.9,0-1.7-0.3-2.2-0.8c-0.6-0.6-0.8-1.4-0.8-2.4v-4.5H849.1z"/>
		<path class="st6" d="M860-1415.3c0.4,0.2,0.7,0.6,1,1.1c0.2,0.5,0.3,1,0.3,1.6c0,0.6-0.1,1.2-0.3,1.6c-0.2,0.5-0.5,0.8-1,1.1
			c-0.4,0.2-0.9,0.4-1.4,0.4c-0.5,0-0.9-0.1-1.3-0.4c-0.4-0.2-0.6-0.6-0.8-1v4.1h-1.5v-8.9h1.5v1.2c0.2-0.4,0.4-0.7,0.8-1
			c0.4-0.2,0.8-0.4,1.3-0.4C859.2-1415.7,859.6-1415.6,860-1415.3z M857.1-1413.9c-0.3,0.3-0.5,0.7-0.5,1.3c0,0.5,0.2,1,0.5,1.3
			c0.3,0.3,0.7,0.5,1.1,0.5c0.5,0,0.9-0.2,1.2-0.5c0.3-0.3,0.4-0.7,0.4-1.3c0-0.5-0.1-1-0.4-1.3c-0.3-0.3-0.7-0.5-1.2-0.5
			C857.7-1414.4,857.4-1414.2,857.1-1413.9z"/>
		<path class="st6" d="M866.1-1415.4c0.4,0.2,0.6,0.6,0.8,1v-3.3h1.5v8h-1.5v-1.3c-0.2,0.4-0.4,0.7-0.8,1c-0.4,0.2-0.8,0.4-1.3,0.4
			c-0.5,0-1-0.1-1.4-0.4c-0.4-0.2-0.7-0.6-1-1.1c-0.2-0.5-0.3-1-0.3-1.6c0-0.6,0.1-1.2,0.3-1.6c0.2-0.5,0.5-0.8,1-1.1
			c0.4-0.2,0.9-0.4,1.4-0.4C865.3-1415.7,865.7-1415.6,866.1-1415.4z M864.1-1413.9c-0.3,0.3-0.4,0.7-0.4,1.3c0,0.5,0.1,1,0.4,1.3
			c0.3,0.3,0.7,0.5,1.2,0.5c0.5,0,0.8-0.2,1.1-0.5c0.3-0.3,0.5-0.7,0.5-1.3c0-0.5-0.2-1-0.5-1.3c-0.3-0.3-0.7-0.5-1.1-0.5
			C864.8-1414.4,864.4-1414.2,864.1-1413.9z"/>
		<path class="st6" d="M873.4-1415.4c0.4,0.2,0.6,0.6,0.8,1v-1.2h1.5v6h-1.5v-1.3c-0.2,0.4-0.4,0.7-0.8,1c-0.4,0.2-0.8,0.4-1.3,0.4
			c-0.5,0-1-0.1-1.4-0.4c-0.4-0.2-0.7-0.6-1-1.1c-0.2-0.5-0.3-1-0.3-1.6c0-0.6,0.1-1.2,0.3-1.6c0.2-0.5,0.5-0.8,1-1.1
			c0.4-0.2,0.9-0.4,1.4-0.4C872.6-1415.7,873.1-1415.6,873.4-1415.4z M871.5-1413.9c-0.3,0.3-0.4,0.7-0.4,1.3c0,0.5,0.1,1,0.4,1.3
			c0.3,0.3,0.7,0.5,1.2,0.5c0.5,0,0.8-0.2,1.1-0.5c0.3-0.3,0.5-0.7,0.5-1.3c0-0.5-0.2-1-0.5-1.3c-0.3-0.3-0.7-0.5-1.1-0.5
			C872.1-1414.4,871.7-1414.2,871.5-1413.9z"/>
		<path class="st6" d="M880.3-1410.9v1.3h-0.8c-0.7,0-1.2-0.2-1.5-0.5c-0.4-0.3-0.5-0.9-0.5-1.6v-2.6h-0.8v-1.3h0.8v-1.5h1.5v1.5
			h1.3v1.3H879v2.6c0,0.3,0.1,0.5,0.2,0.6c0.1,0.1,0.3,0.2,0.6,0.2H880.3z"/>
		<path class="st6" d="M887-1412.3h-4.4c0,0.5,0.2,0.9,0.4,1.2c0.3,0.3,0.6,0.4,1,0.4c0.4,0,0.7-0.1,0.9-0.3
			c0.2-0.2,0.4-0.4,0.5-0.7h1.6c-0.1,0.4-0.2,0.8-0.5,1.1c-0.3,0.3-0.6,0.6-1,0.8c-0.4,0.2-0.9,0.3-1.4,0.3c-0.6,0-1.1-0.1-1.6-0.4
			c-0.5-0.2-0.8-0.6-1.1-1.1c-0.3-0.5-0.4-1-0.4-1.6c0-0.6,0.1-1.2,0.4-1.6c0.3-0.5,0.6-0.8,1.1-1.1c0.5-0.2,1-0.4,1.6-0.4
			c0.6,0,1.1,0.1,1.6,0.4c0.4,0.2,0.8,0.6,1,1c0.2,0.4,0.4,0.9,0.4,1.5C887.1-1412.7,887.1-1412.5,887-1412.3z M885.2-1414.1
			c-0.3-0.3-0.6-0.4-1-0.4c-0.4,0-0.8,0.1-1,0.4c-0.3,0.3-0.4,0.6-0.5,1.1h2.9C885.6-1413.5,885.4-1413.9,885.2-1414.1z"/>
		<path class="st6" d="M892-1415.2c0.4,0.4,0.7,0.9,0.8,1.5h-1.4c-0.1-0.3-0.2-0.5-0.4-0.7c-0.2-0.2-0.5-0.3-0.8-0.3
			c-0.3,0-0.5,0.1-0.6,0.2c-0.1,0.1-0.2,0.3-0.2,0.5c0,0.2,0.1,0.3,0.2,0.4c0.1,0.1,0.3,0.2,0.4,0.2c0.2,0.1,0.4,0.1,0.7,0.2
			c0.5,0.1,0.8,0.2,1.1,0.3c0.3,0.1,0.5,0.3,0.7,0.5c0.2,0.2,0.3,0.6,0.3,1c0,0.5-0.2,0.9-0.6,1.2c-0.4,0.3-0.9,0.5-1.6,0.5
			c-0.8,0-1.4-0.2-1.9-0.5c-0.5-0.4-0.8-0.9-0.9-1.5h1.5c0,0.3,0.2,0.5,0.4,0.7c0.2,0.2,0.5,0.3,0.9,0.3c0.3,0,0.5-0.1,0.6-0.2
			c0.1-0.1,0.2-0.3,0.2-0.5c0-0.2-0.1-0.3-0.2-0.4c-0.1-0.1-0.3-0.2-0.4-0.2c-0.2-0.1-0.4-0.1-0.8-0.2c-0.4-0.1-0.8-0.2-1.1-0.3
			c-0.3-0.1-0.5-0.3-0.7-0.5c-0.2-0.2-0.3-0.6-0.3-1c0-0.5,0.2-0.9,0.6-1.3c0.4-0.3,0.9-0.5,1.7-0.5
			C891-1415.7,891.6-1415.5,892-1415.2z"/>
	</g>
	<g>
		<path class="st6" d="M702.4-1362.3c0.1,0.4,0,0.9-0.3,1.3c-0.3,0.6-0.8,0.9-1.3,1s-1.2-0.1-1.9-0.5l-2.8-1.7l3.9-6.6l2.8,1.6
			c0.7,0.4,1.1,0.8,1.3,1.3c0.2,0.5,0.1,1-0.2,1.6c-0.2,0.4-0.5,0.7-0.9,0.8c-0.4,0.1-0.8,0.1-1.1,0
			C702.1-1363.1,702.4-1362.7,702.4-1362.3z M700.2-1361.5c0.3,0,0.5-0.2,0.7-0.5c0.2-0.3,0.2-0.6,0.1-0.8c-0.1-0.3-0.3-0.5-0.7-0.7
			l-1.2-0.7l-1.1,1.8l1.3,0.7C699.7-1361.6,700-1361.5,700.2-1361.5z M699.7-1365.3l1.2,0.7c0.3,0.2,0.6,0.3,0.9,0.2
			c0.3,0,0.5-0.2,0.6-0.5c0.2-0.3,0.2-0.5,0.1-0.8c-0.1-0.2-0.3-0.5-0.6-0.7l-1.2-0.7L699.7-1365.3z"/>
		<path class="st6" d="M707.4-1364.9l-4.1,6.9l-1.3-0.8l4.1-6.9L707.4-1364.9z"/>
		<path class="st6" d="M711.2-1359.9c0.3,0.5,0.4,0.9,0.4,1.5c0,0.5-0.2,1.1-0.5,1.6c-0.3,0.5-0.7,0.9-1.2,1.2s-1,0.4-1.5,0.4
			c-0.5,0-1-0.2-1.6-0.5c-0.5-0.3-0.9-0.7-1.2-1.1c-0.3-0.5-0.4-0.9-0.4-1.5c0-0.5,0.2-1.1,0.5-1.6s0.7-0.9,1.2-1.2
			c0.5-0.3,1-0.4,1.5-0.4c0.5,0,1,0.2,1.5,0.5C710.5-1360.8,710.9-1360.4,711.2-1359.9z M708.2-1360.1c-0.4,0.1-0.8,0.4-1,0.9
			c-0.3,0.5-0.4,0.9-0.3,1.4c0.1,0.4,0.3,0.7,0.7,0.9c0.4,0.2,0.8,0.3,1.2,0.2c0.4-0.1,0.8-0.4,1-0.9c0.3-0.5,0.4-0.9,0.3-1.4
			c-0.1-0.4-0.3-0.7-0.7-0.9C709-1360.1,708.6-1360.2,708.2-1360.1z"/>
		<path class="st6" d="M717.3-1356c0.2,0.6,0.2,1.3,0,2l-1.4-0.8c0.1-0.3,0.1-0.6,0-0.9c-0.1-0.3-0.3-0.5-0.6-0.7
			c-0.3-0.2-0.7-0.2-1.1-0.1c-0.4,0.1-0.7,0.4-1,0.9c-0.3,0.5-0.4,0.9-0.3,1.3c0.1,0.4,0.3,0.7,0.6,0.9c0.3,0.2,0.6,0.3,0.9,0.2
			c0.3,0,0.5-0.2,0.8-0.4l1.4,0.8c-0.5,0.6-1.1,0.9-1.7,1s-1.3,0-2-0.4c-0.5-0.3-0.9-0.7-1.2-1.1c-0.3-0.4-0.4-0.9-0.4-1.5
			c0-0.5,0.2-1.1,0.5-1.6c0.3-0.5,0.7-1,1.2-1.2c0.5-0.3,0.9-0.4,1.5-0.4c0.5,0,1,0.2,1.5,0.5C716.6-1357.2,717.1-1356.7,717.3-1356
			z"/>
		<path class="st6" d="M719.3-1348.5l-0.4-3.3l-1.3,2.3l-1.3-0.8l4.1-6.9l1.3,0.8l-2.3,3.9l3-1.1l1.6,0.9l-3.7,1.3l0.7,3.9
			L719.3-1348.5z"/>
		<path class="st6" d="M729.9-1354.2l-8.8,9.1l-1.3-0.8l8.8-9.1L729.9-1354.2z"/>
		<path class="st6" d="M727.1-1345.3l2.2,1.3l-0.6,1l-3.5-2.1l3.9-6.6l1.3,0.8L727.1-1345.3z"/>
		<path class="st6" d="M734.7-1348.3l-3.9,6.6l-1.3-0.8l3.9-6.6L734.7-1348.3z"/>
		<path class="st6" d="M737.6-1337.7l-1.3-0.8l-0.3-6.2l-2.7,4.5l-1.3-0.8l3.9-6.6l1.3,0.8l0.3,6.3l2.7-4.5l1.3,0.8L737.6-1337.7z"
			/>
	</g>
	<g>
		<path class="st6" d="M901.8-1355.7l0.6,1l-1.8,1.1l3.4,5.5l-1.3,0.8l-3.4-5.5l-1.8,1.1l-0.6-1L901.8-1355.7z"/>
		<path class="st6" d="M909.6-1351.6l-2.2-0.9l0,2.3l-1.4,0.9l0-3.7l-3.2-1.4l1.5-0.9l2.1,0.9l0-2.2l1.4-0.9l-0.1,3.7l3.3,1.4
			L909.6-1351.6z"/>
		<path class="st6" d="M913.4-1360.3c0.6,0.2,1.1,0.6,1.5,1.3l1.8,3l-1.3,0.8l-1.8-2.8c-0.3-0.4-0.6-0.7-0.9-0.8
			c-0.3-0.1-0.7,0-1.1,0.2c-0.4,0.2-0.6,0.5-0.7,0.9c-0.1,0.4,0,0.8,0.3,1.2l1.7,2.7l-1.3,0.8l-3.2-5.1l1.3-0.8l0.6,1
			c-0.1-0.4,0-0.8,0.2-1.2c0.2-0.4,0.5-0.7,0.9-1C912.2-1360.3,912.8-1360.4,913.4-1360.3z"/>
		<path class="st6" d="M917.5-1368.6l4,12l-1.3,0.8l-4-12L917.5-1368.6z"/>
		<path class="st6" d="M928.3-1367c0.4,0.1,0.7,0.4,1,0.8c0.3,0.5,0.4,1.1,0.3,1.6c-0.2,0.5-0.6,1-1.3,1.5l-2.8,1.7l-4-6.5l2.7-1.7
			c0.7-0.4,1.3-0.6,1.8-0.5c0.5,0.1,1,0.4,1.3,0.9c0.3,0.4,0.4,0.8,0.3,1.2c-0.1,0.4-0.2,0.7-0.5,1
			C927.4-1367.2,927.9-1367.2,928.3-1367z M924.4-1366l1.2-0.7c0.3-0.2,0.5-0.4,0.6-0.7c0.1-0.2,0-0.5-0.1-0.8
			c-0.2-0.3-0.4-0.4-0.6-0.5c-0.3,0-0.6,0-0.9,0.3l-1.2,0.7L924.4-1366z M928-1364.8c0.1-0.3,0-0.5-0.1-0.8
			c-0.2-0.3-0.4-0.5-0.7-0.5c-0.3,0-0.6,0-0.9,0.3l-1.2,0.8l1.1,1.8l1.2-0.8C927.7-1364.2,927.9-1364.5,928-1364.8z"/>
		<path class="st6" d="M928.4-1372.7l4.2,6.8l-1.3,0.8l-4.2-6.8L928.4-1372.7z"/>
		<path class="st6" d="M934.5-1373.7c0.5,0,1,0.1,1.5,0.3c0.5,0.3,0.9,0.7,1.2,1.2c0.3,0.5,0.5,1.1,0.5,1.6c0,0.5-0.1,1-0.4,1.5
			c-0.3,0.5-0.6,0.8-1.1,1.2c-0.5,0.3-1,0.5-1.5,0.5c-0.5,0-1-0.1-1.5-0.3c-0.5-0.3-0.9-0.6-1.2-1.2c-0.3-0.5-0.5-1.1-0.5-1.6
			c0-0.5,0.1-1,0.4-1.5c0.3-0.5,0.6-0.8,1.1-1.1C933.4-1373.5,933.9-1373.7,934.5-1373.7z M932.9-1371.1c-0.1,0.4,0,0.9,0.3,1.3
			c0.3,0.5,0.7,0.8,1.1,0.9c0.4,0.1,0.8,0,1.2-0.2c0.4-0.2,0.6-0.5,0.7-1c0.1-0.4,0-0.9-0.3-1.3s-0.7-0.8-1.1-0.9
			c-0.4-0.1-0.8,0-1.2,0.2S933-1371.6,932.9-1371.1z"/>
		<path class="st6" d="M940.7-1377.3c0.7,0.1,1.2,0.4,1.7,0.9l-1.4,0.9c-0.2-0.2-0.5-0.4-0.8-0.4c-0.3,0-0.6,0-0.9,0.2
			c-0.3,0.2-0.6,0.5-0.6,0.9c-0.1,0.4,0,0.8,0.4,1.3s0.7,0.8,1,0.9c0.4,0.1,0.8,0.1,1.1-0.2c0.3-0.2,0.5-0.4,0.6-0.7
			c0.1-0.3,0.1-0.6,0-0.9l1.4-0.9c0.3,0.7,0.3,1.3,0.1,2c-0.2,0.6-0.7,1.1-1.3,1.6c-0.5,0.3-1,0.5-1.5,0.5s-1-0.1-1.5-0.3
			c-0.5-0.3-0.9-0.7-1.2-1.2c-0.3-0.5-0.5-1.1-0.5-1.6c0-0.5,0.1-1,0.3-1.5c0.3-0.5,0.6-0.8,1.1-1.1
			C939.4-1377.3,940.1-1377.4,940.7-1377.3z"/>
		<path class="st6" d="M948.4-1375.6l-3.1-1.2l1.4,2.2l-1.3,0.8l-4.2-6.8l1.3-0.8l2.4,3.8l0.4-3.2l1.5-1l-0.6,3.9l3.8,1.2
			L948.4-1375.6z"/>
	</g>
	<g>
		<path class="st6" d="M940.1-1318.5l2.2-1.4l0.6,1l-3.5,2.2l-4-6.5l1.3-0.8L940.1-1318.5z"/>
		<path class="st6" d="M941-1326.7l4,6.5l-1.3,0.8l-4.1-6.5L941-1326.7z"/>
		<path class="st6" d="M951.7-1324.3l-1.3,0.8l-5.7-2.6l2.8,4.4l-1.3,0.8l-4.1-6.5l1.3-0.8l5.7,2.7l-2.8-4.5l1.3-0.8L951.7-1324.3z"
			/>
	</g>
	<g>
		<path class="st6" d="M675.9-1225.6c0.8,0.1,1.5,0.5,2.1,1.1l-1.4,0.8c-0.4-0.3-0.7-0.4-1.2-0.5c-0.4,0-0.8,0.1-1.3,0.3
			c-0.4,0.2-0.6,0.5-0.8,0.8c-0.2,0.3-0.3,0.7-0.2,1.1c0,0.4,0.2,0.8,0.4,1.3c0.2,0.4,0.5,0.8,0.9,1c0.3,0.2,0.7,0.4,1.1,0.4
			c0.4,0,0.8-0.1,1.1-0.3c0.4-0.2,0.7-0.6,0.9-0.9c0.2-0.4,0.2-0.8,0.2-1.2l1.4-0.8c0.2,0.8,0.2,1.6-0.1,2.4
			c-0.3,0.7-0.9,1.4-1.7,1.8c-0.6,0.4-1.3,0.5-1.9,0.5c-0.7,0-1.3-0.2-1.8-0.5c-0.6-0.4-1-0.9-1.4-1.5c-0.4-0.7-0.6-1.3-0.6-2
			c0-0.7,0.1-1.3,0.4-1.8c0.3-0.6,0.8-1,1.4-1.4C674.3-1225.6,675.1-1225.7,675.9-1225.6z"/>
		<path class="st6" d="M682.4-1227.9c0.5,0,1,0.1,1.5,0.4c0.5,0.3,0.9,0.7,1.2,1.2c0.3,0.5,0.5,1.1,0.5,1.6c0,0.5-0.1,1-0.4,1.5
			s-0.7,0.8-1.2,1.1c-0.5,0.3-1,0.4-1.6,0.5c-0.5,0-1-0.1-1.5-0.4c-0.5-0.3-0.9-0.7-1.2-1.2c-0.3-0.5-0.5-1.1-0.5-1.6
			c0-0.5,0.1-1,0.4-1.5c0.3-0.4,0.7-0.8,1.2-1.1C681.3-1227.7,681.8-1227.9,682.4-1227.9z M680.7-1225.3c-0.1,0.4,0,0.9,0.3,1.4
			c0.3,0.5,0.6,0.8,1,0.9c0.4,0.1,0.8,0.1,1.2-0.2c0.4-0.2,0.6-0.5,0.7-0.9c0.1-0.4,0-0.9-0.3-1.4c-0.3-0.5-0.6-0.8-1-0.9
			c-0.4-0.1-0.8-0.1-1.2,0.2C681.1-1226.1,680.9-1225.8,680.7-1225.3z"/>
		<path class="st6" d="M689.3-1231.5c0.6,0.2,1.1,0.6,1.5,1.4l1.7,3l-1.3,0.8l-1.7-2.9c-0.2-0.4-0.5-0.7-0.9-0.8
			c-0.3-0.1-0.7-0.1-1.1,0.2c-0.4,0.2-0.6,0.5-0.7,0.9c-0.1,0.4,0,0.8,0.3,1.2l1.6,2.8l-1.3,0.8l-3-5.2l1.3-0.8l0.6,1
			c-0.1-0.4,0-0.8,0.2-1.2c0.2-0.4,0.5-0.7,0.9-0.9C688.1-1231.7,688.7-1231.7,689.3-1231.5z"/>
		<path class="st6" d="M695.8-1230.6l0.7,1.1l-0.7,0.4c-0.6,0.3-1.1,0.5-1.6,0.3c-0.5-0.1-0.9-0.5-1.3-1.1l-1.3-2.3l-0.7,0.4
			l-0.6-1.1l0.7-0.4l-0.7-1.3l1.3-0.8l0.7,1.3l1.2-0.7l0.6,1.1l-1.2,0.7l1.3,2.3c0.1,0.3,0.3,0.4,0.5,0.4c0.2,0,0.4,0,0.6-0.1
			L695.8-1230.6z"/>
		<path class="st6" d="M700.9-1235.1l-3.8,2.2c0.3,0.5,0.6,0.7,1,0.8c0.4,0.1,0.7,0,1.1-0.2c0.3-0.2,0.5-0.4,0.6-0.7
			c0.1-0.3,0.1-0.5,0-0.8l1.4-0.8c0.1,0.4,0.2,0.8,0.1,1.2c-0.1,0.4-0.2,0.8-0.5,1.2c-0.3,0.4-0.6,0.7-1,0.9c-0.5,0.3-1,0.4-1.5,0.5
			c-0.5,0-1-0.1-1.5-0.4c-0.5-0.3-0.8-0.7-1.1-1.2c-0.3-0.5-0.5-1.1-0.5-1.6c0-0.5,0.1-1,0.4-1.5c0.3-0.4,0.7-0.8,1.2-1.1
			c0.5-0.3,1-0.4,1.5-0.5c0.5,0,1,0.1,1.4,0.4c0.4,0.3,0.8,0.6,1.1,1.1C700.8-1235.5,700.9-1235.3,700.9-1235.1z M698.4-1235.8
			c-0.4-0.1-0.7,0-1.1,0.2c-0.4,0.2-0.6,0.5-0.7,0.9s-0.1,0.8,0.2,1.2l2.5-1.5C699.1-1235.4,698.8-1235.7,698.4-1235.8z"/>
		<path class="st6" d="M705.1-1240.7c0.6,0.2,1.1,0.6,1.5,1.4l1.7,3l-1.3,0.8l-1.7-2.9c-0.2-0.4-0.5-0.7-0.9-0.8
			c-0.3-0.1-0.7-0.1-1.1,0.2c-0.4,0.2-0.6,0.5-0.7,0.9c-0.1,0.4,0,0.8,0.3,1.2l1.6,2.8l-1.3,0.8l-3-5.2l1.3-0.8l0.6,1
			c-0.1-0.4,0-0.8,0.2-1.2c0.2-0.4,0.5-0.7,0.9-0.9C704-1240.8,704.6-1240.9,705.1-1240.7z"/>
		<path class="st6" d="M711.7-1239.7l0.7,1.1l-0.7,0.4c-0.6,0.3-1.1,0.5-1.6,0.3c-0.5-0.1-0.9-0.5-1.3-1.1l-1.3-2.3l-0.7,0.4
			l-0.6-1.1l0.7-0.4l-0.7-1.3l1.3-0.8l0.7,1.3l1.2-0.7l0.6,1.1l-1.2,0.7l1.3,2.3c0.1,0.3,0.3,0.4,0.5,0.4c0.2,0,0.4,0,0.6-0.1
			L711.7-1239.7z"/>
		<path class="st6" d="M711.3-1249.8l3.6,12.1l-1.3,0.7l-3.6-12.1L711.3-1249.8z"/>
		<path class="st6" d="M717.6-1243l2.2-1.3l0.6,1l-3.6,2l-3.8-6.6l1.3-0.8L717.6-1243z"/>
		<path class="st6" d="M718.7-1251.1l3.8,6.6l-1.3,0.8l-3.8-6.6L718.7-1251.1z"/>
		<path class="st6" d="M729.4-1248.4l-1.3,0.8l-5.6-2.8l2.6,4.5l-1.3,0.8l-3.8-6.6l1.3-0.8l5.6,2.8l-2.6-4.6l1.3-0.8L729.4-1248.4z"
			/>
	</g>
	<g>
		<path class="st6" d="M701.3-1176.8c0,0.7-0.2,1.3-0.5,1.9c-0.4,0.6-0.9,1.1-1.6,1.5l-2.4,1.4l-3.8-6.6l2.4-1.4
			c0.7-0.4,1.4-0.6,2.1-0.7c0.7,0,1.3,0.1,1.9,0.5c0.6,0.3,1,0.8,1.4,1.5C701.1-1178.1,701.3-1177.4,701.3-1176.8z M699.7-1176.1
			c0.2-0.6,0.1-1.2-0.3-1.9c-0.4-0.7-0.9-1.1-1.5-1.3c-0.6-0.2-1.3,0-2,0.4l-0.9,0.5l2.5,4.3l0.9-0.5
			C699.1-1175,699.5-1175.5,699.7-1176.1z"/>
		<path class="st6" d="M706.9-1179.7l-2.7,1.5l0.3,1.6l-1.4,0.8l-1.3-8l1.5-0.9l6.2,5.2l-1.4,0.8L706.9-1179.7z M706-1180.5
			l-2.6-2.2l0.6,3.4L706-1180.5z"/>
		<path class="st6" d="M711.7-1187.3c0.5,0,0.9,0.2,1.4,0.5c0.4,0.3,0.8,0.7,1.1,1.3c0.3,0.5,0.5,1.1,0.5,1.6c0,0.5-0.1,1-0.3,1.4
			c-0.2,0.4-0.6,0.8-1,1c-0.4,0.3-0.9,0.4-1.3,0.3c-0.4,0-0.8-0.2-1.1-0.5l2.1,3.6l-1.3,0.8l-4.4-7.7l1.3-0.8l0.6,1.1
			c-0.1-0.4,0-0.8,0.2-1.2c0.2-0.4,0.5-0.7,0.9-1C710.8-1187.1,711.2-1187.3,711.7-1187.3z M709.8-1184.5c-0.1,0.4,0,0.9,0.2,1.3
			c0.3,0.5,0.6,0.7,1,0.9c0.4,0.1,0.8,0.1,1.2-0.2c0.4-0.2,0.7-0.6,0.8-1c0.1-0.4,0-0.9-0.3-1.3c-0.3-0.5-0.6-0.8-1-0.9
			c-0.4-0.1-0.8-0.1-1.2,0.2C710.2-1185.3,709.9-1184.9,709.8-1184.5z"/>
		<path class="st6" d="M718.1-1190.9c0.5,0,0.9,0.2,1.4,0.5c0.4,0.3,0.8,0.7,1.1,1.3c0.3,0.5,0.5,1.1,0.5,1.6c0,0.5-0.1,1-0.3,1.4
			c-0.2,0.4-0.6,0.8-1,1c-0.4,0.3-0.9,0.4-1.3,0.3c-0.4,0-0.8-0.2-1.1-0.5l2.1,3.6l-1.3,0.8l-4.4-7.7l1.3-0.8l0.6,1.1
			c-0.1-0.4,0-0.8,0.2-1.2s0.5-0.7,0.9-1C717.1-1190.8,717.6-1190.9,718.1-1190.9z M716.2-1188.2c-0.1,0.4,0,0.9,0.2,1.3
			c0.3,0.5,0.6,0.7,1,0.9c0.4,0.1,0.8,0.1,1.2-0.2c0.4-0.2,0.7-0.6,0.8-1c0.1-0.4,0-0.9-0.3-1.3c-0.3-0.5-0.6-0.8-1-0.9
			c-0.4-0.1-0.8-0.1-1.2,0.2C716.5-1188.9,716.3-1188.6,716.2-1188.2z"/>
		<path class="st6" d="M723.5-1193.9c0.6,0.1,1.1,0.4,1.5,0.9l-1.2,0.7c-0.2-0.2-0.4-0.4-0.7-0.4c-0.3,0-0.5,0-0.8,0.2
			c-0.2,0.1-0.4,0.3-0.4,0.5c-0.1,0.2,0,0.4,0.1,0.5c0.1,0.1,0.2,0.2,0.4,0.3c0.2,0,0.3,0,0.5,0c0.2,0,0.4-0.1,0.8-0.2
			c0.4-0.1,0.8-0.2,1.1-0.3c0.3,0,0.6,0,0.9,0.1c0.3,0.1,0.6,0.3,0.8,0.7c0.3,0.4,0.3,0.9,0.1,1.4c-0.2,0.5-0.6,0.9-1.2,1.2
			c-0.7,0.4-1.3,0.6-1.9,0.5c-0.6-0.1-1.1-0.4-1.5-0.9l1.3-0.7c0.2,0.2,0.4,0.4,0.7,0.4c0.3,0,0.6,0,0.9-0.2
			c0.2-0.1,0.4-0.3,0.4-0.5c0.1-0.2,0-0.4-0.1-0.5c-0.1-0.2-0.2-0.2-0.4-0.3c-0.2,0-0.3,0-0.5,0c-0.2,0-0.4,0.1-0.8,0.2
			c-0.4,0.1-0.8,0.2-1.1,0.3c-0.3,0-0.6,0-0.9-0.1c-0.3-0.1-0.5-0.3-0.7-0.7c-0.3-0.5-0.3-0.9-0.1-1.4c0.2-0.5,0.6-0.9,1.2-1.2
			C722.4-1193.8,723-1194,723.5-1193.9z"/>
		<path class="st6" d="M730.8-1200.5l0.6,1.1l-1.8,1.1l3.2,5.6l-1.3,0.8l-3.2-5.6l-1.8,1.1l-0.6-1.1L730.8-1200.5z"/>
		<path class="st6" d="M736.3-1201.4c0.5,0,1,0.1,1.5,0.4c0.5,0.3,0.9,0.7,1.2,1.2c0.3,0.5,0.5,1.1,0.5,1.6c0,0.5-0.1,1-0.4,1.5
			c-0.3,0.4-0.7,0.8-1.2,1.1c-0.5,0.3-1,0.4-1.6,0.5c-0.5,0-1-0.1-1.5-0.4c-0.5-0.3-0.9-0.7-1.2-1.2c-0.3-0.5-0.5-1.1-0.5-1.6
			c0-0.5,0.1-1,0.4-1.5c0.3-0.4,0.7-0.8,1.2-1.1C735.3-1201.3,735.8-1201.4,736.3-1201.4z M734.7-1198.9c-0.1,0.4,0,0.9,0.3,1.4
			c0.3,0.5,0.6,0.8,1,0.9c0.4,0.1,0.8,0.1,1.2-0.2c0.4-0.2,0.6-0.5,0.7-0.9c0.1-0.4,0-0.9-0.3-1.4c-0.3-0.5-0.6-0.8-1-0.9
			c-0.4-0.1-0.8-0.1-1.2,0.2C735-1199.6,734.8-1199.3,734.7-1198.9z"/>
		<path class="st6" d="M744.5-1199.5l-3-1.3l1.3,2.3l-1.3,0.8l-4-7l1.3-0.8l2.3,3.9l0.5-3.2l1.6-0.9l-0.7,3.9l3.8,1.3L744.5-1199.5z
			"/>
		<path class="st6" d="M750.2-1206l-3.8,2.2c0.3,0.5,0.6,0.7,1,0.8c0.4,0.1,0.7,0,1.1-0.2c0.3-0.2,0.5-0.4,0.6-0.7
			c0.1-0.3,0.1-0.5,0-0.8l1.4-0.8c0.1,0.4,0.2,0.8,0.1,1.2c-0.1,0.4-0.2,0.8-0.5,1.2c-0.3,0.4-0.6,0.7-1,0.9c-0.5,0.3-1,0.4-1.5,0.5
			c-0.5,0-1-0.1-1.5-0.4c-0.5-0.3-0.8-0.7-1.1-1.2c-0.3-0.5-0.5-1.1-0.5-1.6c0-0.5,0.1-1,0.4-1.5c0.3-0.4,0.7-0.8,1.2-1.1
			c0.5-0.3,1-0.4,1.5-0.5c0.5,0,1,0.1,1.4,0.4c0.4,0.3,0.8,0.6,1,1.1C750.1-1206.3,750.2-1206.2,750.2-1206z M747.7-1206.6
			c-0.4-0.1-0.7,0-1.1,0.2c-0.4,0.2-0.6,0.5-0.7,0.9c-0.1,0.4-0.1,0.8,0.2,1.2l2.5-1.5C748.4-1206.2,748.1-1206.5,747.7-1206.6z"/>
		<path class="st6" d="M754.4-1211.5c0.6,0.2,1.1,0.6,1.5,1.4l1.7,3l-1.3,0.8l-1.7-2.9c-0.2-0.4-0.5-0.7-0.9-0.8
			c-0.3-0.1-0.7-0.1-1.1,0.2c-0.4,0.2-0.6,0.5-0.7,0.9c-0.1,0.4,0,0.8,0.3,1.2l1.6,2.8l-1.3,0.8l-3-5.2l1.3-0.8l0.6,1
			c-0.1-0.4,0-0.8,0.2-1.2c0.2-0.4,0.5-0.7,0.9-0.9C753.2-1211.6,753.8-1211.7,754.4-1211.5z"/>
	</g>
	<g>
		<path class="st6" d="M930.8-1254.8c0.3,0.7,0.3,1.5,0,2.4l-1.4-0.8c0.1-0.4,0-0.9-0.2-1.2c-0.2-0.4-0.5-0.7-0.9-1
			c-0.3-0.2-0.7-0.3-1.1-0.3c-0.4,0-0.8,0.1-1.1,0.4c-0.3,0.2-0.7,0.6-0.9,1c-0.3,0.4-0.4,0.9-0.4,1.3c0,0.4,0,0.8,0.2,1.1
			c0.2,0.3,0.4,0.6,0.8,0.8c0.4,0.3,0.8,0.4,1.3,0.3s0.8-0.2,1.2-0.4l1.4,0.8c-0.6,0.6-1.3,1-2.1,1.1c-0.8,0.1-1.6-0.1-2.4-0.6
			c-0.6-0.4-1.1-0.8-1.4-1.4c-0.3-0.6-0.4-1.2-0.4-1.9c0-0.7,0.3-1.3,0.6-2c0.4-0.7,0.9-1.2,1.4-1.5c0.6-0.4,1.2-0.5,1.8-0.5
			c0.6,0,1.3,0.2,1.9,0.6C929.9-1256.1,930.5-1255.5,930.8-1254.8z"/>
		<path class="st6" d="M935.9-1250.2c0.3,0.5,0.4,0.9,0.4,1.5c0,0.5-0.2,1.1-0.5,1.6s-0.7,0.9-1.2,1.2c-0.5,0.3-1,0.4-1.5,0.4
			c-0.5,0-1-0.2-1.5-0.5c-0.5-0.3-0.9-0.7-1.2-1.1c-0.3-0.5-0.4-0.9-0.4-1.5c0-0.5,0.2-1.1,0.5-1.6c0.3-0.5,0.7-0.9,1.2-1.2
			c0.5-0.3,1-0.4,1.5-0.4c0.5,0,1,0.2,1.5,0.5C935.3-1251,935.6-1250.6,935.9-1250.2z M932.9-1250.3c-0.4,0.1-0.8,0.4-1.1,0.9
			c-0.3,0.5-0.4,0.9-0.3,1.4c0.1,0.4,0.3,0.7,0.7,0.9c0.4,0.2,0.8,0.3,1.2,0.2c0.4-0.1,0.8-0.4,1.1-0.9c0.3-0.5,0.4-0.9,0.3-1.4
			c-0.1-0.4-0.3-0.7-0.7-0.9C933.7-1250.4,933.3-1250.4,932.9-1250.3z"/>
		<path class="st6" d="M942.5-1245.9c0.1,0.6,0,1.3-0.5,2l-1.8,3l-1.3-0.8l1.7-2.9c0.2-0.4,0.3-0.8,0.3-1.1
			c-0.1-0.4-0.3-0.6-0.7-0.9c-0.4-0.2-0.7-0.3-1.1-0.2c-0.4,0.1-0.7,0.4-1,0.8l-1.6,2.7l-1.3-0.8l3.1-5.2l1.3,0.8l-0.6,1
			c0.3-0.3,0.7-0.4,1.2-0.4c0.4,0,0.9,0.1,1.3,0.4C942-1247,942.4-1246.5,942.5-1245.9z"/>
		<path class="st6" d="M944.8-1239.7l-0.7,1.1l-0.7-0.4c-0.6-0.3-0.9-0.8-1.1-1.2c-0.1-0.5,0-1,0.4-1.7l1.3-2.2l-0.7-0.4l0.7-1.1
			l0.7,0.4l0.8-1.3l1.3,0.8l-0.8,1.3l1.2,0.7l-0.7,1.1l-1.2-0.7l-1.4,2.3c-0.1,0.2-0.2,0.5-0.2,0.6c0,0.2,0.2,0.3,0.4,0.5
			L944.8-1239.7z"/>
		<path class="st6" d="M951.3-1237.5l-3.8-2.3c-0.3,0.5-0.3,0.9-0.2,1.2c0.1,0.4,0.3,0.6,0.7,0.8c0.3,0.2,0.6,0.3,0.9,0.2
			c0.3,0,0.5-0.2,0.7-0.4l1.4,0.8c-0.3,0.3-0.6,0.6-1,0.7c-0.4,0.2-0.8,0.2-1.3,0.2c-0.4,0-0.9-0.2-1.3-0.5
			c-0.5-0.3-0.9-0.7-1.1-1.1c-0.3-0.4-0.4-0.9-0.4-1.5c0-0.5,0.2-1.1,0.5-1.6c0.3-0.5,0.7-0.9,1.2-1.2c0.5-0.3,0.9-0.4,1.5-0.4
			c0.5,0,1,0.2,1.5,0.5c0.5,0.3,0.9,0.7,1.1,1.1c0.3,0.4,0.4,0.9,0.4,1.4c0,0.5-0.2,1-0.4,1.4
			C951.5-1237.8,951.4-1237.6,951.3-1237.5z M950.6-1240c-0.1-0.4-0.3-0.6-0.7-0.9c-0.4-0.2-0.7-0.3-1.1-0.2c-0.4,0.1-0.7,0.3-1,0.7
			l2.5,1.5C950.6-1239.2,950.7-1239.6,950.6-1240z"/>
		<path class="st6" d="M958.2-1236.5c0.1,0.6,0,1.3-0.5,2l-1.8,3l-1.3-0.8l1.7-2.9c0.2-0.4,0.3-0.8,0.3-1.1
			c-0.1-0.4-0.3-0.6-0.7-0.9c-0.4-0.2-0.7-0.3-1.1-0.2c-0.4,0.1-0.7,0.4-1,0.8l-1.6,2.7l-1.3-0.8l3.1-5.2l1.3,0.8l-0.6,1
			c0.3-0.3,0.7-0.4,1.2-0.4c0.4,0,0.9,0.1,1.3,0.4C957.7-1237.6,958-1237.1,958.2-1236.5z"/>
		<path class="st6" d="M960.5-1230.3l-0.7,1.1l-0.7-0.4c-0.6-0.3-0.9-0.8-1.1-1.2c-0.1-0.5,0-1,0.4-1.7l1.3-2.2l-0.7-0.4l0.7-1.1
			l0.7,0.4l0.8-1.3l1.3,0.8l-0.8,1.3l1.2,0.7l-0.7,1.1l-1.2-0.7l-1.4,2.3c-0.1,0.2-0.2,0.5-0.2,0.6c0,0.2,0.2,0.3,0.4,0.5
			L960.5-1230.3z"/>
		<path class="st6" d="M969.2-1235.6l-8.8,9l-1.3-0.8l8.8-9L969.2-1235.6z"/>
		<path class="st6" d="M966.3-1226.7l2.2,1.3l-0.6,1l-3.5-2.1l3.9-6.6l1.3,0.8L966.3-1226.7z"/>
		<path class="st6" d="M973.9-1229.7l-3.9,6.6l-1.3-0.8l3.9-6.6L973.9-1229.7z"/>
		<path class="st6" d="M976.7-1219.1l-1.3-0.8l-0.3-6.2l-2.7,4.5l-1.3-0.8l3.9-6.6l1.3,0.8l0.2,6.3l2.7-4.5l1.3,0.8L976.7-1219.1z"
			/>
	</g>
	<g>
		<path class="st6" d="M901.7-1207.3c-0.6,0.3-1.2,0.5-1.9,0.4c-0.7,0-1.4-0.3-2.1-0.7l-2.3-1.4l3.9-6.6l2.3,1.4
			c0.7,0.4,1.3,0.9,1.6,1.5c0.4,0.6,0.5,1.2,0.5,1.9c0,0.7-0.2,1.3-0.6,2C902.7-1208.1,902.2-1207.6,901.7-1207.3z M900.3-1208.3
			c0.6-0.1,1.1-0.5,1.5-1.2c0.4-0.7,0.5-1.3,0.4-1.9c-0.2-0.6-0.6-1.1-1.3-1.5l-0.9-0.5l-2.6,4.3l0.9,0.5
			C899-1208.3,899.6-1208.2,900.3-1208.3z"/>
		<path class="st6" d="M906.9-1203.8l-2.6-1.6l-1.3,1l-1.4-0.8l6.3-5.1l1.5,0.9l-1.5,8l-1.4-0.8L906.9-1203.8z M907.2-1205l0.7-3.4
			l-2.6,2.2L907.2-1205z"/>
		<path class="st6" d="M915.9-1203.3c0.2,0.4,0.3,0.9,0.3,1.4c0,0.5-0.2,1-0.6,1.6c-0.3,0.5-0.7,1-1.1,1.2c-0.4,0.3-0.9,0.4-1.4,0.4
			c-0.5,0-0.9-0.1-1.4-0.4c-0.4-0.3-0.7-0.6-0.9-1c-0.2-0.4-0.2-0.8-0.2-1.2l-2.1,3.5l-1.3-0.8l4.6-7.6l1.3,0.8l-0.6,1.1
			c0.3-0.3,0.7-0.4,1.2-0.4c0.4,0,0.9,0.1,1.3,0.4C915.3-1204,915.7-1203.7,915.9-1203.3z M912.6-1203.6c-0.4,0.1-0.8,0.4-1,0.9
			c-0.3,0.5-0.4,0.9-0.3,1.3c0.1,0.4,0.3,0.8,0.7,1c0.4,0.2,0.8,0.3,1.2,0.2c0.4-0.1,0.7-0.4,1-0.9c0.3-0.5,0.4-0.9,0.3-1.3
			c-0.1-0.4-0.3-0.7-0.7-1C913.4-1203.6,913-1203.7,912.6-1203.6z"/>
		<path class="st6" d="M922.2-1199.5c0.2,0.4,0.3,0.9,0.3,1.4c0,0.5-0.2,1-0.6,1.6c-0.3,0.5-0.7,1-1.1,1.2c-0.4,0.3-0.9,0.4-1.4,0.4
			c-0.5,0-0.9-0.1-1.4-0.4c-0.4-0.3-0.7-0.6-0.9-1c-0.2-0.4-0.2-0.8-0.2-1.2l-2.1,3.5l-1.3-0.8l4.6-7.6l1.3,0.8l-0.6,1.1
			c0.3-0.3,0.7-0.4,1.2-0.4s0.9,0.1,1.3,0.4C921.6-1200.3,922-1199.9,922.2-1199.5z M918.9-1199.8c-0.4,0.1-0.8,0.4-1,0.9
			c-0.3,0.5-0.4,0.9-0.3,1.3c0.1,0.4,0.3,0.8,0.7,1c0.4,0.2,0.8,0.3,1.2,0.2c0.4-0.1,0.7-0.4,1-0.9c0.3-0.5,0.4-0.9,0.3-1.3
			s-0.3-0.7-0.7-1C919.7-1199.9,919.3-1199.9,918.9-1199.8z"/>
		<path class="st6" d="M927.4-1196.2c0.2,0.5,0.2,1.1-0.1,1.7l-1.2-0.7c0.1-0.3,0.1-0.5,0-0.8c-0.1-0.3-0.3-0.5-0.5-0.6
			c-0.2-0.1-0.4-0.2-0.6-0.2c-0.2,0-0.3,0.1-0.4,0.3c-0.1,0.1-0.1,0.3-0.1,0.4c0,0.1,0.1,0.3,0.2,0.4c0.1,0.1,0.3,0.3,0.5,0.6
			c0.3,0.3,0.6,0.6,0.8,0.8c0.2,0.2,0.3,0.5,0.4,0.8c0.1,0.3,0,0.6-0.2,1c-0.3,0.4-0.7,0.7-1.2,0.8c-0.5,0.1-1.1-0.1-1.6-0.4
			c-0.7-0.4-1.1-0.9-1.3-1.4c-0.2-0.5-0.2-1.1,0-1.7l1.3,0.8c-0.1,0.3-0.1,0.5,0,0.8c0.1,0.3,0.3,0.5,0.6,0.7
			c0.2,0.1,0.4,0.2,0.6,0.1c0.2,0,0.3-0.1,0.4-0.3c0.1-0.1,0.1-0.3,0.1-0.5c0-0.2-0.1-0.3-0.3-0.4c-0.1-0.1-0.3-0.3-0.5-0.6
			c-0.3-0.3-0.6-0.6-0.8-0.8c-0.2-0.2-0.3-0.5-0.4-0.8c-0.1-0.3,0-0.6,0.2-1c0.3-0.4,0.7-0.7,1.2-0.8c0.5-0.1,1.1,0.1,1.7,0.4
			C926.8-1197.2,927.2-1196.7,927.4-1196.2z"/>
		<path class="st6" d="M936.8-1193l-0.6,1l-1.8-1.1l-3.3,5.5l-1.3-0.8l3.3-5.5l-1.8-1.1l0.6-1L936.8-1193z"/>
		<path class="st6" d="M940.2-1188.7c0.3,0.5,0.4,0.9,0.4,1.5c0,0.5-0.2,1.1-0.5,1.6c-0.3,0.5-0.7,0.9-1.2,1.2
			c-0.5,0.3-1,0.4-1.5,0.4c-0.5,0-1-0.2-1.5-0.5c-0.5-0.3-0.9-0.7-1.2-1.1c-0.3-0.5-0.4-0.9-0.4-1.5c0-0.5,0.2-1.1,0.5-1.6
			c0.3-0.5,0.7-0.9,1.2-1.2c0.5-0.3,1-0.4,1.5-0.4c0.5,0,1,0.2,1.5,0.5C939.6-1189.5,940-1189.1,940.2-1188.7z M937.2-1188.9
			c-0.4,0.1-0.8,0.4-1.1,0.9c-0.3,0.5-0.4,0.9-0.3,1.4c0.1,0.4,0.3,0.7,0.7,0.9s0.8,0.3,1.2,0.2c0.4-0.1,0.8-0.4,1.1-0.9
			c0.3-0.5,0.4-0.9,0.3-1.4c-0.1-0.4-0.3-0.7-0.7-0.9C938-1188.9,937.6-1189,937.2-1188.9z"/>
		<path class="st6" d="M942.5-1180.6l-0.4-3.3l-1.4,2.3l-1.3-0.8l4.1-6.9l1.3,0.8l-2.3,3.9l3-1.1l1.6,0.9l-3.7,1.3l0.7,3.9
			L942.5-1180.6z"/>
		<path class="st6" d="M951-1178.8l-3.8-2.3c-0.3,0.5-0.3,0.9-0.2,1.2c0.1,0.4,0.3,0.6,0.7,0.8c0.3,0.2,0.6,0.3,0.9,0.2
			c0.3,0,0.5-0.2,0.7-0.4l1.4,0.8c-0.3,0.3-0.6,0.6-1,0.7c-0.4,0.2-0.8,0.2-1.3,0.2c-0.4,0-0.9-0.2-1.3-0.5
			c-0.5-0.3-0.9-0.7-1.1-1.1c-0.3-0.4-0.4-0.9-0.4-1.5c0-0.5,0.2-1.1,0.5-1.6s0.7-0.9,1.2-1.2c0.5-0.3,0.9-0.4,1.5-0.4
			c0.5,0,1,0.2,1.5,0.5c0.5,0.3,0.9,0.7,1.1,1.1c0.3,0.4,0.4,0.9,0.4,1.4c0,0.5-0.2,1-0.4,1.4C951.2-1179,951.1-1178.9,951-1178.8z
			 M950.3-1181.3c-0.1-0.4-0.3-0.6-0.7-0.9c-0.4-0.2-0.7-0.3-1.1-0.2c-0.4,0.1-0.7,0.3-1,0.7l2.5,1.5
			C950.3-1180.5,950.4-1180.9,950.3-1181.3z"/>
		<path class="st6" d="M957.9-1177.8c0.1,0.6,0,1.3-0.5,2l-1.8,3l-1.3-0.8l1.7-2.9c0.2-0.4,0.3-0.8,0.3-1.1
			c-0.1-0.4-0.3-0.6-0.7-0.9c-0.4-0.2-0.7-0.3-1.1-0.2c-0.4,0.1-0.7,0.4-1,0.8l-1.6,2.7l-1.3-0.8l3.1-5.2l1.3,0.8l-0.6,1
			c0.3-0.3,0.7-0.4,1.2-0.4c0.4,0,0.9,0.1,1.3,0.4C957.4-1178.9,957.7-1178.4,957.9-1177.8z"/>
	</g>
	<g>
		<path class="st6" d="M802.8-1137.6c0.3-0.3,0.8-0.4,1.2-0.4c0.6,0,1.2,0.2,1.5,0.7c0.4,0.4,0.6,1.1,0.5,1.9l0,3.3l-7.7-0.1l0-3.2
			c0-0.8,0.2-1.4,0.5-1.8c0.3-0.4,0.8-0.6,1.4-0.6c0.5,0,0.9,0.1,1.2,0.4c0.3,0.3,0.5,0.6,0.6,1
			C802.2-1136.9,802.4-1137.3,802.8-1137.6z M801.6-1133.7l0-1.4c0-0.4-0.1-0.7-0.2-0.9c-0.2-0.2-0.4-0.3-0.7-0.3
			c-0.3,0-0.6,0.1-0.7,0.3c-0.2,0.2-0.3,0.5-0.3,0.9l0,1.4L801.6-1133.7z M804.6-1136.1c-0.2-0.2-0.4-0.3-0.8-0.3
			c-0.3,0-0.6,0.1-0.8,0.3c-0.2,0.2-0.3,0.5-0.3,0.9l0,1.4l2.1,0l0-1.5C804.8-1135.6,804.7-1135.9,804.6-1136.1z"/>
		<path class="st6" d="M800.4-1142.7c0.2-0.4,0.6-0.6,1-0.8l-1.2,0l0-1.5l6,0l0,1.5l-1.3,0c0.4,0.2,0.7,0.4,1,0.8
			c0.2,0.4,0.4,0.8,0.4,1.3c0,0.5-0.1,1-0.4,1.4c-0.2,0.4-0.6,0.7-1.1,0.9c-0.5,0.2-1,0.3-1.6,0.3c-0.6,0-1.2-0.1-1.6-0.4
			c-0.5-0.2-0.8-0.6-1.1-1c-0.2-0.4-0.4-0.9-0.4-1.4S800.1-1142.4,800.4-1142.7z M801.8-1140.8c0.3,0.3,0.7,0.4,1.3,0.4
			c0.5,0,1-0.1,1.3-0.4c0.3-0.3,0.5-0.7,0.5-1.1c0-0.5-0.2-0.8-0.5-1.1c-0.3-0.3-0.7-0.5-1.3-0.5c-0.5,0-1,0.1-1.3,0.4
			c-0.3,0.3-0.5,0.7-0.5,1.1C801.4-1141.4,801.5-1141,801.8-1140.8z"/>
		<path class="st6" d="M800.8-1151.7c0.5-0.4,1.1-0.6,1.9-0.6l3.5,0l0,1.5l-3.3,0c-0.5,0-0.9,0.1-1.1,0.4c-0.3,0.2-0.4,0.6-0.4,1
			c0,0.4,0.1,0.8,0.4,1c0.3,0.3,0.7,0.4,1.2,0.4l3.2,0l0,1.5l-6,0l0-1.5l1.2,0c-0.4-0.2-0.7-0.4-0.9-0.8c-0.2-0.4-0.3-0.8-0.3-1.3
			C800.1-1150.7,800.3-1151.3,800.8-1151.7z"/>
		<path class="st6" d="M800.5-1157.3c0.2-0.4,0.6-0.6,1-0.8l-3.3,0l0-1.5l8,0.1l0,1.5l-1.3,0c0.4,0.2,0.7,0.4,1,0.8
			c0.2,0.4,0.4,0.8,0.4,1.3s-0.1,1-0.4,1.4c-0.2,0.4-0.6,0.7-1.1,0.9c-0.5,0.2-1,0.3-1.6,0.3c-0.6,0-1.2-0.1-1.6-0.4
			c-0.5-0.2-0.8-0.6-1.1-1c-0.2-0.4-0.4-0.9-0.4-1.4S800.2-1156.9,800.5-1157.3z M801.9-1155.3c0.3,0.3,0.7,0.4,1.3,0.4
			c0.5,0,1-0.1,1.3-0.4c0.3-0.3,0.5-0.7,0.5-1.1c0-0.5-0.2-0.8-0.5-1.1c-0.3-0.3-0.7-0.5-1.3-0.5c-0.5,0-1,0.1-1.3,0.4
			c-0.3,0.3-0.5,0.7-0.5,1.1C801.5-1156,801.6-1155.6,801.9-1155.3z"/>
		<path class="st6" d="M800.3-1169.6l6,1.7l0,1.7l-4.4,1.3l4.4,1.4l0,1.7l-6,1.6l0-1.5l4.7-0.9l-4.6-1.4l0-1.6l4.7-1.3l-4.6-1
			L800.3-1169.6z"/>
		<path class="st6" d="M798-1170.5c-0.2-0.2-0.2-0.4-0.2-0.7c0-0.3,0.1-0.5,0.2-0.7c0.2-0.2,0.4-0.3,0.6-0.3c0.2,0,0.4,0.1,0.6,0.3
			c0.2,0.2,0.2,0.4,0.2,0.7c0,0.3-0.1,0.5-0.2,0.7c-0.2,0.2-0.4,0.3-0.6,0.3C798.3-1170.2,798.1-1170.3,798-1170.5z M800.3-1171.9
			l6,0l0,1.5l-6,0L800.3-1171.9z"/>
		<path class="st6" d="M800.6-1176.9c0.2-0.4,0.6-0.6,1-0.8l-3.3,0l0-1.5l8,0.1l0,1.5l-1.3,0c0.4,0.2,0.7,0.4,1,0.8
			c0.2,0.4,0.4,0.8,0.4,1.3c0,0.5-0.1,1-0.4,1.4c-0.2,0.4-0.6,0.7-1.1,0.9c-0.5,0.2-1,0.3-1.6,0.3c-0.6,0-1.2-0.1-1.6-0.4
			c-0.5-0.2-0.8-0.6-1.1-1c-0.2-0.4-0.4-0.9-0.4-1.4C800.2-1176.1,800.4-1176.6,800.6-1176.9z M802-1175c0.3,0.3,0.7,0.4,1.3,0.4
			c0.5,0,1-0.1,1.3-0.4c0.3-0.3,0.5-0.7,0.5-1.1c0-0.5-0.2-0.8-0.5-1.1c-0.3-0.3-0.7-0.5-1.3-0.5c-0.5,0-1,0.1-1.3,0.4
			c-0.3,0.3-0.5,0.7-0.5,1.1C801.6-1175.6,801.7-1175.2,802-1175z"/>
		<path class="st6" d="M805.1-1183.8l1.3,0l0,0.8c0,0.7-0.2,1.2-0.5,1.5c-0.3,0.4-0.9,0.5-1.6,0.5l-2.6,0l0,0.8l-1.3,0l0-0.8l-1.5,0
			l0-1.5l1.5,0l0-1.3l1.3,0l0,1.3l2.6,0c0.3,0,0.5-0.1,0.6-0.2c0.1-0.1,0.2-0.3,0.2-0.6L805.1-1183.8z"/>
		<path class="st6" d="M801-1190.2c0.5-0.4,1.1-0.6,1.9-0.6l3.5,0l0,1.5l-3.3,0c-0.5,0-0.9,0.1-1.1,0.4c-0.3,0.2-0.4,0.6-0.4,1
			c0,0.4,0.1,0.8,0.4,1s0.7,0.4,1.2,0.4l3.2,0l0,1.5l-8-0.1l0-1.5l3.2,0c-0.4-0.2-0.7-0.4-0.9-0.8c-0.2-0.4-0.3-0.8-0.3-1.3
			C800.3-1189.2,800.6-1189.8,801-1190.2z"/>
	</g>
	<g>
		<path class="st6" d="M842.5-1189.4l3-1.8l0-0.7l-3,0l0-1.5l7.7,0.1l0,2.9c0,0.9-0.2,1.6-0.7,2c-0.4,0.5-1,0.7-1.7,0.7
			c-0.6,0-1.1-0.2-1.5-0.5c-0.4-0.3-0.6-0.8-0.8-1.4l-3.1,1.9L842.5-1189.4z M846.5-1191.8l0,1.3c0,0.9,0.4,1.3,1.2,1.3
			c0.4,0,0.7-0.1,0.9-0.3s0.3-0.5,0.3-1l0-1.3L846.5-1191.8z"/>
		<path class="st6" d="M845.1-1181.1l0-4.4c-0.5,0-0.9,0.2-1.2,0.4c-0.3,0.3-0.4,0.6-0.4,1c0,0.4,0.1,0.7,0.3,0.9
			c0.2,0.2,0.4,0.4,0.7,0.5l0,1.6c-0.4-0.1-0.8-0.3-1.1-0.5c-0.3-0.3-0.6-0.6-0.8-1c-0.2-0.4-0.3-0.9-0.3-1.4c0-0.6,0.1-1.1,0.4-1.6
			c0.3-0.5,0.6-0.8,1.1-1.1c0.5-0.3,1-0.4,1.6-0.4c0.6,0,1.2,0.1,1.6,0.4c0.5,0.3,0.8,0.6,1.1,1.1c0.2,0.5,0.4,1,0.4,1.6
			c0,0.6-0.1,1.1-0.4,1.6c-0.2,0.4-0.6,0.8-1,1c-0.4,0.2-0.9,0.4-1.5,0.4C845.5-1181,845.3-1181.1,845.1-1181.1z M846.9-1182.9
			c0.3-0.3,0.4-0.6,0.4-1c0-0.4-0.1-0.8-0.4-1c-0.3-0.3-0.6-0.4-1.1-0.5l0,2.9C846.3-1182.5,846.7-1182.7,846.9-1182.9z"/>
		<path class="st6" d="M848.4-1171.3l-6-1.7l0-1.7l4.4-1.3l-4.4-1.4l0-1.7l6-1.6l0,1.5l-4.7,0.9l4.6,1.4l0,1.6l-4.7,1.3l4.6,1
			L848.4-1171.3z"/>
		<path class="st6" d="M848.1-1166.9c-0.2,0.4-0.6,0.6-1,0.8l1.2,0l0,1.5l-6,0l0-1.5l1.3,0c-0.4-0.2-0.7-0.4-1-0.8
			c-0.2-0.4-0.4-0.8-0.4-1.3c0-0.5,0.1-1,0.4-1.4c0.2-0.4,0.6-0.7,1.1-0.9c0.5-0.2,1-0.3,1.6-0.3c0.6,0,1.2,0.1,1.6,0.4
			c0.5,0.2,0.8,0.6,1.1,1c0.2,0.4,0.4,0.9,0.4,1.4C848.4-1167.7,848.3-1167.3,848.1-1166.9z M846.6-1168.9c-0.3-0.3-0.7-0.4-1.3-0.4
			c-0.5,0-1,0.1-1.3,0.4c-0.3,0.3-0.5,0.7-0.5,1.1c0,0.5,0.2,0.8,0.5,1.1c0.3,0.3,0.7,0.5,1.3,0.5c0.5,0,1-0.1,1.3-0.4
			c0.3-0.3,0.5-0.7,0.5-1.1C847.1-1168.2,846.9-1168.6,846.6-1168.9z"/>
		<path class="st6" d="M848.1-1160.8c0.2,0.4,0.3,0.8,0.3,1.2l-1.6,0l0-0.4c0-1.1-0.5-1.7-1.6-1.7l-2.9,0l0-1.5l6,0l0,1.5l-1.2,0
			C847.5-1161.5,847.8-1161.2,848.1-1160.8z"/>
		<path class="st6" d="M848-1155c-0.2,0.4-0.6,0.6-1,0.8l3.3,0l0,1.5l-8-0.1l0-1.5l1.3,0c-0.4-0.2-0.7-0.4-1-0.8
			c-0.2-0.4-0.4-0.8-0.4-1.3s0.1-1,0.4-1.4c0.2-0.4,0.6-0.7,1.1-0.9c0.5-0.2,1-0.3,1.6-0.3c0.6,0,1.2,0.1,1.6,0.4
			c0.5,0.2,0.8,0.6,1.1,1c0.2,0.4,0.4,0.9,0.4,1.4S848.2-1155.4,848-1155z M846.6-1157c-0.3-0.3-0.7-0.4-1.3-0.4
			c-0.5,0-1,0.1-1.3,0.4c-0.3,0.3-0.5,0.7-0.5,1.1c0,0.5,0.2,0.8,0.5,1.1c0.3,0.3,0.7,0.5,1.3,0.5c0.5,0,1-0.1,1.3-0.4
			c0.3-0.3,0.5-0.7,0.5-1.1C847-1156.3,846.9-1156.7,846.6-1157z"/>
		<path class="st6" d="M847.7-1147.5c-0.4,0.4-0.9,0.7-1.5,0.8l0-1.4c0.3-0.1,0.5-0.2,0.7-0.4c0.2-0.2,0.3-0.5,0.3-0.8
			c0-0.3-0.1-0.5-0.2-0.6c-0.1-0.1-0.3-0.2-0.5-0.2c-0.2,0-0.3,0.1-0.4,0.2c-0.1,0.1-0.2,0.3-0.2,0.4c-0.1,0.2-0.1,0.4-0.2,0.7
			c-0.1,0.5-0.2,0.8-0.3,1.1c-0.1,0.3-0.3,0.5-0.5,0.7c-0.2,0.2-0.6,0.3-1,0.3c-0.5,0-0.9-0.2-1.2-0.6c-0.3-0.4-0.5-0.9-0.5-1.6
			c0-0.8,0.2-1.4,0.5-1.9c0.4-0.5,0.9-0.8,1.5-0.8l0,1.5c-0.3,0-0.5,0.2-0.7,0.4c-0.2,0.2-0.3,0.5-0.3,0.9c0,0.3,0.1,0.5,0.2,0.6
			c0.1,0.1,0.3,0.2,0.5,0.2c0.2,0,0.3-0.1,0.4-0.2c0.1-0.1,0.2-0.3,0.3-0.4c0.1-0.2,0.1-0.4,0.2-0.8c0.1-0.4,0.2-0.8,0.3-1.1
			c0.1-0.3,0.3-0.5,0.5-0.7s0.6-0.3,1-0.3c0.5,0,0.9,0.2,1.3,0.6c0.3,0.4,0.5,1,0.5,1.7C848.3-1148.5,848.1-1148,847.7-1147.5z"/>
	</g>
	<g>
		<path class="st6" d="M788.4-1410.8h2.6v1.2h-4.1v-7.7h1.5V-1410.8z"/>
		<path class="st6" d="M793.4-1417.3v7.7h-1.5v-7.7H793.4z"/>
		<path class="st6" d="M801.3-1409.6h-1.5l-3.4-5.2v5.2h-1.5v-7.7h1.5l3.4,5.3v-5.3h1.5V-1409.6z"/>
	</g>
	<g>
		<path class="st6" d="M665.3-952.7l-3.2-5.7h-0.8v5.7h-3.6v-15h6.2c1.2,0,2.2,0.2,3,0.6c0.8,0.4,1.4,1,1.8,1.7
			c0.4,0.7,0.6,1.5,0.6,2.5c0,1.1-0.3,2-0.9,2.8c-0.6,0.8-1.5,1.3-2.6,1.6l3.6,5.9H665.3z M661.2-960.9h2.3c0.7,0,1.3-0.2,1.6-0.5
			c0.3-0.3,0.5-0.8,0.5-1.4c0-0.6-0.2-1.1-0.5-1.4c-0.3-0.3-0.9-0.5-1.6-0.5h-2.3V-960.9z"/>
		<path class="st6" d="M682.2-958H674c0,0.9,0.3,1.5,0.7,1.9c0.4,0.4,0.9,0.6,1.6,0.6c0.5,0,1-0.1,1.3-0.4c0.4-0.3,0.6-0.6,0.7-1
			h3.8c-0.2,0.8-0.5,1.6-1,2.2c-0.5,0.7-1.2,1.2-2,1.6c-0.8,0.4-1.7,0.6-2.7,0.6c-1.2,0-2.2-0.2-3.1-0.7c-0.9-0.5-1.6-1.2-2.1-2.1
			c-0.5-0.9-0.8-2-0.8-3.2c0-1.2,0.3-2.3,0.8-3.2c0.5-0.9,1.2-1.6,2.1-2.1c0.9-0.5,1.9-0.7,3.1-0.7c1.2,0,2.2,0.2,3.1,0.7
			c0.9,0.5,1.6,1.2,2.1,2c0.5,0.9,0.7,1.9,0.7,3C682.3-958.7,682.3-958.4,682.2-958z M678-961.3c-0.4-0.4-1-0.6-1.6-0.6
			c-0.7,0-1.2,0.2-1.7,0.6c-0.4,0.4-0.7,1-0.7,1.7h4.6C678.7-960.3,678.4-960.9,678-961.3z"/>
		<path class="st6" d="M687.8-968.5v15.7h-3.6v-15.7H687.8z"/>
		<path class="st6" d="M697.2-964.1c0.7,0.4,1.1,1,1.4,1.7v-2.1h3.6v11.9h-3.6v-2.1c-0.3,0.7-0.8,1.3-1.4,1.7
			c-0.7,0.4-1.4,0.6-2.3,0.6c-1,0-1.9-0.2-2.6-0.7c-0.8-0.5-1.4-1.2-1.8-2.1c-0.4-0.9-0.7-2-0.7-3.2c0-1.2,0.2-2.3,0.7-3.2
			c0.4-0.9,1.1-1.6,1.8-2.1c0.8-0.5,1.6-0.7,2.6-0.7C695.7-964.7,696.5-964.5,697.2-964.1z M694.1-960.8c-0.5,0.5-0.7,1.2-0.7,2.1
			c0,0.9,0.2,1.6,0.7,2.1s1.1,0.8,1.9,0.8c0.8,0,1.4-0.3,1.9-0.8c0.5-0.5,0.7-1.2,0.7-2.1c0-0.9-0.2-1.6-0.7-2.1
			c-0.5-0.5-1.1-0.8-1.9-0.8C695.2-961.6,694.6-961.3,694.1-960.8z"/>
		<path class="st6" d="M707.5-964.6l2.8,7.3l2.7-7.3h4l-7.4,17.5h-4l2.8-6.1l-5-11.4H707.5z"/>
		<path class="st6" d="M729.4-958h-8.2c0,0.9,0.3,1.5,0.7,1.9c0.4,0.4,0.9,0.6,1.6,0.6c0.5,0,1-0.1,1.3-0.4c0.4-0.3,0.6-0.6,0.7-1
			h3.8c-0.2,0.8-0.5,1.6-1,2.2c-0.5,0.7-1.2,1.2-2,1.6c-0.8,0.4-1.7,0.6-2.7,0.6c-1.2,0-2.2-0.2-3.1-0.7c-0.9-0.5-1.6-1.2-2.1-2.1
			c-0.5-0.9-0.8-2-0.8-3.2c0-1.2,0.3-2.3,0.8-3.2c0.5-0.9,1.2-1.6,2.1-2.1c0.9-0.5,1.9-0.7,3.1-0.7c1.2,0,2.2,0.2,3.1,0.7
			c0.9,0.5,1.6,1.2,2.1,2c0.5,0.9,0.7,1.9,0.7,3C729.5-958.7,729.4-958.4,729.4-958z M725.2-961.3c-0.4-0.4-1-0.6-1.6-0.6
			c-0.7,0-1.2,0.2-1.7,0.6c-0.4,0.4-0.7,1-0.7,1.7h4.6C725.8-960.3,725.6-960.9,725.2-961.3z"/>
		<path class="st6" d="M736.7-964.1c0.7-0.4,1.5-0.6,2.3-0.6v3.9h-1c-1,0-1.7,0.2-2.2,0.6c-0.5,0.4-0.8,1.1-0.8,2.1v5.4h-3.6v-11.9
			h3.6v2.2C735.4-963.1,736-963.7,736.7-964.1z"/>
		<path class="st6" d="M748.5-963.6c0.9,0.8,1.5,1.7,1.7,3h-3.4c-0.1-0.5-0.3-0.9-0.7-1.1c-0.3-0.3-0.8-0.4-1.3-0.4
			c-0.4,0-0.7,0.1-0.9,0.3c-0.2,0.2-0.3,0.4-0.3,0.8c0,0.4,0.2,0.6,0.6,0.8c0.4,0.2,1,0.4,1.8,0.6c0.9,0.2,1.6,0.4,2.2,0.6
			c0.6,0.2,1.1,0.6,1.5,1.1c0.4,0.5,0.6,1.2,0.6,2c0,0.7-0.2,1.3-0.6,1.8c-0.4,0.5-0.9,0.9-1.6,1.2c-0.7,0.3-1.5,0.4-2.5,0.4
			c-1.6,0-2.9-0.4-3.8-1.1c-1-0.7-1.6-1.7-1.8-3h3.5c0.1,0.5,0.3,0.9,0.6,1.2c0.4,0.3,0.9,0.4,1.5,0.4c0.4,0,0.7-0.1,0.9-0.3
			c0.2-0.2,0.3-0.4,0.3-0.8c0-0.4-0.2-0.7-0.6-0.9c-0.4-0.2-1-0.4-1.9-0.6c-0.9-0.2-1.6-0.4-2.2-0.6c-0.6-0.2-1.1-0.6-1.5-1
			c-0.4-0.5-0.6-1.1-0.6-1.9c0-1.1,0.4-1.9,1.2-2.6c0.8-0.7,1.9-1,3.4-1C746.4-964.7,747.6-964.4,748.5-963.6z"/>
		<path class="st6" d="M764.9-961.7v3h-9.4v-3H764.9z"/>
		<path class="st6" d="M783.6-959.2c0.5,0.7,0.8,1.4,0.8,2.3c0,1.3-0.4,2.3-1.3,3c-0.9,0.7-2.1,1.1-3.7,1.1h-7v-15h6.8
			c1.5,0,2.7,0.3,3.5,1c0.8,0.7,1.3,1.6,1.3,2.8c0,0.9-0.2,1.7-0.7,2.3c-0.5,0.6-1.1,1-1.9,1.2C782.3-960.3,783-959.8,783.6-959.2z
			 M776-961.6h2.4c1.3,0,1.9-0.5,1.9-1.6c0-1.1-0.6-1.6-1.9-1.6H776V-961.6z M780.6-957.4c0-0.5-0.2-1-0.5-1.3
			c-0.4-0.3-0.9-0.5-1.5-0.5H776v3.4h2.6C780-955.7,780.6-956.3,780.6-957.4z"/>
		<path class="st6" d="M793.1-964.1c0.7,0.4,1.1,1,1.4,1.7v-2.1h3.6v11.9h-3.6v-2.1c-0.3,0.7-0.8,1.3-1.4,1.7
			c-0.7,0.4-1.4,0.6-2.3,0.6c-1,0-1.9-0.2-2.6-0.7c-0.8-0.5-1.4-1.2-1.8-2.1c-0.4-0.9-0.7-2-0.7-3.2c0-1.2,0.2-2.3,0.7-3.2
			c0.4-0.9,1.1-1.6,1.8-2.1c0.8-0.5,1.6-0.7,2.6-0.7C791.7-964.7,792.5-964.5,793.1-964.1z M790.1-960.8c-0.5,0.5-0.7,1.2-0.7,2.1
			c0,0.9,0.2,1.6,0.7,2.1s1.1,0.8,1.9,0.8c0.8,0,1.4-0.3,1.9-0.8c0.5-0.5,0.7-1.2,0.7-2.1c0-0.9-0.2-1.6-0.7-2.1
			c-0.5-0.5-1.1-0.8-1.9-0.8C791.2-961.6,790.5-961.3,790.1-960.8z"/>
		<path class="st6" d="M811.4-963.4c0.8,0.9,1.2,2.2,1.2,3.7v6.9H809v-6.5c0-0.8-0.2-1.4-0.6-1.9c-0.4-0.4-1-0.7-1.7-0.7
			c-0.7,0-1.3,0.2-1.8,0.7c-0.4,0.5-0.6,1.1-0.6,2v6.3h-3.6v-11.9h3.6v2.2c0.3-0.7,0.8-1.3,1.5-1.7c0.7-0.4,1.5-0.6,2.4-0.6
			C809.5-964.7,810.6-964.3,811.4-963.4z"/>
		<path class="st6" d="M821.9-964.1c0.7,0.4,1.1,1,1.4,1.7v-6h3.6v15.7h-3.6v-2.1c-0.3,0.7-0.8,1.3-1.4,1.7
			c-0.7,0.4-1.4,0.6-2.3,0.6c-1,0-1.9-0.2-2.6-0.7c-0.8-0.5-1.4-1.2-1.8-2.1c-0.4-0.9-0.7-2-0.7-3.2c0-1.2,0.2-2.3,0.7-3.2
			c0.4-0.9,1.1-1.6,1.8-2.1c0.8-0.5,1.6-0.7,2.6-0.7C820.4-964.7,821.2-964.5,821.9-964.1z M818.8-960.8c-0.5,0.5-0.7,1.2-0.7,2.1
			c0,0.9,0.2,1.6,0.7,2.1c0.5,0.5,1.1,0.8,1.9,0.8c0.8,0,1.4-0.3,1.9-0.8c0.5-0.5,0.7-1.2,0.7-2.1c0-0.9-0.2-1.6-0.7-2.1
			s-1.1-0.8-1.9-0.8C819.9-961.6,819.3-961.3,818.8-960.8z"/>
		<path class="st6" d="M846.8-964.6l-3,11.9h-4.1l-2.1-7.9l-2.2,7.9h-4.1l-3-11.9h3.6l1.6,8.5l2.2-8.5h3.9l2.3,8.6l1.6-8.6H846.8z"
			/>
		<path class="st6" d="M848.3-969.3c0.4-0.4,0.9-0.5,1.6-0.5c0.7,0,1.2,0.2,1.6,0.5c0.4,0.4,0.6,0.8,0.6,1.4c0,0.5-0.2,1-0.6,1.3
			c-0.4,0.4-0.9,0.5-1.6,0.5c-0.7,0-1.2-0.2-1.6-0.5c-0.4-0.4-0.6-0.8-0.6-1.3C847.7-968.5,847.9-968.9,848.3-969.3z M851.7-964.6
			v11.9h-3.6v-11.9H851.7z"/>
		<path class="st6" d="M861-964.1c0.7,0.4,1.1,1,1.4,1.7v-6h3.6v15.7h-3.6v-2.1c-0.3,0.7-0.8,1.3-1.4,1.7c-0.7,0.4-1.4,0.6-2.3,0.6
			c-1,0-1.9-0.2-2.6-0.7c-0.8-0.5-1.4-1.2-1.8-2.1c-0.4-0.9-0.7-2-0.7-3.2c0-1.2,0.2-2.3,0.7-3.2c0.4-0.9,1.1-1.6,1.8-2.1
			c0.8-0.5,1.6-0.7,2.6-0.7C859.6-964.7,860.4-964.5,861-964.1z M858-960.8c-0.5,0.5-0.7,1.2-0.7,2.1c0,0.9,0.2,1.6,0.7,2.1
			s1.1,0.8,1.9,0.8c0.8,0,1.4-0.3,1.9-0.8c0.5-0.5,0.7-1.2,0.7-2.1c0-0.9-0.2-1.6-0.7-2.1c-0.5-0.5-1.1-0.8-1.9-0.8
			C859.1-961.6,858.5-961.3,858-960.8z"/>
		<path class="st6" d="M875.3-955.9v3.1h-1.6c-1.4,0-2.5-0.3-3.2-1c-0.8-0.7-1.2-1.8-1.2-3.4v-4.4h-1.6v-3.1h1.6v-2.9h3.6v2.9h2.4
			v3.1h-2.4v4.4c0,0.5,0.1,0.8,0.3,1c0.2,0.2,0.5,0.3,1,0.3H875.3z"/>
		<path class="st6" d="M888.1-963.4c0.8,0.9,1.2,2.2,1.2,3.7v6.9h-3.6v-6.5c0-0.8-0.2-1.4-0.6-1.9c-0.4-0.4-1-0.7-1.7-0.7
			c-0.7,0-1.3,0.2-1.8,0.7c-0.4,0.5-0.6,1.1-0.6,2v6.3h-3.6v-15.7h3.6v6c0.3-0.7,0.8-1.3,1.5-1.7c0.7-0.4,1.5-0.6,2.4-0.6
			C886.2-964.7,887.3-964.3,888.1-963.4z"/>
		<path class="st6" d="M899.6-958v5.3H896v-15h5.9c1.8,0,3.1,0.4,4.1,1.3c0.9,0.9,1.4,2.1,1.4,3.6c0,0.9-0.2,1.8-0.6,2.5
			c-0.4,0.7-1,1.3-1.9,1.7c-0.8,0.4-1.8,0.6-3,0.6H899.6z M903.6-962.9c0-1.3-0.7-2-2.2-2h-1.8v3.9h1.8
			C902.9-960.9,903.6-961.6,903.6-962.9z"/>
		<path class="st6" d="M914.5-964.1c0.7-0.4,1.5-0.6,2.3-0.6v3.9h-1c-1,0-1.7,0.2-2.2,0.6c-0.5,0.4-0.8,1.1-0.8,2.1v5.4h-3.6v-11.9
			h3.6v2.2C913.2-963.1,913.8-963.7,914.5-964.1z"/>
		<path class="st6" d="M927-964c0.9,0.5,1.7,1.2,2.2,2.1c0.5,0.9,0.8,2,0.8,3.2c0,1.2-0.3,2.3-0.8,3.2c-0.5,0.9-1.3,1.6-2.2,2.1
			c-0.9,0.5-2,0.7-3.2,0.7s-2.2-0.2-3.2-0.7c-0.9-0.5-1.7-1.2-2.2-2.1c-0.5-0.9-0.8-2-0.8-3.2c0-1.2,0.3-2.3,0.8-3.2
			c0.5-0.9,1.3-1.6,2.2-2.1c0.9-0.5,2-0.7,3.2-0.7S926.1-964.5,927-964z M922.1-960.9c-0.5,0.5-0.7,1.2-0.7,2.2
			c0,0.9,0.2,1.7,0.7,2.2c0.5,0.5,1.1,0.7,1.8,0.7s1.3-0.2,1.7-0.7c0.5-0.5,0.7-1.2,0.7-2.2c0-0.9-0.2-1.7-0.7-2.2
			c-0.5-0.5-1-0.8-1.7-0.8S922.6-961.4,922.1-960.9z"/>
		<path class="st6" d="M937.4-956.3l2.6-8.3h3.9l-4.2,11.9h-4.5l-4.2-11.9h3.9L937.4-956.3z"/>
		<path class="st6" d="M945.6-969.3c0.4-0.4,0.9-0.5,1.6-0.5c0.7,0,1.2,0.2,1.6,0.5c0.4,0.4,0.6,0.8,0.6,1.4c0,0.5-0.2,1-0.6,1.3
			c-0.4,0.4-0.9,0.5-1.6,0.5c-0.7,0-1.2-0.2-1.6-0.5c-0.4-0.4-0.6-0.8-0.6-1.3C945-968.5,945.2-968.9,945.6-969.3z M949-964.6v11.9
			h-3.6v-11.9H949z"/>
		<path class="st6" d="M958.3-964.1c0.7,0.4,1.1,1,1.4,1.7v-6h3.6v15.7h-3.6v-2.1c-0.3,0.7-0.8,1.3-1.4,1.7
			c-0.7,0.4-1.4,0.6-2.3,0.6c-1,0-1.9-0.2-2.6-0.7c-0.8-0.5-1.4-1.2-1.8-2.1c-0.4-0.9-0.7-2-0.7-3.2c0-1.2,0.2-2.3,0.7-3.2
			c0.4-0.9,1.1-1.6,1.8-2.1c0.8-0.5,1.6-0.7,2.6-0.7C956.9-964.7,957.7-964.5,958.3-964.1z M955.3-960.8c-0.5,0.5-0.7,1.2-0.7,2.1
			c0,0.9,0.2,1.6,0.7,2.1s1.1,0.8,1.9,0.8c0.8,0,1.4-0.3,1.9-0.8c0.5-0.5,0.7-1.2,0.7-2.1c0-0.9-0.2-1.6-0.7-2.1
			c-0.5-0.5-1.1-0.8-1.9-0.8C956.4-961.6,955.7-961.3,955.3-960.8z"/>
		<path class="st6" d="M977-958h-8.2c0,0.9,0.3,1.5,0.7,1.9c0.4,0.4,0.9,0.6,1.6,0.6c0.5,0,1-0.1,1.3-0.4c0.4-0.3,0.6-0.6,0.7-1h3.8
			c-0.2,0.8-0.5,1.6-1,2.2c-0.5,0.7-1.2,1.2-2,1.6c-0.8,0.4-1.7,0.6-2.7,0.6c-1.2,0-2.2-0.2-3.1-0.7c-0.9-0.5-1.6-1.2-2.1-2.1
			c-0.5-0.9-0.8-2-0.8-3.2c0-1.2,0.3-2.3,0.8-3.2c0.5-0.9,1.2-1.6,2.1-2.1c0.9-0.5,1.9-0.7,3.1-0.7c1.2,0,2.2,0.2,3.1,0.7
			c0.9,0.5,1.6,1.2,2.1,2c0.5,0.9,0.7,1.9,0.7,3C977.1-958.7,977.1-958.4,977-958z M972.8-961.3c-0.4-0.4-1-0.6-1.6-0.6
			c-0.7,0-1.2,0.2-1.7,0.6c-0.4,0.4-0.7,1-0.7,1.7h4.6C973.5-960.3,973.3-960.9,972.8-961.3z"/>
		<path class="st6" d="M984.4-964.1c0.7-0.4,1.5-0.6,2.3-0.6v3.9h-1c-1,0-1.7,0.2-2.2,0.6c-0.5,0.4-0.8,1.1-0.8,2.1v5.4H979v-11.9
			h3.6v2.2C983.1-963.1,983.7-963.7,984.4-964.1z"/>
		<path class="st6" d="M996.2-963.6c0.9,0.8,1.5,1.7,1.7,3h-3.4c-0.1-0.5-0.3-0.9-0.7-1.1c-0.3-0.3-0.8-0.4-1.3-0.4
			c-0.4,0-0.7,0.1-0.9,0.3c-0.2,0.2-0.3,0.4-0.3,0.8c0,0.4,0.2,0.6,0.6,0.8c0.4,0.2,1,0.4,1.8,0.6c0.9,0.2,1.6,0.4,2.2,0.6
			c0.6,0.2,1.1,0.6,1.5,1.1c0.4,0.5,0.6,1.2,0.6,2c0,0.7-0.2,1.3-0.6,1.8c-0.4,0.5-0.9,0.9-1.6,1.2c-0.7,0.3-1.5,0.4-2.5,0.4
			c-1.6,0-2.9-0.4-3.8-1.1c-1-0.7-1.6-1.7-1.8-3h3.5c0.1,0.5,0.3,0.9,0.6,1.2c0.4,0.3,0.9,0.4,1.5,0.4c0.4,0,0.7-0.1,0.9-0.3
			c0.2-0.2,0.3-0.4,0.3-0.8c0-0.4-0.2-0.7-0.6-0.9c-0.4-0.2-1-0.4-1.9-0.6c-0.9-0.2-1.6-0.4-2.2-0.6c-0.6-0.2-1.1-0.6-1.5-1
			c-0.4-0.5-0.6-1.1-0.6-1.9c0-1.1,0.4-1.9,1.2-2.6c0.8-0.7,1.9-1,3.4-1C994.1-964.7,995.3-964.4,996.2-963.6z"/>
	</g>
	<g>
		<g>
			<g class="st1">
				<path class="st2" d="M788.2-1107.2h-27.9c-3.5,0-6.8,1.9-8.5,4.9l-13.9,24.1c-1.8,3-1.8,6.8,0,9.9l13.9,24.1
					c1.8,3,5,4.9,8.5,4.9h27.9c3.5,0,6.8-1.9,8.5-4.9l13.9-24.1c1.8-3,1.8-6.8,0-9.9l-13.9-24.1
					C795-1105.3,791.7-1107.2,788.2-1107.2z"/>
			</g>
			<g>
				<path class="st2" d="M786.8-1103.9h-25.2c-3.2,0-6.1,1.7-7.7,4.4l-12.6,21.8c-1.6,2.8-1.6,6.1,0,8.9l12.6,21.8
					c1.6,2.8,4.5,4.4,7.7,4.4h25.2c3.2,0,6.1-1.7,7.7-4.4l12.6-21.8c1.6-2.8,1.6-6.1,0-8.9l-12.6-21.8
					C793-1102.2,790-1103.9,786.8-1103.9z"/>
			</g>
			<g>
				<path class="st3" d="M785.2-1099.9h-21.9c-2.8,0-5.3,1.5-6.7,3.9l-11,19c-1.4,2.4-1.4,5.4,0,7.7l11,19c1.4,2.4,3.9,3.9,6.7,3.9
					h21.9c2.8,0,5.3-1.5,6.7-3.9l11-19c1.4-2.4,1.4-5.4,0-7.7l-11-19C790.5-1098.4,788-1099.9,785.2-1099.9z"/>
			</g>
		</g>
		<g>
			<g>
				<path class="st4" d="M777.1-1084.7c-0.4-0.4-0.9-0.6-1.4-0.6h0c-0.5,0-1,0.2-1.4,0.6l-15.3,15.8c-0.4,0.4-0.6,0.9-0.6,1.4
					c0,0.5,0.2,1,0.6,1.4c0.4,0.4,0.9,0.6,1.4,0.6c0.5,0,1-0.2,1.4-0.6l15.3-15.8C777.8-1082.6,777.8-1083.9,777.1-1084.7"/>
			</g>
			<g>
				<path class="st4" d="M785.4-1085.1c-0.7-0.3-1.5-0.1-2.1,0.4l-14.9,15.8c-0.7,0.8-0.7,2.1,0,2.8c0.4,0.4,0.8,0.6,1.4,0.6h0
					c0.5,0,1-0.2,1.4-0.6l11.7-12.3v10.9c0,1.1,0.9,2,1.9,2c1.1,0,1.9-0.9,1.9-2v-15.7C786.5-1084.1,786.1-1084.8,785.4-1085.1"/>
			</g>
		</g>
	</g>
	<g>
		<polygon class="st6" points="832.5,-1453.8 827.8,-1444.3 837.3,-1444.3 		"/>
	</g>
	<g>
		<polygon class="st6" points="818.1,-1364.9 822.8,-1374.4 813.3,-1374.4 		"/>
	</g>
	<g>
		<polygon class="st6" points="752.2,-1319.4 746.9,-1328.7 741.6,-1320.8 		"/>
	</g>
	<g>
		<polygon class="st6" points="678.9,-1187.8 689.6,-1188.4 684.8,-1196.7 		"/>
	</g>
	<g>
		<polygon class="st6" points="894.1,-1235 899.9,-1226 904.8,-1234.2 		"/>
	</g>
	<g>
		<polygon class="st6" points="984.1,-1200.1 978.3,-1209.1 973.4,-1200.9 		"/>
	</g>
	<g>
		<polygon class="st6" points="900.8,-1316.3 911.5,-1317 906.7,-1325.2 		"/>
	</g>
	<g>
		<polygon class="st6" points="971.7,-1377.2 961,-1376.5 965.9,-1368.3 		"/>
	</g>
	<g>
		<polygon class="st6" points="749,-1248.1 738.3,-1247.5 743.1,-1239.2 		"/>
	</g>
	<g>
		<polygon class="st6" points="818.5,-1198.8 813.8,-1189.2 823.4,-1189.3 		"/>
	</g>
	<g>
		<polygon class="st6" points="835.7,-1126.9 840.4,-1136.5 830.8,-1136.4 		"/>
	</g>
	<g>
		<g>
			<g class="st1">
				<path class="st2" d="M859.5-1364.7h-68.1c-8.6,0-16.6,4.6-20.9,12l-34.1,59c-4.3,7.4-4.3,16.6,0,24.1l34.1,59
					c4.3,7.4,12.2,12,20.9,12h68.1c8.6,0,16.6-4.6,20.9-12l34.1-59c4.3-7.4,4.3-16.6,0-24.1l-34.1-59
					C876.1-1360.1,868.1-1364.7,859.5-1364.7z"/>
			</g>
			<g>
				<path class="st2" d="M856.2-1356.6h-61.5c-7.8,0-15,4.1-18.8,10.9l-30.8,53.3c-3.9,6.7-3.9,15,0,21.8l30.8,53.3
					c3.9,6.7,11.1,10.9,18.8,10.9h61.5c7.8,0,15-4.1,18.8-10.9l30.8-53.3c3.9-6.7,3.9-15,0-21.8l-30.8-53.3
					C871.2-1352.5,864-1356.6,856.2-1356.6z"/>
			</g>
			<g>
				<path class="st3" d="M852.2-1346.9h-53.6c-6.8,0-13,3.6-16.4,9.5l-26.8,46.4c-3.4,5.9-3.4,13.1,0,18.9l26.8,46.4
					c3.4,5.9,9.6,9.5,16.4,9.5h53.6c6.8,0,13-3.6,16.4-9.5l26.8-46.4c3.4-5.9,3.4-13.1,0-18.9l-26.8-46.4
					C865.3-1343.3,859-1346.9,852.2-1346.9z"/>
			</g>
		</g>
		<g>
			<path class="st6" d="M805.9-1316.5v12.3h-2.5v-8.6l-3.1,8.6h-2.1l-3.1-8.5v8.5h-2.5v-12.3h3l3.7,9.2l3.7-9.2H805.9z"/>
			<path class="st6" d="M816.6-1306.8h-5l-0.9,2.5h-2.6l4.6-12.3h2.8l4.6,12.3h-2.6L816.6-1306.8z M815.9-1308.7l-1.8-5.2l-1.8,5.2
				H815.9z"/>
			<path class="st6" d="M828.7-1304.3l-2.9-4.8h-1.1v4.8h-2.5v-12.4h4.7c1.4,0,2.5,0.4,3.3,1.1c0.8,0.7,1.1,1.6,1.1,2.8
				c0,0.9-0.3,1.7-0.8,2.4c-0.5,0.6-1.3,1.1-2.3,1.3l3.1,5H828.7z M824.7-1310.8h2c1.4,0,2.1-0.6,2.1-1.9c0-0.6-0.2-1.1-0.5-1.4
				c-0.3-0.3-0.9-0.5-1.6-0.5h-2V-1310.8z"/>
			<path class="st6" d="M836.5-1306.2h4.2v1.9H834v-12.4h2.5V-1306.2z"/>
			<path class="st6" d="M845.5-1316.7v12.4H843v-12.4H845.5z"/>
			<path class="st6" d="M859.1-1304.3h-2.5l-5.6-8.4v8.4h-2.5v-12.4h2.5l5.6,8.5v-8.5h2.5V-1304.3z"/>
			<path class="st6" d="M805.7-1280.5l-2.9-4.8h-1.1v4.8h-2.5v-12.4h4.7c1.4,0,2.5,0.4,3.3,1.1c0.8,0.7,1.1,1.6,1.1,2.8
				c0,0.9-0.3,1.7-0.8,2.4c-0.5,0.6-1.3,1.1-2.3,1.3l3.1,5H805.7z M801.7-1287h2c1.4,0,2.1-0.6,2.1-1.9c0-0.6-0.2-1.1-0.5-1.4
				c-0.3-0.3-0.9-0.5-1.6-0.5h-2V-1287z"/>
			<path class="st6" d="M813.4-1290.9v3.2h4.4v1.9h-4.4v3.3h4.9v2h-7.4v-12.4h7.4v2H813.4z"/>
			<path class="st6" d="M823.5-1282.4h4.2v1.9H821v-12.4h2.5V-1282.4z"/>
			<path class="st6" d="M837.6-1283h-5l-0.9,2.5h-2.6l4.6-12.3h2.8l4.6,12.3h-2.6L837.6-1283z M836.9-1284.9l-1.8-5.2l-1.8,5.2
				H836.9z"/>
			<path class="st6" d="M853.3-1292.9l-4.2,8.1v4.3h-2.5v-4.3l-4.2-8.1h2.8l2.6,5.4l2.6-5.4H853.3z"/>
			<path class="st6" d="M791.8-1256.7h-2.5l-5.6-8.4v8.4h-2.5v-12.4h2.5l5.6,8.5v-8.5h2.5V-1256.7z"/>
			<path class="st6" d="M797.4-1267.1v3.2h4.4v1.9h-4.4v3.3h4.9v2h-7.4v-12.4h7.4v2H797.4z"/>
			<path class="st6" d="M813.5-1269.1v2h-3.4v10.4h-2.5v-10.4h-3.4v-2H813.5z"/>
			<path class="st6" d="M832-1269.1l-3,12.4h-3.1l-2.3-9l-2.3,9h-3l-3-12.4h2.7l1.9,9.6l2.5-9.6h2.7l2.5,9.6l1.9-9.6H832z"/>
			<path class="st6" d="M843.6-1268.5c0.9,0.5,1.7,1.3,2.2,2.3c0.5,1,0.8,2.1,0.8,3.3c0,1.2-0.3,2.3-0.8,3.3c-0.5,1-1.3,1.7-2.2,2.3
				c-0.9,0.5-2,0.8-3.2,0.8s-2.2-0.3-3.2-0.8c-0.9-0.5-1.7-1.3-2.2-2.3c-0.5-1-0.8-2.1-0.8-3.3c0-1.2,0.3-2.3,0.8-3.3
				c0.5-1,1.3-1.7,2.2-2.3c0.9-0.5,2-0.8,3.2-0.8S842.6-1269,843.6-1268.5z M838.5-1266.5c-0.6,0.3-1,0.8-1.3,1.4
				c-0.3,0.6-0.5,1.3-0.5,2.2c0,0.8,0.2,1.5,0.5,2.2c0.3,0.6,0.7,1.1,1.3,1.4c0.6,0.3,1.2,0.5,1.9,0.5s1.4-0.2,1.9-0.5
				c0.6-0.3,1-0.8,1.3-1.4c0.3-0.6,0.5-1.3,0.5-2.2c0-0.8-0.2-1.5-0.5-2.2c-0.3-0.6-0.7-1.1-1.3-1.4c-0.6-0.3-1.2-0.5-1.9-0.5
				S839.1-1266.8,838.5-1266.5z"/>
			<path class="st6" d="M855.9-1256.7l-2.9-4.8h-1.1v4.8h-2.5v-12.4h4.7c1.4,0,2.5,0.4,3.3,1.1c0.8,0.7,1.1,1.6,1.1,2.8
				c0,0.9-0.3,1.7-0.8,2.4c-0.5,0.6-1.3,1.1-2.3,1.3l3.1,5H855.9z M851.9-1263.2h2c1.4,0,2.1-0.6,2.1-1.9c0-0.6-0.2-1.1-0.5-1.4
				c-0.3-0.3-0.9-0.5-1.6-0.5h-2V-1263.2z"/>
			<path class="st6" d="M865.9-1263l5.3,6.3h-3l-4.6-5.7v5.7h-2.5v-12.4h2.5v5.6l4.6-5.6h3L865.9-1263z"/>
		</g>
	</g>
</g>
<line class="st7" x1="-139.9" y1="659" x2="-145" y2="653"/>
<line class="st7" x1="-440" y1="679.9" x2="-444" y2="685"/>
<line class="st7" x1="-396" y1="624" x2="-396.9" y2="625.1"/>
<g>
	<line class="st8" x1="714" y1="841" x2="713.6" y2="976"/>
	<line class="st9" x1="748.1" y1="803" x2="747.3" y2="965.1"/>
	<radialGradient id="SVGID_1_" cx="730.5718" cy="675.5203" r="699.0878" gradientUnits="userSpaceOnUse">
		<stop  offset="0" style="stop-color:#46E3FF;stop-opacity:0.45"/>
		<stop  offset="0.3779" style="stop-color:#39E8FF;stop-opacity:0.396"/>
		<stop  offset="0.7245" style="stop-color:#26F0FF;stop-opacity:0.1645"/>
		<stop  offset="1" style="stop-color:#00FFFF;stop-opacity:0"/>
	</radialGradient>
	<path class="st10" d="M1449.6,563.4l-65.2-113l64.8-112.2l0.4-0.7L1384,223.7l-0.4-0.7H1253l-64.8-112.2l-0.4-0.7h-130.5L992.4-2.3
		L992-3H859.8l-65.2,113H666.5L601.7-2.3L601.3-3H469.1l-65.2,113H273.4l-65.2,113H77.6L11.9,336.7l-0.4,0.7l65.2,113L11.9,562.6
		l-0.4,0.7l65.1,112.7l-64.7,112l-0.4,0.7l65.2,113l-64.8,112.2l-0.4,0.7l65.7,113.7l0.4,0.7h130.5l64.8,112.2l0.4,0.7h131.2
		l64.1,111l0.4,0.7h132.2l64.5-111.8h129.5l64.1,111l0.4,0.7H992l64.5-111.8h131.3l65.2-113h130.5l65.7-113.7l0.4-0.7l-65.2-113
		l64.8-112.2l0.4-0.7l-65.1-112.7l64.7-112L1449.6,563.4z M1446.2,337.4l-64.4,111.5h-128.7l-64.4-111.5l64.4-111.5h128.7
		L1446.2,337.4z M598.8,225.9l64.4,111.5l-64.4,111.5h-128l-64.4-111.5l64.4-111.5H598.8z M794.5,113l64.4,111.5l-64.4,111.5h-128
		l-64.4-111.5L666.5,113H794.5z M666.5,1013.3l-64.4-111.5l64.1-111h128.5l64.1,111l-64.4,111.5H666.5z M598.8,451.9l64.4,111.5
		l-64.1,111H470.6l-64.1-111l64.4-111.5H598.8z M794.5,338.9l64.4,111.5l-64.4,111.5h-128l-64.4-111.5l64.4-111.5H794.5z
		 M1186.1,564.9l64.3,111.3l-64.2,111.2h-128.9L993,676.2l64.3-111.3H1186.1z M794.5,564.9l64.3,111.3l-64.2,111.2H666.5
		l-64.2-111.3l64.2-111.3H794.5z M861.5,900.4L797.3,789l64.2-111.2h128.9l64.2,111.2l-64.3,111.3H861.5z M470.9,900.4L406.6,789
		l64.2-111.2h128.1l64.2,111.3l-64.2,111.3H470.9z M470.9,903.3h128l64.4,111.5l-63.7,110.3H470.2l-63.7-110.3L470.9,903.3z
		 M861.5,903.3h128.7l64.4,111.5L991,1125.1H860.8l-63.7-110.3L861.5,903.3z M990.3,451.9l64.4,111.5l-64.1,111H861.3l-64.1-111
		l64.4-111.5H990.3z M403.8,564.9l64.3,111.3l-64.2,111.2H275l-64.2-111.2l64.3-111.3H403.8z M1186.1,338.9l64.4,111.5l-64.4,111.5
		h-128.7L993,450.4l64.4-111.5H1186.1z M990.3,225.9l64.4,111.5l-64.4,111.5H861.5l-64.4-111.5l64.4-111.5H990.3z M403.8,338.9
		l64.4,111.5l-64.4,111.5H275.1l-64.4-111.5l64.4-111.5H403.8z M275.1,1013.3l-64.4-111.5l64.1-111h129.3l64.1,111l-64.4,111.5
		H275.1z M602.5,1127.2l64-110.9h128l64.1,111l-64.4,111.5l-0.3,0.5H667.3L602.5,1127.2z M1057.3,1013.3L993,901.9l64.1-111h129.3
		l64.1,111l-64.4,111.5H1057.3z M1250.4,224.4l-64.4,111.5h-128.7L993,224.4l64.4-111.5h128.7L1250.4,224.4z M861.5,0h128.7
		l64.4,111.5L990.3,223H861.5l-64.4-111.5L861.5,0z M470.9,0h128.7l64,110.8L598.8,223h-128l-64.4-111.5L470.9,0z M275.1,113h128.7
		l64.4,111.5l-64.4,111.5H275.1l-64.4-111.5L275.1,113z M79.3,225.9h128.7l64.4,111.5l-64.4,111.5H79.3L14.9,337.4L79.3,225.9z
		 M79.3,451.9h128.7l64.4,111.5l-64.1,111H79l-64.1-111L79.3,451.9z M79,677.9h129.1L272.3,789l-64.3,111.3H79.3L14.9,788.9
		L79,677.9z M14.9,1014.8l64.4-111.5h128.7l64.4,111.5l-64.4,111.5H79.3L14.9,1014.8z M210.7,1127.8l64.4-111.5h128.7l64.1,111
		l-64.4,111.5l-0.3,0.5H275.1L210.7,1127.8z M599.6,1351.1H470.9l-64.1-111l64-110.8h128.1l64.4,111.6L599.6,1351.1z M990.3,1351.1
		H861.5l-64.1-111l64-110.8h128.9l64,110.8L990.3,1351.1z M1186.1,1239.3h-128.1l-64.7-112l64.1-111h128.7l64.4,111.5L1186.1,1239.3
		z M1381.8,1126.3h-128.7l-64.4-111.5l64.4-111.5h128.7l64.4,111.5L1381.8,1126.3z M1381.8,900.4h-128.7L1188.8,789l64.2-111.2
		h129.1l64.1,111L1381.8,900.4z M1382.1,674.4h-129.3l-64.1-111l64.4-111.5h128.7l64.4,111.5L1382.1,674.4z"/>
	<g>
		<g>
			<path class="st11" d="M860.4,1008.6h-53.9c-6.8,0-13.1,3.6-16.5,9.5l-26.9,46.6c-3.4,5.9-3.4,13.1,0,19l26.9,46.6
				c3.4,5.9,9.7,9.5,16.5,9.5h53.9c6.8,0,13.1-3.6,16.5-9.5l26.9-46.6c3.4-5.9,3.4-13.1,0-19l-26.9-46.6
				C873.4,1012.3,867.2,1008.6,860.4,1008.6z"/>
			<path class="st2" d="M857.8,1015h-48.7c-6.1,0-11.8,3.3-14.9,8.6l-24.3,42.1c-3.1,5.3-3.1,11.9,0,17.2l24.3,42.1
				c3.1,5.3,8.8,8.6,14.9,8.6h48.7c6.1,0,11.8-3.3,14.9-8.6l24.3-42.1c3.1-5.3,3.1-11.9,0-17.2l-24.3-42.1
				C869.6,1018.3,863.9,1015,857.8,1015z"/>
			<path class="st3" d="M854.6,1022.6h-42.4c-5.4,0-10.3,2.9-13,7.5l-21.2,36.7c-2.7,4.6-2.7,10.3,0,15l21.2,36.7
				c2.7,4.6,7.6,7.5,13,7.5h42.4c5.4,0,10.3-2.9,13-7.5l21.2-36.7c2.7-4.6,2.7-10.3,0-15l-21.2-36.7
				C864.9,1025.5,860,1022.6,854.6,1022.6z"/>
		</g>
		<g>
			<path class="st4" d="M838.9,1052.1c-0.7-0.7-1.7-1.1-2.7-1.1h0c-1,0-2,0.4-2.7,1.1l-29.6,30.4c-0.7,0.7-1.1,1.7-1.1,2.8
				c0,1,0.4,2,1.1,2.7c0.7,0.7,1.7,1.1,2.7,1.1c1,0,2-0.4,2.7-1.1l29.6-30.4C840.4,1056.1,840.4,1053.6,838.9,1052.1"/>
			<path class="st4" d="M854.9,1051.3c-1.4-0.6-3-0.3-4,0.9l-28.9,30.4c-1.4,1.5-1.4,4,0,5.5c0.7,0.7,1.6,1.1,2.6,1.1h0
				c1,0,1.9-0.4,2.6-1.1l22.6-23.8v21c0,2.1,1.7,3.9,3.7,3.9c2,0,3.7-1.7,3.7-3.9v-30.4C857.2,1053.3,856.3,1051.9,854.9,1051.3"/>
		</g>
	</g>
	<line class="st12" x1="430.9" y1="505.7" x2="582" y2="596"/>
	<g>
		<line class="st12" x1="608.3" y1="755.4" x2="447" y2="851"/>
		<line class="st12" x1="575" y1="739" x2="408" y2="838"/>
	</g>
	<g>
		<line class="st12" x1="866" y1="765" x2="1040" y2="869"/>
		<line class="st12" x1="863" y1="727.3" x2="1036.3" y2="829.9"/>
	</g>
	<g>
		<line class="st12" x1="841.1" y1="587.5" x2="1012.2" y2="485.3"/>
		<line class="st12" x1="879" y1="601" x2="1027.3" y2="513"/>
	</g>
	<g>
		<line class="st12" x1="741.3" y1="337" x2="744.7" y2="530.5"/>
		<line class="st12" x1="710.2" y1="313" x2="713" y2="499"/>
	</g>
	<g>
		<line class="st12" x1="730" y1="965" x2="795" y2="1013"/>
		<path class="st12" d="M731.1,804"/>
		<line class="st12" x1="663.9" y1="1015.3" x2="733" y2="963"/>
	</g>
	<g>
		<g>
			<path class="st11" d="M385.2,790h-91.4c-11.5,0-22.2,6.2-28,16.2l-45.7,79.2c-5.8,10-5.8,22.3,0,32.3l45.7,79.2
				c5.8,10,16.4,16.2,28,16.2h91.4c11.5,0,22.2-6.2,28-16.2l45.7-79.2c5.8-10,5.8-22.3,0-32.3l-45.7-79.2
				C407.4,796.2,396.8,790,385.2,790z"/>
			<path class="st2" d="M379,805.3H300c-10,0-19.2,5.3-24.2,13.9l-39.5,68.3c-5,8.6-5,19.3,0,27.9l39.5,68.3
				c5,8.6,14.2,13.9,24.2,13.9H379c10,0,19.2-5.3,24.2-13.9l39.5-68.3c5-8.6,5-19.3,0-27.9l-39.5-68.3
				C398.1,810.6,388.9,805.3,379,805.3z"/>
		</g>
		<g>
			<text transform="matrix(1 0 0 1 291.4482 911.6182)" class="st3 st13 st14 st15">DApps</text>
		</g>
	</g>
	<g>
		<g>
			<path class="st11" d="M1166.8,790.3h-91.6c-11.6,0-22.3,6.2-28,16.2l-45.8,79.3c-5.8,10-5.8,22.4,0,32.4l45.8,79.3
				c5.8,10,16.5,16.2,28,16.2h91.6c11.6,0,22.3-6.2,28-16.2l45.8-79.3c5.8-10,5.8-22.4,0-32.4l-45.8-79.3
				C1189.1,796.5,1178.4,790.3,1166.8,790.3z"/>
			<path class="st2" d="M1159.7,807.7h-77.4c-9.8,0-18.8,5.2-23.7,13.7l-38.7,67c-4.9,8.5-4.9,18.9,0,27.3l38.7,67
				c4.9,8.5,13.9,13.7,23.7,13.7h77.4c9.8,0,18.8-5.2,23.7-13.7l38.7-67c4.9-8.5,4.9-18.9,0-27.3l-38.7-67
				C1178.5,812.9,1169.5,807.7,1159.7,807.7z"/>
		</g>
		<g>
			<text transform="matrix(1 0 0 1 1068.0439 911.6548)" class="st3 st13 st16 st15">VIEWER</text>
		</g>
	</g>
	<g>
		<g>
			<path class="st2" d="M384,335h-95c-12,0-23.1,6.4-29.1,16.8l-47.5,82.3c-6,10.4-6,23.2,0,33.6l47.5,82.3
				c6,10.4,17.1,16.8,29.1,16.8h95c12,0,23.1-6.4,29.1-16.8l47.5-82.3c6-10.4,6-23.2,0-33.6l-47.5-82.3C407.1,341.4,396,335,384,335
				z"/>
			<path class="st3" d="M381.2,342h-89.3c-11.3,0-21.7,6-27.3,15.8l-44.7,77.3c-5.6,9.8-5.6,21.8,0,31.6l44.7,77.3
				c5.6,9.8,16.1,15.8,27.3,15.8h89.3c11.3,0,21.7-6,27.3-15.8l44.7-77.3c5.6-9.8,5.6-21.8,0-31.6l-44.7-77.3
				C402.9,348,392.4,342,381.2,342z"/>
		</g>
		<text transform="matrix(1 0 0 1 288.1583 433.5527)"><tspan x="0" y="0" class="st6 st17 st18 st15">BLOCK</tspan><tspan x="-30.4" y="46" class="st6 st17 st18 st15">PRODUCER</tspan></text>
	</g>
	<g>
		<g>
			<path class="st2" d="M1170,335h-95c-12,0-23.1,6.4-29.1,16.8l-47.5,82.3c-6,10.4-6,23.2,0,33.6l47.5,82.3
				c6,10.4,17.1,16.8,29.1,16.8h95c12,0,23.1-6.4,29.1-16.8l47.5-82.3c6-10.4,6-23.2,0-33.6l-47.5-82.3
				C1193.1,341.4,1182,335,1170,335z"/>
			<path class="st3" d="M1167.2,342h-89.3c-11.3,0-21.7,6-27.3,15.8l-44.7,77.3c-5.6,9.8-5.6,21.8,0,31.6l44.7,77.3
				c5.6,9.8,16.1,15.8,27.3,15.8h89.3c11.3,0,21.7-6,27.3-15.8l44.7-77.3c5.6-9.8,5.6-21.8,0-31.6l-44.7-77.3
				C1188.9,348,1178.4,342,1167.2,342z"/>
		</g>
		<g>
			<text transform="matrix(1 0 0 1 1090.8389 433.5586)"><tspan x="0" y="0" class="st6 st17 st18 st15">FULL</tspan><tspan x="-17.7" y="46" class="st6 st17 st18 st15">NODES</tspan></text>
		</g>
	</g>
	<g>
		<g>
			<path class="st11" d="M776.4,113h-91.8c-11.6,0-22.3,6.2-28.1,16.2l-45.9,79.5c-5.8,10-5.8,22.4,0,32.5l45.9,79.5
				c5.8,10,16.5,16.2,28.1,16.2h91.8c11.6,0,22.3-6.2,28.1-16.2l45.9-79.5c5.8-10,5.8-22.4,0-32.5l-45.9-79.5
				C798.7,119.2,788,113,776.4,113z"/>
			<path class="st2" d="M769.7,129.4h-78.4c-9.9,0-19,5.3-24,13.9l-39.2,67.9c-4.9,8.6-4.9,19.1,0,27.7l39.2,67.9
				c4.9,8.6,14.1,13.9,24,13.9h78.4c9.9,0,19-5.3,24-13.9l39.2-67.9c4.9-8.6,4.9-19.1,0-27.7l-39.2-67.9
				C788.7,134.7,779.6,129.4,769.7,129.4z"/>
		</g>
		<text transform="matrix(1 0 0 1 670.8945 235.0571)" class="st3 st13 st19 st15">GAMERS</text>
	</g>
	<text transform="matrix(1 0 0 1 769 424)" class="st6 st17 st20">Updates</text>
	<text transform="matrix(0.8611 0.5084 -0.5084 0.8611 476.2141 514.9459)" class="st6 st17 st20">Block/LIN</text>
	<text transform="matrix(0.8492 -0.5281 0.5281 0.8492 873.0561 546.8405)" class="st6 st17 st20">Txn / Block</text>
	<text transform="matrix(0.8492 -0.5281 0.5281 0.8492 946.6064 604.354)" class="st6 st17 st20">LIN</text>
	<text transform="matrix(0.8666 -0.499 0.499 0.8666 434.0432 797.6827)" class="st6 st17 st20">Content/LIN</text>
	<text transform="matrix(0.8666 -0.499 0.499 0.8666 477.5196 883.8636)" class="st6 st17 st20">DApps Token</text>
	<text transform="matrix(0.8579 0.5138 -0.5138 0.8579 913.1942 728.472)" class="st6 st17 st20">Content/LIN</text>
	<text transform="matrix(0.8579 0.5138 -0.5138 0.8579 861.3676 811.2701)" class="st6 st17 st20">DApps Token</text>
	<text transform="matrix(6.675175e-03 -1 1 6.675175e-03 689.8965 961.6759)" class="st6 st17 st20">Bandwidth</text>
	<text transform="matrix(-6.675175e-03 1 -1 -6.675175e-03 760.3838 840.5949)" class="st6 st17 st20">Rewards</text>
	<text transform="matrix(1 0 0 1 651.4033 424)" class="st6 st17 st20">LIN</text>
	<text transform="matrix(1 0 0 1 400.4258 1307.1216)" class="st6 st13 st21">Relayers - Bandwidth Providers</text>
	<g>
		<g>
			<path class="st11" d="M655.4,1008.6h-53.9c-6.8,0-13.1,3.6-16.5,9.5l-26.9,46.6c-3.4,5.9-3.4,13.1,0,19l26.9,46.6
				c3.4,5.9,9.7,9.5,16.5,9.5h53.9c6.8,0,13.1-3.6,16.5-9.5l26.9-46.6c3.4-5.9,3.4-13.1,0-19l-26.9-46.6
				C668.4,1012.3,662.2,1008.6,655.4,1008.6z"/>
			<path class="st2" d="M652.8,1015h-48.7c-6.1,0-11.8,3.3-14.9,8.6l-24.3,42.1c-3.1,5.3-3.1,11.9,0,17.2l24.3,42.1
				c3.1,5.3,8.8,8.6,14.9,8.6h48.7c6.1,0,11.8-3.3,14.9-8.6l24.3-42.1c3.1-5.3,3.1-11.9,0-17.2l-24.3-42.1
				C664.6,1018.3,658.9,1015,652.8,1015z"/>
			<path class="st3" d="M649.6,1022.6h-42.4c-5.4,0-10.3,2.9-13,7.5l-21.2,36.7c-2.7,4.6-2.7,10.3,0,15l21.2,36.7
				c2.7,4.6,7.6,7.5,13,7.5h42.4c5.4,0,10.3-2.9,13-7.5l21.2-36.7c2.7-4.6,2.7-10.3,0-15l-21.2-36.7
				C659.9,1025.5,655,1022.6,649.6,1022.6z"/>
		</g>
		<g>
			<path class="st4" d="M633.9,1052.1c-0.7-0.7-1.7-1.1-2.7-1.1h0c-1,0-2,0.4-2.7,1.1l-29.6,30.4c-0.7,0.7-1.1,1.7-1.1,2.8
				c0,1,0.4,2,1.1,2.7c0.7,0.7,1.7,1.1,2.7,1.1c1,0,2-0.4,2.7-1.1l29.6-30.4C635.4,1056.1,635.4,1053.6,633.9,1052.1"/>
			<path class="st4" d="M649.9,1051.3c-1.4-0.6-3-0.3-4,0.9l-28.9,30.4c-1.4,1.5-1.4,4,0,5.5c0.7,0.7,1.6,1.1,2.6,1.1h0
				c1,0,1.9-0.4,2.6-1.1l22.6-23.8v21c0,2.1,1.7,3.9,3.7,3.9c2,0,3.7-1.7,3.7-3.9v-30.4C652.2,1053.3,651.3,1051.9,649.9,1051.3"/>
		</g>
	</g>
	<polygon class="st6" points="741.1,338.5 731.9,357 750.4,357 	"/>
	<polygon class="st6" points="713.1,510.5 722.4,492 703.9,492 	"/>
	<polygon class="st6" points="585.8,598.4 575.6,580.4 565.3,595.8 	"/>
	<polygon class="st6" points="444.1,852.8 464.7,851.7 455.5,835.6 	"/>
	<polygon class="st6" points="860.2,761.5 871.4,778.9 880.8,763 	"/>
	<polygon class="st6" points="1034.1,829 1022.9,811.6 1013.5,827.5 	"/>
	<polygon class="st6" points="873.1,604.5 893.8,603.1 884.4,587.1 	"/>
	<polygon class="st6" points="1010.1,486.6 989.5,487.9 998.8,503.9 	"/>
	<polygon class="st6" points="579.6,736.1 559,737.3 568.2,753.4 	"/>
	<polygon class="st6" points="714,831.4 705,850 723.4,849.8 	"/>
	<polygon class="st6" points="747.2,970.6 756.3,952 737.8,952.2 	"/>
	<g>
		<g>
			<path class="st11" d="M793.3,510.9H661.6c-16.6,0-32,8.9-40.3,23.3l-65.8,114c-8.3,14.4-8.3,32.1,0,46.5l65.8,114
				c8.3,14.4,23.7,23.3,40.3,23.3h131.7c16.6,0,32-8.9,40.3-23.3l65.8-114c8.3-14.4,8.3-32.1,0-46.5l-65.8-114
				C825.2,519.8,809.9,510.9,793.3,510.9z"/>
			<path class="st2" d="M786.9,526.4H668c-15,0-28.9,8-36.4,21l-59.5,103c-7.5,13-7.5,29,0,42l59.5,103c7.5,13,21.4,21,36.4,21
				h118.9c15,0,28.9-8,36.4-21l59.5-103c7.5-13,7.5-29,0-42l-59.5-103C815.8,534.4,801.9,526.4,786.9,526.4z"/>
			<path class="st3" d="M779.2,545.1H675.6c-13.1,0-25.2,7-31.7,18.3l-51.8,89.7c-6.5,11.3-6.5,25.3,0,36.6l51.8,89.7
				c6.5,11.3,18.6,18.3,31.7,18.3h103.6c13.1,0,25.2-7,31.7-18.3l51.8-89.7c6.5-11.3,6.5-25.3,0-36.6l-51.8-89.7
				C804.4,552.1,792.3,545.1,779.2,545.1z"/>
		</g>
		<g>
			<text transform="matrix(1 0 0 1 661.5 627.6313)"><tspan x="0" y="0" class="st6 st17 st22 st15">MARLIN</tspan><tspan x="13" y="46" class="st6 st17 st22 st15">RELAY</tspan><tspan x="-21.6" y="92" class="st6 st17 st22 st15">NETWORK</tspan></text>
		</g>
	</g>
</g>
</svg>
