<svg width="195" height="23" viewBox="0 0 195 23" fill="none" xmlns="http://www.w3.org/2000/svg">
<mask id="mask0" mask-type="alpha" maskUnits="userSpaceOnUse" x="0" y="0" width="21" height="21">
<path fill-rule="evenodd" clip-rule="evenodd" d="M0 0.032341H20.5283V20.9659H0V0.032341Z" fill="white"/>
</mask>
<g mask="url(#mask0)">
<path fill-rule="evenodd" clip-rule="evenodd" d="M19.9111 0.651655C19.5175 0.251893 18.9928 0.032341 18.4343 0.032341H18.4281C17.8696 0.0336101 17.3436 0.256969 16.9501 0.659269L0.609694 17.3376C0.213646 17.7399 -0.00124394 18.2742 5.41715e-06 18.844C0.00125478 19.4113 0.219893 19.9456 0.61719 20.3453C1.01074 20.7451 1.53547 20.9659 2.09394 20.9659C2.6549 20.9659 3.18213 20.7438 3.57943 20.339L19.9198 3.66066C20.7344 2.82941 20.7307 1.4791 19.9111 0.651655Z" fill="#2DB8E3"/>
</g>
<path fill-rule="evenodd" clip-rule="evenodd" d="M29.3372 0.162369C28.5523 -0.16809 27.6591 0.0149335 27.0586 0.628823L10.766 17.3322C9.9525 18.1647 9.95623 19.5158 10.7735 20.3445C11.1672 20.7448 11.6904 20.966 12.246 20.966H12.251C12.8091 20.9647 13.3324 20.741 13.7273 20.3381L26.4506 7.29391V18.8345C26.4506 20.0089 27.3875 20.966 28.5399 20.966C29.691 20.966 30.6278 20.0089 30.6278 18.8345V2.13241C30.6278 1.26432 30.1208 0.491556 29.3372 0.162369Z" fill="#3840C7"/>
<path fill-rule="evenodd" clip-rule="evenodd" d="M59.7157 18.1497H55.2049V16.2441H55.7744V12.156C55.7744 11.1643 55.6042 10.4649 55.2625 10.0539C54.9208 9.64423 54.4389 9.43874 53.8156 9.43874C53.0108 9.43874 52.4226 9.71698 52.0509 10.2747C51.6779 10.8325 51.4839 11.4668 51.4689 12.1803V16.2441H52.9958V18.1497H48.485V16.2441H49.032V12.156C49.032 11.1643 48.8618 10.4649 48.5201 10.0539C48.1784 9.64423 47.7015 9.43874 47.0958 9.43874C46.306 9.43874 45.7202 9.71442 45.341 10.2632C44.9618 10.8121 44.7653 11.4451 44.749 12.156V16.2441H46.6627V18.1497H40.7852V16.2441H42.3134V9.64805H40.8089V7.7208H44.749V9.43874C45.0682 8.86567 45.4924 8.40108 46.0256 8.04499C46.5563 7.68889 47.2021 7.51021 47.9606 7.51021C48.7203 7.51021 49.405 7.70038 50.0107 8.07945C50.619 8.45979 51.0433 9.05201 51.2874 9.8561C51.5915 9.14391 52.0308 8.57594 52.6078 8.14965C53.1861 7.72335 53.892 7.51021 54.7281 7.51021C55.653 7.51021 56.4653 7.8127 57.1637 8.4164C57.8633 9.0201 58.2125 9.96586 58.2125 11.2511V16.2441H59.7157V18.1497Z" fill="#4D4D4D"/>
<path fill-rule="evenodd" clip-rule="evenodd" d="M67.0879 13.969V13.5989C66.8306 13.5685 66.567 13.5381 66.2948 13.5064C66.025 13.476 65.7453 13.462 65.4581 13.462C64.8552 13.462 64.3157 13.5685 63.842 13.784C63.3659 13.9994 63.1272 14.4303 63.1272 15.0755C63.1272 16.0146 63.6183 16.4836 64.5979 16.4836C65.1722 16.4836 65.7155 16.2719 66.2276 15.8486C66.7411 15.4253 67.027 14.7992 67.0879 13.969ZM61.567 8.47852C62.3204 8.10843 62.9929 7.85495 63.581 7.71807C64.1677 7.57865 64.8465 7.51021 65.616 7.51021C66.7485 7.51021 67.6797 7.80172 68.4106 8.38727C69.1416 8.97028 69.5083 9.84734 69.5083 11.0159V15.675C69.5083 16.2909 69.757 16.5976 70.2555 16.5976C70.3897 16.5976 70.565 16.5672 70.7751 16.5051L70.7975 17.8676C70.3002 18.1591 69.757 18.3061 69.169 18.3061C67.8873 18.3061 67.1923 17.6205 67.0879 16.2516V16.2073C66.7858 16.7447 66.3594 17.2301 65.8099 17.6597C65.258 18.0894 64.5755 18.3061 63.7612 18.3061C63.0526 18.3061 62.354 18.0869 61.669 17.6471C60.9828 17.2098 60.6396 16.4443 60.6396 15.3518C60.6396 14.0755 61.1369 13.2352 62.1327 12.8258C63.1272 12.4189 64.2075 12.2162 65.3674 12.2162C65.6546 12.2162 65.9479 12.2238 66.25 12.239C66.5521 12.2529 66.8306 12.277 67.0879 12.3074V11.7307C67.0879 11.116 66.981 10.5634 66.7709 10.0704C66.5596 9.57738 66.0312 9.3315 65.1871 9.3315C64.8701 9.3315 64.5718 9.35431 64.2933 9.4012C64.0136 9.44683 63.7463 9.53935 63.489 9.6775L63.0825 11.2694L61.1369 11.0628L61.567 8.47852Z" fill="#4D4D4D"/>
<path fill-rule="evenodd" clip-rule="evenodd" d="M78.1565 7.51021C78.8356 7.51021 79.4711 7.70221 80.0604 8.08368L80.4928 11.3022L78.6101 11.5334L78.225 9.76243C77.9222 9.60959 77.6643 9.53253 77.4525 9.53253C77.0301 9.53253 76.6625 9.70938 76.3523 10.0605C76.0432 10.4142 75.8887 10.9043 75.8887 11.5334V16.1073H77.9073V17.9932H71.9426V16.1073H73.4615V9.57927H71.874V7.67063H75.7068V9.60201C75.8887 9.01969 76.1791 8.52579 76.579 8.11779C76.9803 7.71231 77.5073 7.51021 78.1565 7.51021Z" fill="#4D4D4D"/>
<path fill-rule="evenodd" clip-rule="evenodd" d="M86.8033 17.9932H81.3538V16.109H82.8759V4.07464H81.2627V2.19048H85.2813V16.109H86.8033V17.9932Z" fill="#4D4D4D"/>
<path fill-rule="evenodd" clip-rule="evenodd" d="M89.358 5.53028H91.832V2.81633H89.358V5.53028ZM93.4215 17.9932H87.9719V16.1081H89.494V9.57719H87.8809V7.66934H91.9007V16.1081H93.4215V17.9932Z" fill="#4D4D4D"/>
<path fill-rule="evenodd" clip-rule="evenodd" d="M106.965 18.1497H101.517V16.2441H103.014V12.156C103.014 11.1643 102.841 10.4649 102.493 10.0539C102.145 9.64423 101.659 9.43874 101.039 9.43874C100.268 9.43874 99.658 9.694 99.2114 10.2045C98.7647 10.7163 98.5339 11.343 98.5177 12.0871V16.2441H100.04V18.1497H94.5676V16.2441H96.0898V9.64805H94.499V7.7208H98.5177V9.41576C99.2313 8.14454 100.358 7.51021 101.903 7.51021C102.872 7.51021 103.704 7.8127 104.399 8.4164C105.097 9.0201 105.445 9.96586 105.445 11.2511V16.2441H106.965V18.1497Z" fill="#4D4D4D"/>
<path fill-rule="evenodd" clip-rule="evenodd" d="M121.385 12.8895C121.385 11.7809 121.136 10.9387 120.638 10.3616C120.141 9.78446 119.508 9.49527 118.738 9.49527C117.924 9.49527 117.283 9.8111 116.817 10.4415C116.348 11.0732 116.1 11.8126 116.07 12.6587L116.046 13.4667C116.046 14.3292 116.291 15.0205 116.783 15.5443C117.272 16.0669 117.902 16.3294 118.67 16.3294C119.531 16.3294 120.198 16.0212 120.673 15.406C121.147 14.7896 121.385 13.9499 121.385 12.8895ZM123.895 12.6358C123.895 14.1123 123.513 15.4289 122.754 16.5831C121.991 17.7374 120.819 18.3145 119.236 18.3145C117.774 18.3145 116.71 17.7767 116.046 16.6973V21.0619H118.061V23H112.112V21.0619H113.627V9.61069H112.044V7.71823H116.046V9.77178C116.335 9.15787 116.751 8.62641 117.303 8.17993C117.852 7.73345 118.596 7.51021 119.531 7.51021C120.827 7.51021 121.878 7.96049 122.686 8.86106C123.491 9.76163 123.895 11.0186 123.895 12.6358Z" fill="#4D4D4D"/>
<path fill-rule="evenodd" clip-rule="evenodd" d="M131.408 7.51021C132.088 7.51021 132.723 7.70221 133.312 8.08368L133.745 11.3022L131.862 11.5334L131.477 9.76243C131.173 9.60959 130.916 9.53253 130.704 9.53253C130.282 9.53253 129.914 9.70938 129.604 10.0605C129.295 10.4142 129.141 10.9043 129.141 11.5334V16.1073H131.159V17.9932H125.195V16.1073H126.713V9.57927H125.126V7.67063H128.959V9.60201C129.141 9.01969 129.431 8.52579 129.831 8.11779C130.232 7.71231 130.759 7.51021 131.408 7.51021Z" fill="#4D4D4D"/>
<path fill-rule="evenodd" clip-rule="evenodd" d="M143.071 12.85C143.071 11.7459 142.809 10.901 142.287 10.3192C141.763 9.73491 141.085 9.44275 140.251 9.44275C139.388 9.44275 138.712 9.75388 138.227 10.3761C137.741 10.9971 137.5 11.8293 137.5 12.8728C137.5 13.8555 137.73 14.6851 138.194 15.3593C138.656 16.0346 139.342 16.3711 140.251 16.3711C141.13 16.3711 141.821 16.046 142.32 15.3934C142.821 14.7421 143.071 13.8934 143.071 12.85ZM145.596 12.9195C145.596 14.5296 145.091 15.831 144.083 16.82C143.075 17.8103 141.767 18.3061 140.16 18.3061C138.598 18.3061 137.344 17.8306 136.397 16.8795C135.449 15.9284 134.977 14.6383 134.977 13.0106C134.977 11.5068 135.423 10.2142 136.318 9.13288C137.212 8.05152 138.538 7.51021 140.296 7.51021C142.07 7.51021 143.396 8.04646 144.277 9.1215C145.154 10.1965 145.596 11.4613 145.596 12.9195Z" fill="#4D4D4D"/>
<path fill-rule="evenodd" clip-rule="evenodd" d="M154.984 15.036C154.698 17.2157 153.506 18.3061 151.41 18.3061C150.324 18.3061 149.461 18.0139 148.819 17.4307C148.179 16.8488 147.859 16.0341 147.859 14.9904V9.55583H146.365V7.73797H147.859V4.53741H150.279V7.73797H154.057V9.55583H150.279V14.5996C150.279 15.6888 150.747 16.234 151.681 16.234C151.939 16.234 152.225 16.1378 152.54 15.9456C152.857 15.7545 153.076 15.2599 153.198 14.4604L154.984 15.036Z" fill="#4D4D4D"/>
<path fill-rule="evenodd" clip-rule="evenodd" d="M163.541 12.85C163.541 11.7459 163.28 10.901 162.758 10.3192C162.233 9.73491 161.556 9.44275 160.722 9.44275C159.858 9.44275 159.183 9.75388 158.698 10.3761C158.212 10.9971 157.97 11.8293 157.97 12.8728C157.97 13.8555 158.201 14.6851 158.665 15.3593C159.126 16.0346 159.812 16.3711 160.722 16.3711C161.599 16.3711 162.292 16.046 162.791 15.3934C163.292 14.7421 163.541 13.8934 163.541 12.85ZM166.066 12.9195C166.066 14.5296 165.561 15.831 164.554 16.82C163.546 17.8103 162.237 18.3061 160.63 18.3061C159.069 18.3061 157.815 17.8306 156.867 16.8795C155.92 15.9284 155.446 14.6383 155.446 13.0106C155.446 11.5068 155.894 10.2142 156.789 9.13288C157.683 8.05152 159.008 7.51021 160.767 7.51021C162.541 7.51021 163.867 8.04646 164.748 9.1215C165.625 10.1965 166.066 11.4613 166.066 12.9195Z" fill="#4D4D4D"/>
<path fill-rule="evenodd" clip-rule="evenodd" d="M176.839 14.3606C176.734 15.2833 176.33 16.1731 175.63 17.026C174.93 17.879 173.804 18.3061 172.252 18.3061C170.791 18.3061 169.601 17.86 168.679 16.9677C167.758 16.0767 167.297 14.7764 167.297 13.0691C167.297 11.3936 167.772 10.0476 168.723 9.03238C169.675 8.01718 170.919 7.51021 172.457 7.51021C173.065 7.51021 173.675 7.58752 174.283 7.74088C174.891 7.89424 175.493 8.14772 176.085 8.5026L176.497 11.4088L174.534 11.6154L174.191 9.90944C173.628 9.63314 173.035 9.49373 172.412 9.49373C170.705 9.49373 169.856 10.6484 169.856 12.9538C169.856 15.1997 170.73 16.3226 172.478 16.3226C173.757 16.3226 174.525 15.5381 174.783 13.969L176.839 14.3606Z" fill="#4D4D4D"/>
<path fill-rule="evenodd" clip-rule="evenodd" d="M186.011 12.85C186.011 11.7459 185.75 10.901 185.226 10.3192C184.703 9.73491 184.025 9.44275 183.192 9.44275C182.328 9.44275 181.653 9.75388 181.168 10.3761C180.682 10.9971 180.44 11.8293 180.44 12.8728C180.44 13.8555 180.671 14.6851 181.134 15.3593C181.595 16.0346 182.281 16.3711 183.192 16.3711C184.069 16.3711 184.761 16.046 185.261 15.3934C185.761 14.7421 186.011 13.8934 186.011 12.85ZM188.536 12.9195C188.536 14.5296 188.031 15.831 187.024 16.82C186.016 17.8103 184.706 18.3061 183.1 18.3061C181.539 18.3061 180.285 17.8306 179.337 16.8795C178.39 15.9284 177.916 14.6383 177.916 13.0106C177.916 11.5068 178.363 10.2142 179.259 9.13288C180.152 8.05152 181.478 7.51021 183.236 7.51021C185.011 7.51021 186.337 8.04646 187.218 9.1215C188.095 10.1965 188.536 11.4613 188.536 12.9195Z" fill="#4D4D4D"/>
<path fill-rule="evenodd" clip-rule="evenodd" d="M195 17.9932H189.55V16.109H191.072V4.07464H189.459V2.19048H193.478V16.109H195V17.9932Z" fill="#4D4D4D"/>
</svg>
